{
.appVersion = "3148";
copyright = "Digitized data copyright (C) 2010-2011, Google Corporation.";
customParameters = (
{
name = panose;
value = (
2,
11,
9,
6,
3,
8,
4,
2,
2,
4
);
},
{
name = unicodeRanges;
value = (
0,
1,
2,
3,
5,
6,
7,
9,
29,
30,
31,
32,
33,
35,
36,
38,
45,
62,
67,
69
);
},
{
name = codePageRanges;
value = (
1252,
1250,
1251,
1253,
1254,
1257,
1258
);
},
{
name = glyphOrder;
value = (
.notdef,
null,
nonmarkingreturn,
space,
exclam,
quotedbl,
numbersign,
dollar,
percent,
ampersand,
quotesingle,
parenleft,
parenright,
asterisk,
plus,
comma,
hyphen,
period,
slash,
zero,
one,
two,
three,
four,
five,
six,
seven,
eight,
nine,
colon,
semicolon,
less,
equal,
greater,
question,
at,
A,
B,
C,
D,
E,
F,
G,
H,
I.alt,
J,
K,
L,
M,
N,
O,
P,
Q,
R,
S,
T,
U,
V,
W,
X,
Y,
Z,
bracketleft,
backslash,
bracketright,
asciicircum,
underscore,
grave,
a,
b,
c,
d,
e,
f,
g,
h,
i,
j,
k,
l,
m,
n,
o,
p,
q,
r,
s,
t,
u,
v,
w,
x,
y,
z,
braceleft,
bar,
braceright,
asciitilde,
nonbreakingspace,
exclamdown,
cent,
sterling,
currency,
yen,
brokenbar,
section,
dieresis,
copyright,
ordfeminine,
guillemotleft,
logicalnot,
uni00AD,
registered,
overscore,
degree,
plusminus,
twosuperior,
threesuperior,
acute,
mu,
paragraph,
periodcentered,
cedilla,
onesuperior,
ordmasculine,
guillemotright,
onequarter,
onehalf,
threequarters,
questiondown,
Agrave,
Aacute,
Acircumflex,
Atilde,
Adieresis,
Aring,
AE,
Ccedilla,
Egrave,
Eacute,
Ecircumflex,
Edieresis,
Igrave.alt,
Iacute.alt,
Icircumflex.alt,
Idieresis.alt,
Eth,
Ntilde,
Ograve,
Oacute,
Ocircumflex,
Otilde,
Odieresis,
multiply,
Oslash,
Ugrave,
Uacute,
Ucircumflex,
Udieresis,
Yacute,
Thorn,
germandbls,
agrave,
aacute,
acircumflex,
atilde,
adieresis,
aring,
ae,
ccedilla,
egrave,
eacute,
ecircumflex,
edieresis,
igrave,
iacute,
icircumflex,
idieresis,
eth,
ntilde,
ograve,
oacute,
ocircumflex,
otilde,
odieresis,
divide,
oslash,
ugrave,
uacute,
ucircumflex,
udieresis,
yacute,
thorn,
ydieresis,
Amacron,
amacron,
Abreve,
abreve,
Aogonek,
aogonek,
Cacute,

glyphs = (
{
glyphname = .notdef;
lastChange = "2018-06-23 23:47:21 +0000";
layers = (
{
layerId = "273861F4-9D16-4AA5-A9CF-BC69819DDA51";
paths = (
{
closed = 1;
nodes = (
"505 0 LINE",
"505 714 LINE",
"95 714 LINE",
"95 0 LINE"
);
},
{
closed = 1;
nodes = (
"454 663 LINE",
"454 51 LINE",
"146 51 LINE",
"146 663 LINE"
);
}
);
width = 600;
}
);
note = ".notdef";
},
{
glyphname = exclam;
lastChange = "2018-06-23 23:47:21 +0000";
layers = (
{
layerId = "273861F4-9D16-4AA5-A9CF-BC69819DDA51";
paths = (
{
closed = 1;
nodes = (
"137 714 LINE",
"61 252 LINE",
"221 252 LINE",
"345 714 LINE"
);
},
{
closed = 1;
nodes = (
"6 13 OFFCURVE",
"40 -12 OFFCURVE",
"97 -12 CURVE SMOOTH",
"169 -12 OFFCURVE",
"213 28 OFFCURVE",
"213 100 CURVE SMOOTH",
"213 148 OFFCURVE",
"182 176 OFFCURVE",
"125 176 CURVE SMOOTH",
"51 176 OFFCURVE",
"6 132 OFFCURVE",
"6 62 CURVE SMOOTH"
);
}
);
width = 304;
}
);
note = exclam;
unicode = 0021;
},
{
glyphname = quotedbl;
lastChange = "2018-06-23 23:47:21 +0000";
layers = (
{
layerId = "273861F4-9D16-4AA5-A9CF-BC69819DDA51";
paths = (
{
closed = 1;
nodes = (
"89 456 LINE",
"214 456 LINE",
"291 714 LINE",
"124 714 LINE"
);
},
{
closed = 1;
nodes = (
"304 456 LINE",
"430 456 LINE",
"507 714 LINE",
"340 714 LINE"
);
}
);
width = 454;
}
);
note = quotedbl;
unicode = 0022;
},
{
glyphname = numbersign;
lastChange = "2018-06-23 23:47:21 +0000";
layers = (
{
layerId = "273861F4-9D16-4AA5-A9CF-BC69819DDA51";
paths = (
{
closed = 1;
nodes = (
"663 524 LINE",
"555 524 LINE",
"609 714 LINE",
"477 714 LINE",
"423 524 LINE",
"341 524 LINE",
"395 714 LINE",
"263 714 LINE",
"209 524 LINE",
"70 524 LINE",
"60 406 LINE",
"175 406 LINE",
"147 308 LINE",
"17 308 LINE",
"7 192 LINE",
"114 192 LINE",
"59 0 LINE",
"191 0 LINE",
"246 192 LINE",
"328 192 LINE",
"273 0 LINE",
"405 0 LINE",
"459 192 LINE",
"602 192 LINE",
"612 308 LINE",
"493 308 LINE",
"521 406 LINE",
"653 406 LINE"
);
},
{
closed = 1;
nodes = (
"389 406 LINE",
"361 308 LINE",
"279 308 LINE",
"307 406 LINE"
);
}
);
width = 646;
}
);
note = numbersign;
unicode = 0023;
},
{
glyphname = dollar;
lastChange = "2018-06-23 23:47:21 +0000";
layers = (
{
layerId = "273861F4-9D16-4AA5-A9CF-BC69819DDA51";
paths = (
{
closed = 1;
nodes = (
"521 317 OFFCURVE",
"480 371 OFFCURVE",
"389 415 CURVE SMOOTH",
"351 434 OFFCURVE",
"325 449 OFFCURVE",
"312 461 CURVE SMOOTH",
"299 473 OFFCURVE",
"293 488 OFFCURVE",
"293 505 CURVE SMOOTH",
"293 531 OFFCURVE",
"319 552 OFFCURVE",
"362 552 CURVE SMOOTH",
"406 552 OFFCURVE",
"455 540 OFFCURVE",
"506 517 CURVE",
"574 649 LINE",
"524 673 OFFCURVE",
"473 688 OFFCURVE",
"421 693 CURVE",
"436 760 LINE",
"354 760 LINE",
"340 695 LINE",
"194 685 OFFCURVE",
"100 607 OFFCURVE",
"100 492 CURVE SMOOTH",
"100 408 OFFCURVE",
"151 344 OFFCURVE",
"241 303 CURVE SMOOTH",
"276 287 OFFCURVE",
"299 273 OFFCURVE",
"310 263 CURVE",
"320 252 OFFCURVE",
"325 240 OFFCURVE",
"325 227 CURVE SMOOTH",
"325 193 OFFCURVE",
"297 176 OFFCURVE",
"240 176 CURVE SMOOTH",
"174 176 OFFCURVE",
"112 192 OFFCURVE",
"30 231 CURVE",
"30 79 LINE",
"71 54 OFFCURVE",
"127 40 OFFCURVE",
"199 34 CURVE",
"179 -59 LINE",
"261 -59 LINE",
"280 32 LINE",
"428 41 OFFCURVE",
"521 119 OFFCURVE",
"521 235 CURVE SMOOTH"
);
}
);
width = 580;
}
);
note = dollar;
unicode = 0024;
},
{
glyphname = percent;
lastChange = "2018-06-23 23:47:21 +0000";
layers = (
{
layerId = "273861F4-9D16-4AA5-A9CF-BC69819DDA51";
paths = (
{
closed = 1;
nodes = (
"123 0 LINE",
"268 0 LINE",
"796 714 LINE",
"655 714 LINE"
);
},
{
closed = 1;
nodes = (
"262 606 OFFCURVE",
"269 593 OFFCURVE",
"269 565 CURVE SMOOTH",
"269 481 OFFCURVE",
"241 394 OFFCURVE",
"207 394 CURVE SMOOTH",
"190 394 OFFCURVE",
"181 408 OFFCURVE",
"181 435 CURVE SMOOTH",
"181 520 OFFCURVE",
"210 606 OFFCURVE",
"243 606 CURVE SMOOTH"
);
},
{
closed = 1;
nodes = (
"411 666 OFFCURVE",
"353 724 OFFCURVE",
"257 724 CURVE SMOOTH",
"212 724 OFFCURVE",
"174 712 OFFCURVE",
"141 688 CURVE SMOOTH",
"76 639 OFFCURVE",
"39 546 OFFCURVE",
"39 433 CURVE SMOOTH",
"39 332 OFFCURVE",
"90 276 OFFCURVE",
"194 276 CURVE SMOOTH",
"236 276 OFFCURVE",
"273 289 OFFCURVE",
"307 314 CURVE SMOOTH",
"373 364 OFFCURVE",
"411 459 OFFCURVE",
"411 567 CURVE SMOOTH"
);
},
{
closed = 1;
nodes = (
"739 320 OFFCURVE",
"746 308 OFFCURVE",
"746 279 CURVE SMOOTH",
"746 195 OFFCURVE",
"718 108 OFFCURVE",
"684 108 CURVE SMOOTH",
"667 108 OFFCURVE",
"658 122 OFFCURVE",
"658 149 CURVE SMOOTH",
"658 233 OFFCURVE",
"688 320 OFFCURVE",
"720 320 CURVE SMOOTH"
);
},
{
closed = 1;
nodes = (
"888 380 OFFCURVE",
"830 438 OFFCURVE",
"734 438 CURVE SMOOTH",
"689 438 OFFCURVE",
"651 426 OFFCURVE",
"618 401 CURVE SMOOTH",
"553 353 OFFCURVE",
"516 260 OFFCURVE",
"516 147 CURVE SMOOTH",
"516 46 OFFCURVE",
"567 -10 OFFCURVE",
"671 -10 CURVE SMOOTH",
"713 -10 OFFCURVE",
"750 3 OFFCURVE",
"784 28 CURVE SMOOTH",
"850 79 OFFCURVE",
"888 174 OFFCURVE",
"888 281 CURVE SMOOTH"
);
}
);
width = 917;
}
);
note = percent;
unicode = 0025;
},
{
glyphname = ampersand;
lastChange = "2018-06-23 23:47:21 +0000";
layers = (
{
layerId = "273861F4-9D16-4AA5-A9CF-BC69819DDA51";
paths = (
{
closed = 1;
nodes = (
"4 63 OFFCURVE",
"99 -10 OFFCURVE",
"258 -10 CURVE SMOOTH",
"321 -10 OFFCURVE",
"378 3 OFFCURVE",
"428 30 CURVE",
"449 0 LINE",
"665 0 LINE",
"572 128 LINE",
"642 199 OFFCURVE",
"697 296 OFFCURVE",
"727 401 CURVE",
"540 401 LINE",
"524 347 OFFCURVE",
"496 290 OFFCURVE",
"472 266 CURVE",
"409 357 LINE",
"528 418 OFFCURVE",
"576 482 OFFCURVE",
"576 567 CURVE SMOOTH",
"576 663 OFFCURVE",
"496 725 OFFCURVE",
"373 725 CURVE SMOOTH",
"224 725 OFFCURVE",
"138 648 OFFCURVE",
"138 520 CURVE SMOOTH",
"138 481 OFFCURVE",
"155 428 OFFCURVE",
"179 398 CURVE",
"60 359 OFFCURVE",
"4 292 OFFCURVE",
"4 188 CURVE SMOOTH"
);
},
{
closed = 1;
nodes = (
"389 596 OFFCURVE",
"404 577 OFFCURVE",
"404 554 CURVE SMOOTH",
"404 516 OFFCURVE",
"382 483 OFFCURVE",
"335 463 CURVE",
"318 485 OFFCURVE",
"310 508 OFFCURVE",
"310 533 CURVE SMOOTH",
"310 572 OFFCURVE",
"332 596 OFFCURVE",
"364 596 CURVE SMOOTH"
);
},
{
closed = 1;
nodes = (
"229 140 OFFCURVE",
"195 167 OFFCURVE",
"195 207 CURVE SMOOTH",
"195 245 OFFCURVE",
"214 272 OFFCURVE",
"252 289 CURVE",
"346 153 LINE",
"326 145 OFFCURVE",
"304 140 OFFCURVE",
"279 140 CURVE SMOOTH"
);
}
);
width = 733;
}
);
note = ampersand;
unicode = 0026;
},
{
glyphname = quotesingle;
lastChange = "2018-06-23 23:47:21 +0000";
layers = (
{
layerId = "273861F4-9D16-4AA5-A9CF-BC69819DDA51";
paths = (
{
closed = 1;
nodes = (
"89 456 LINE",
"214 456 LINE",
"291 714 LINE",
"124 714 LINE"
);
}
);
width = 238;
}
);
note = quotesingle;
unicode = 0027;
},
{
glyphname = parenleft;
lastChange = "2018-06-23 23:47:21 +0000";
layers = (
{
layerId = "273861F4-9D16-4AA5-A9CF-BC69819DDA51";
paths = (
{
closed = 1;
nodes = (
"33 47 OFFCURVE",
"63 -80 OFFCURVE",
"107 -158 CURVE",
"250 -158 LINE",
"216 -73 OFFCURVE",
"193 53 OFFCURVE",
"193 151 CURVE SMOOTH",
"193 361 OFFCURVE",
"271 551 OFFCURVE",
"441 734 CURVE",
"283 734 LINE",
"112 559 OFFCURVE",
"33 374 OFFCURVE",
"33 159 CURVE SMOOTH"
);
}
);
width = 374;
}
);
note = parenleft;
unicode = 0028;
},
{
glyphname = parenright;
lastChange = "2018-06-23 23:47:21 +0000";
layers = (
{
layerId = "273861F4-9D16-4AA5-A9CF-BC69819DDA51";
paths = (
{
closed = 1;
nodes = (
"339 532 OFFCURVE",
"312 653 OFFCURVE",
"265 734 CURVE",
"121 734 LINE",
"156 644 OFFCURVE",
"179 522 OFFCURVE",
"179 425 CURVE SMOOTH",
"179 211 OFFCURVE",
"102 22 OFFCURVE",
"-65 -158 CURVE",
"94 -158 LINE",
"260 13 OFFCURVE",
"339 195 OFFCURVE",
"339 417 CURVE SMOOTH"
);
}
);
width = 374;
}
);
note = parenright;
unicode = 0029;
},
{
glyphname = asterisk;
lastChange = "2018-06-23 23:47:21 +0000";
layers = (
{
layerId = "273861F4-9D16-4AA5-A9CF-BC69819DDA51";
paths = (
{
closed = 1;
nodes = (
"279 596 LINE",
"123 677 LINE",
"74 541 LINE",
"220 500 LINE",
"96 388 LINE",
"218 298 LINE",
"299 417 LINE",
"338 269 LINE",
"477 311 LINE",
"405 463 LINE",
"556 443 LINE",
"567 590 LINE",
"387 575 LINE",
"444 737 LINE",
"294 767 LINE"
);
}
);
width = 542;
}
);
note = asterisk;
unicode = 002A;
},
{
glyphname = plus;
lastChange = "2018-06-23 23:47:21 +0000";
layers = (
{
layerId = "273861F4-9D16-4AA5-A9CF-BC69819DDA51";
paths = (
{
closed = 1;
nodes = (
"354 116 LINE",
"354 286 LINE",
"526 286 LINE",
"526 419 LINE",
"354 419 LINE",
"354 591 LINE",
"222 591 LINE",
"222 419 LINE",
"50 419 LINE",
"50 286 LINE",
"222 286 LINE",
"222 116 LINE"
);
}
);
width = 566;
}
);
note = plus;
unicode = 002B;
},
{
glyphname = comma;
lastChange = "2018-06-23 23:47:21 +0000";
layers = (
{
layerId = "273861F4-9D16-4AA5-A9CF-BC69819DDA51";
paths = (
{
closed = 1;
nodes = (
"21 60 LINE SMOOTH",
"-10 -26 OFFCURVE",
"-34 -89 OFFCURVE",
"-51 -129 CURVE",
"90 -129 LINE",
"135 -58 OFFCURVE",
"177 20 OFFCURVE",
"215 105 CURVE",
"211 116 LINE",
"41 116 LINE"
);
}
);
width = 306;
}
);
note = comma;
unicode = 002C;
},
{
glyphname = hyphen;
lastChange = "2018-06-23 23:47:21 +0000";
layers = (
{
layerId = "273861F4-9D16-4AA5-A9CF-BC69819DDA51";
paths = (
{
closed = 1;
nodes = (
"312 344 LINE",
"42 344 LINE",
"11 192 LINE",
"281 192 LINE"
);
}
);
width = 329;
}
);
note = hyphen;
unicode = 002D;
},
{
glyphname = period;
lastChange = "2018-06-23 23:47:21 +0000";
layers = (
{
layerId = "273861F4-9D16-4AA5-A9CF-BC69819DDA51";
paths = (
{
closed = 1;
nodes = (
"0 11 OFFCURVE",
"34 -12 OFFCURVE",
"85 -12 CURVE SMOOTH",
"169 -12 OFFCURVE",
"207 23 OFFCURVE",
"207 100 CURVE SMOOTH",
"207 149 OFFCURVE",
"174 176 OFFCURVE",
"119 176 CURVE SMOOTH",
"45 176 OFFCURVE",
"0 133 OFFCURVE",
"0 62 CURVE SMOOTH"
);
}
);
width = 306;
}
);
note = period;
unicode = 002E;
},
{
glyphname = slash;
lastChange = "2018-06-23 23:47:21 +0000";
layers = (
{
layerId = "273861F4-9D16-4AA5-A9CF-BC69819DDA51";
paths = (
{
closed = 1;
nodes = (
"-44 -10 LINE",
"124 -10 LINE",
"533 724 LINE",
"365 724 LINE"
);
}
);
width = 467;
}
);
note = slash;
unicode = 002F;
},
{
glyphname = zero;
lastChange = "2018-06-23 23:47:21 +0000";
layers = (
{
layerId = "273861F4-9D16-4AA5-A9CF-BC69819DDA51";
paths = (
{
closed = 1;
nodes = (
"565 530 OFFCURVE",
"557 573 OFFCURVE",
"541 609 CURVE SMOOTH",
"508 682 OFFCURVE",
"445 725 OFFCURVE",
"357 725 CURVE SMOOTH",
"292 725 OFFCURVE",
"236 705 OFFCURVE",
"187 665 CURVE SMOOTH",
"89 584 OFFCURVE",
"31 419 OFFCURVE",
"31 227 CURVE SMOOTH",
"31 75 OFFCURVE",
"102 -10 OFFCURVE",
"239 -10 CURVE SMOOTH",
"303 -10 OFFCURVE",
"360 10 OFFCURVE",
"409 49 CURVE SMOOTH",
"506 128 OFFCURVE",
"565 286 OFFCURVE",
"565 480 CURVE SMOOTH"
);
},
{
closed = 1;
nodes = (
"364 571 OFFCURVE",
"375 539 OFFCURVE",
"375 484 CURVE SMOOTH",
"375 376 OFFCURVE",
"347 252 OFFCURVE",
"313 190 CURVE SMOOTH",
"295 160 OFFCURVE",
"277 144 OFFCURVE",
"258 144 CURVE SMOOTH",
"229 144 OFFCURVE",
"221 168 OFFCURVE",
"221 223 CURVE SMOOTH",
"221 319 OFFCURVE",
"246 444 OFFCURVE",
"281 517 CURVE SMOOTH",
"299 553 OFFCURVE",
"317 571 OFFCURVE",
"335 571 CURVE SMOOTH"
);
}
);
width = 580;
}
);
note = zero;
unicode = 0030;
},
{
glyphname = one;
lastChange = "2018-06-23 23:47:21 +0000";
layers = (
{
layerId = "273861F4-9D16-4AA5-A9CF-BC69819DDA51";
paths = (
{
closed = 1;
nodes = (
"376 714 LINE",
"73 527 LINE",
"147 404 LINE",
"246 465 LINE SMOOTH",
"263 476 OFFCURVE",
"285 493 OFFCURVE",
"310 515 CURVE",
"294 475 OFFCURVE",
"282 433 OFFCURVE",
"273 390 CURVE SMOOTH",
"188 0 LINE",
"378 0 LINE",
"528 714 LINE"
);
}
);
width = 580;
}
);
note = one;
unicode = 0031;
},
{
glyphname = two;
lastChange = "2018-06-23 23:47:21 +0000";
layers = (
{
layerId = "273861F4-9D16-4AA5-A9CF-BC69819DDA51";
paths = (
{
closed = 1;
nodes = (
"257 159 LINE",
"257 165 LINE",
"357 251 LINE SMOOTH",
"494 370 OFFCURVE",
"545 445 OFFCURVE",
"545 544 CURVE SMOOTH",
"545 655 OFFCURVE",
"465 724 OFFCURVE",
"346 724 CURVE SMOOTH",
"246 724 OFFCURVE",
"158 688 OFFCURVE",
"82 616 CURVE",
"173 490 LINE",
"225 538 OFFCURVE",
"271 562 OFFCURVE",
"310 562 CURVE SMOOTH",
"336 562 OFFCURVE",
"355 546 OFFCURVE",
"355 514 CURVE SMOOTH",
"355 469 OFFCURVE",
"314 410 OFFCURVE",
"234 338 CURVE SMOOTH",
"-2 125 LINE",
"-28 0 LINE",
"463 0 LINE",
"496 159 LINE"
);
}
);
width = 580;
}
);
note = two;
unicode = 0032;
},
{
glyphname = three;
lastChange = "2018-06-23 23:47:21 +0000";
layers = (
{
layerId = "273861F4-9D16-4AA5-A9CF-BC69819DDA51";
paths = (
{
closed = 1;
nodes = (
"550 659 OFFCURVE",
"465 724 OFFCURVE",
"334 724 CURVE SMOOTH",
"242 724 OFFCURVE",
"171 705 OFFCURVE",
"89 652 CURVE",
"166 531 LINE",
"216 558 OFFCURVE",
"260 572 OFFCURVE",
"298 572 CURVE SMOOTH",
"339 572 OFFCURVE",
"364 552 OFFCURVE",
"364 522 CURVE SMOOTH",
"364 469 OFFCURVE",
"308 437 OFFCURVE",
"212 437 CURVE SMOOTH",
"174 437 LINE",
"148 295 LINE",
"189 295 LINE SMOOTH",
"224 295 OFFCURVE",
"251 293 OFFCURVE",
"270 289 CURVE SMOOTH",
"309 281 OFFCURVE",
"325 265 OFFCURVE",
"325 230 CURVE SMOOTH",
"325 173 OFFCURVE",
"281 142 OFFCURVE",
"191 142 CURVE SMOOTH",
"123 142 OFFCURVE",
"61 158 OFFCURVE",
"7 191 CURVE",
"7 29 LINE",
"50 4 OFFCURVE",
"119 -10 OFFCURVE",
"195 -10 CURVE SMOOTH",
"393 -10 OFFCURVE",
"517 69 OFFCURVE",
"517 210 CURVE SMOOTH",
"517 292 OFFCURVE",
"467 352 OFFCURVE",
"383 368 CURVE",
"383 372 LINE",
"489 394 OFFCURVE",
"550 459 OFFCURVE",
"550 555 CURVE SMOOTH"
);
}
);
width = 580;
}
);
note = three;
unicode = 0033;
},
{
glyphname = four;
lastChange = "2018-06-23 23:47:21 +0000";
layers = (
{
layerId = "273861F4-9D16-4AA5-A9CF-BC69819DDA51";
paths = (
{
closed = 1;
nodes = (
"477 282 LINE",
"568 714 LINE",
"392 714 LINE",
"20 263 LINE",
"-5 138 LINE",
"263 138 LINE",
"234 0 LINE",
"418 0 LINE",
"447 138 LINE",
"520 138 LINE",
"550 282 LINE"
);
},
{
closed = 1;
nodes = (
"286 396 LINE SMOOTH",
"307 420 OFFCURVE",
"325 448 OFFCURVE",
"342 480 CURVE",
"346 480 LINE",
"336 446 OFFCURVE",
"326 412 OFFCURVE",
"317 377 CURVE SMOOTH",
"293 282 LINE",
"191 282 LINE"
);
}
);
width = 580;
}
);
note = four;
unicode = 0034;
},
{
glyphname = five;
lastChange = "2018-06-23 23:47:21 +0000";
layers = (
{
layerId = "273861F4-9D16-4AA5-A9CF-BC69819DDA51";
paths = (
{
closed = 1;
nodes = (
"307 468 OFFCURVE",
"294 467 OFFCURVE",
"283 466 CURVE",
"312 556 LINE",
"542 556 LINE",
"575 714 LINE",
"178 714 LINE",
"73 348 LINE",
"133 303 LINE",
"155 311 OFFCURVE",
"197 319 OFFCURVE",
"232 319 CURVE SMOOTH",
"288 319 OFFCURVE",
"323 285 OFFCURVE",
"323 236 CURVE SMOOTH",
"323 173 OFFCURVE",
"278 142 OFFCURVE",
"188 142 CURVE SMOOTH",
"135 142 OFFCURVE",
"61 160 OFFCURVE",
"10 189 CURVE",
"10 31 LINE",
"45 5 OFFCURVE",
"128 -10 OFFCURVE",
"212 -10 CURVE SMOOTH",
"411 -10 OFFCURVE",
"518 86 OFFCURVE",
"518 256 CURVE SMOOTH",
"518 385 OFFCURVE",
"438 468 OFFCURVE",
"320 468 CURVE SMOOTH"
);
}
);
width = 580;
}
);
note = five;
unicode = 0035;
},
{
glyphname = six;
lastChange = "2018-06-23 23:47:21 +0000";
layers = (
{
layerId = "273861F4-9D16-4AA5-A9CF-BC69819DDA51";
paths = (
{
closed = 1;
nodes = (
"243 724 OFFCURVE",
"106 609 OFFCURVE",
"51 354 CURVE",
"42 306 OFFCURVE",
"38 264 OFFCURVE",
"38 230 CURVE SMOOTH",
"38 72 OFFCURVE",
"119 -10 OFFCURVE",
"265 -10 CURVE SMOOTH",
"320 -10 OFFCURVE",
"369 2 OFFCURVE",
"411 26 CURVE SMOOTH",
"494 74 OFFCURVE",
"540 167 OFFCURVE",
"540 281 CURVE SMOOTH",
"540 408 OFFCURVE",
"484 477 OFFCURVE",
"380 477 CURVE SMOOTH",
"314 477 OFFCURVE",
"265 449 OFFCURVE",
"230 394 CURVE",
"226 394 LINE",
"241 443 OFFCURVE",
"259 479 OFFCURVE",
"278 504 CURVE SMOOTH",
"317 552 OFFCURVE",
"374 573 OFFCURVE",
"468 573 CURVE SMOOTH",
"497 573 OFFCURVE",
"526 569 OFFCURVE",
"557 561 CURVE",
"588 709 LINE",
"545 719 OFFCURVE",
"507 724 OFFCURVE",
"474 724 CURVE SMOOTH"
);
},
{
closed = 1;
nodes = (
"245 140 OFFCURVE",
"226 162 OFFCURVE",
"226 205 CURVE SMOOTH",
"226 275 OFFCURVE",
"259 329 OFFCURVE",
"303 329 CURVE SMOOTH",
"333 329 OFFCURVE",
"348 308 OFFCURVE",
"348 266 CURVE SMOOTH",
"348 198 OFFCURVE",
"317 140 OFFCURVE",
"274 140 CURVE SMOOTH"
);
}
);
width = 580;
}
);
note = six;
unicode = 0036;
},
{
glyphname = seven;
lastChange = "2018-06-23 23:47:21 +0000";
layers = (
{
layerId = "273861F4-9D16-4AA5-A9CF-BC69819DDA51";
paths = (
{
closed = 1;
nodes = (
"599 601 LINE",
"624 714 LINE",
"121 714 LINE",
"87 554 LINE",
"367 554 LINE",
"17 0 LINE",
"236 0 LINE"
);
}
);
width = 580;
}
);
note = seven;
unicode = 0037;
},
{
glyphname = eight;
lastChange = "2018-06-23 23:47:21 +0000";
layers = (
{
layerId = "273861F4-9D16-4AA5-A9CF-BC69819DDA51";
paths = (
{
closed = 1;
nodes = (
"305 725 OFFCURVE",
"261 716 OFFCURVE",
"225 699 CURVE SMOOTH",
"150 664 OFFCURVE",
"110 599 OFFCURVE",
"110 520 CURVE SMOOTH",
"110 459 OFFCURVE",
"135 409 OFFCURVE",
"186 369 CURVE",
"78 331 OFFCURVE",
"24 263 OFFCURVE",
"24 165 CURVE SMOOTH",
"24 61 OFFCURVE",
"116 -10 OFFCURVE",
"262 -10 CURVE SMOOTH",
"422 -10 OFFCURVE",
"520 71 OFFCURVE",
"520 205 CURVE SMOOTH",
"520 281 OFFCURVE",
"488 335 OFFCURVE",
"428 382 CURVE",
"510 408 OFFCURVE",
"565 479 OFFCURVE",
"565 562 CURVE SMOOTH",
"565 659 OFFCURVE",
"484 725 OFFCURVE",
"354 725 CURVE SMOOTH"
);
},
{
closed = 1;
nodes = (
"324 271 OFFCURVE",
"343 240 OFFCURVE",
"343 202 CURVE SMOOTH",
"343 158 OFFCURVE",
"313 128 OFFCURVE",
"267 128 CURVE SMOOTH",
"228 128 OFFCURVE",
"202 153 OFFCURVE",
"202 188 CURVE SMOOTH",
"202 231 OFFCURVE",
"230 268 OFFCURVE",
"285 297 CURVE"
);
},
{
closed = 1;
nodes = (
"369 587 OFFCURVE",
"391 571 OFFCURVE",
"391 539 CURVE SMOOTH",
"391 504 OFFCURVE",
"367 468 OFFCURVE",
"329 454 CURVE",
"304 466 OFFCURVE",
"287 495 OFFCURVE",
"287 520 CURVE SMOOTH",
"287 558 OFFCURVE",
"314 587 OFFCURVE",
"345 587 CURVE SMOOTH"
);
}
);
width = 580;
}
);
note = eight;
unicode = 0038;
},
{
glyphname = nine;
lastChange = "2018-06-23 23:47:21 +0000";
layers = (
{
layerId = "273861F4-9D16-4AA5-A9CF-BC69819DDA51";
paths = (
{
closed = 1;
nodes = (
"555 631 OFFCURVE",
"473 724 OFFCURVE",
"323 724 CURVE SMOOTH",
"267 724 OFFCURVE",
"219 712 OFFCURVE",
"178 688 CURVE SMOOTH",
"97 638 OFFCURVE",
"53 548 OFFCURVE",
"53 433 CURVE SMOOTH",
"53 312 OFFCURVE",
"115 235 OFFCURVE",
"213 235 CURVE SMOOTH",
"275 235 OFFCURVE",
"321 258 OFFCURVE",
"360 320 CURVE",
"364 320 LINE",
"338 193 OFFCURVE",
"272 140 OFFCURVE",
"151 140 CURVE SMOOTH",
"115 140 OFFCURVE",
"82 146 OFFCURVE",
"52 158 CURVE",
"52 5 LINE",
"83 -5 OFFCURVE",
"117 -10 OFFCURVE",
"155 -10 CURVE SMOOTH",
"236 -10 OFFCURVE",
"306 9 OFFCURVE",
"366 45 CURVE SMOOTH",
"484 119 OFFCURVE",
"555 274 OFFCURVE",
"555 465 CURVE SMOOTH"
);
},
{
closed = 1;
nodes = (
"356 574 OFFCURVE",
"376 546 OFFCURVE",
"376 503 CURVE SMOOTH",
"376 437 OFFCURVE",
"338 385 OFFCURVE",
"290 385 CURVE SMOOTH",
"260 385 OFFCURVE",
"245 408 OFFCURVE",
"245 455 CURVE SMOOTH",
"245 521 OFFCURVE",
"281 574 OFFCURVE",
"328 574 CURVE SMOOTH"
);
}
);
width = 580;
}
);
note = nine;
unicode = 0039;
},
{
glyphname = colon;
lastChange = "2018-06-23 23:47:21 +0000";
layers = (
{
layerId = "273861F4-9D16-4AA5-A9CF-BC69819DDA51";
paths = (
{
closed = 1;
nodes = (
"0 11 OFFCURVE",
"34 -12 OFFCURVE",
"85 -12 CURVE SMOOTH",
"169 -12 OFFCURVE",
"207 23 OFFCURVE",
"207 100 CURVE SMOOTH",
"207 149 OFFCURVE",
"174 176 OFFCURVE",
"119 176 CURVE SMOOTH",
"45 176 OFFCURVE",
"0 133 OFFCURVE",
"0 62 CURVE SMOOTH"
);
},
{
closed = 1;
nodes = (
"95 396 OFFCURVE",
"129 372 OFFCURVE",
"180 372 CURVE SMOOTH",
"266 372 OFFCURVE",
"302 407 OFFCURVE",
"302 485 CURVE SMOOTH",
"302 536 OFFCURVE",
"266 560 OFFCURVE",
"213 560 CURVE SMOOTH",
"141 560 OFFCURVE",
"95 519 OFFCURVE",
"95 447 CURVE SMOOTH"
);
}
);
width = 306;
}
);
note = colon;
unicode = 003A;
},
{
glyphname = semicolon;
lastChange = "2018-06-23 23:47:21 +0000";
layers = (
{
layerId = "273861F4-9D16-4AA5-A9CF-BC69819DDA51";
paths = (
{
closed = 1;
nodes = (
"15 60 LINE SMOOTH",
"-12 -18 OFFCURVE",
"-36 -81 OFFCURVE",
"-57 -129 CURVE",
"84 -129 LINE",
"129 -58 OFFCURVE",
"171 20 OFFCURVE",
"209 105 CURVE",
"205 116 LINE",
"35 116 LINE"
);
},
{
closed = 1;
nodes = (
"95 396 OFFCURVE",
"129 372 OFFCURVE",
"180 372 CURVE SMOOTH",
"266 372 OFFCURVE",
"302 407 OFFCURVE",
"302 485 CURVE SMOOTH",
"302 536 OFFCURVE",
"266 560 OFFCURVE",
"213 560 CURVE SMOOTH",
"141 560 OFFCURVE",
"95 519 OFFCURVE",
"95 447 CURVE SMOOTH"
);
}
);
width = 306;
}
);
note = semicolon;
unicode = 003B;
},
{
glyphname = less;
lastChange = "2018-06-23 23:47:21 +0000";
layers = (
{
layerId = "273861F4-9D16-4AA5-A9CF-BC69819DDA51";
paths = (
{
closed = 1;
nodes = (
"237 354 LINE",
"518 492 LINE",
"518 638 LINE",
"43 390 LINE",
"43 306 LINE",
"518 86 LINE",
"518 231 LINE"
);
}
);
width = 566;
}
);
note = less;
unicode = 003C;
},
{
glyphname = equal;
lastChange = "2018-06-23 23:47:21 +0000";
layers = (
{
layerId = "273861F4-9D16-4AA5-A9CF-BC69819DDA51";
paths = (
{
closed = 1;
nodes = (
"526 508 LINE",
"50 508 LINE",
"50 378 LINE",
"526 378 LINE"
);
},
{
closed = 1;
nodes = (
"526 327 LINE",
"50 327 LINE",
"50 195 LINE",
"526 195 LINE"
);
}
);
width = 566;
}
);
note = equal;
unicode = 003D;
},
{
glyphname = greater;
lastChange = "2018-06-23 23:47:21 +0000";
layers = (
{
layerId = "273861F4-9D16-4AA5-A9CF-BC69819DDA51";
paths = (
{
closed = 1;
nodes = (
"528 306 LINE",
"528 390 LINE",
"53 638 LINE",
"53 492 LINE",
"334 354 LINE",
"53 231 LINE",
"53 86 LINE"
);
}
);
width = 566;
}
);
note = greater;
unicode = 003E;
},
{
glyphname = question;
lastChange = "2018-06-23 23:47:21 +0000";
layers = (
{
layerId = "273861F4-9D16-4AA5-A9CF-BC69819DDA51";
paths = (
{
closed = 1;
nodes = (
"286 273 LINE",
"294 302 OFFCURVE",
"318 324 OFFCURVE",
"383 363 CURVE SMOOTH",
"421 386 OFFCURVE",
"449 407 OFFCURVE",
"466 424 CURVE SMOOTH",
"500 459 OFFCURVE",
"518 501 OFFCURVE",
"518 559 CURVE SMOOTH",
"518 662 OFFCURVE",
"435 724 OFFCURVE",
"304 724 CURVE SMOOTH",
"229 724 OFFCURVE",
"154 702 OFFCURVE",
"79 658 CURVE",
"137 520 LINE",
"198 556 OFFCURVE",
"249 573 OFFCURVE",
"290 573 CURVE SMOOTH",
"319 573 OFFCURVE",
"334 562 OFFCURVE",
"334 539 CURVE SMOOTH",
"334 526 OFFCURVE",
"328 514 OFFCURVE",
"316 501 CURVE SMOOTH",
"304 489 OFFCURVE",
"284 474 OFFCURVE",
"255 455 CURVE SMOOTH",
"223 434 OFFCURVE",
"200 417 OFFCURVE",
"186 401 CURVE SMOOTH",
"157 372 OFFCURVE",
"141 335 OFFCURVE",
"131 283 CURVE SMOOTH",
"125 252 LINE",
"279 252 LINE"
);
},
{
closed = 1;
nodes = (
"86 14 OFFCURVE",
"120 -12 OFFCURVE",
"177 -12 CURVE SMOOTH",
"249 -12 OFFCURVE",
"293 28 OFFCURVE",
"293 100 CURVE SMOOTH",
"293 148 OFFCURVE",
"262 176 OFFCURVE",
"205 176 CURVE SMOOTH",
"131 176 OFFCURVE",
"86 132 OFFCURVE",
"86 62 CURVE SMOOTH"
);
}
);
width = 488;
}
);
note = question;
unicode = 003F;
},
{
glyphname = at;
lastChange = "2018-06-23 23:47:21 +0000";
layers = (
{
layerId = "273861F4-9D16-4AA5-A9CF-BC69819DDA51";
paths = (
{
closed = 1;
nodes = (
"866 604 OFFCURVE",
"729 724 OFFCURVE",
"498 724 CURVE SMOOTH",
"411 724 OFFCURVE",
"332 704 OFFCURVE",
"261 664 CURVE SMOOTH",
"119 583 OFFCURVE",
"40 432 OFFCURVE",
"40 244 CURVE SMOOTH",
"40 177 OFFCURVE",
"54 118 OFFCURVE",
"82 67 CURVE SMOOTH",
"138 -35 OFFCURVE",
"245 -91 OFFCURVE",
"381 -91 CURVE SMOOTH",
"458 -91 OFFCURVE",
"554 -71 OFFCURVE",
"613 -43 CURVE",
"613 67 LINE",
"539 38 OFFCURVE",
"446 21 OFFCURVE",
"379 21 CURVE SMOOTH",
"338 21 OFFCURVE",
"302 31 OFFCURVE",
"270 50 CURVE SMOOTH",
"206 88 OFFCURVE",
"168 162 OFFCURVE",
"168 256 CURVE SMOOTH",
"168 325 OFFCURVE",
"182 387 OFFCURVE",
"208 441 CURVE SMOOTH",
"262 550 OFFCURVE",
"364 612 OFFCURVE",
"486 612 CURVE SMOOTH",
"648 612 OFFCURVE",
"738 540 OFFCURVE",
"738 401 CURVE SMOOTH",
"738 363 OFFCURVE",
"733 330 OFFCURVE",
"724 300 CURVE SMOOTH",
"704 242 OFFCURVE",
"668 209 OFFCURVE",
"627 209 CURVE SMOOTH",
"614 209 OFFCURVE",
"608 216 OFFCURVE",
"608 229 CURVE SMOOTH",
"608 243 OFFCURVE",
"612 265 OFFCURVE",
"619 296 CURVE SMOOTH",
"668 498 LINE",
"609 521 OFFCURVE",
"554 532 OFFCURVE",
"504 532 CURVE SMOOTH",
"454 532 OFFCURVE",
"409 521 OFFCURVE",
"369 497 CURVE SMOOTH",
"289 450 OFFCURVE",
"237 352 OFFCURVE",
"237 250 CURVE SMOOTH",
"237 160 OFFCURVE",
"290 101 OFFCURVE",
"366 101 CURVE SMOOTH",
"427 101 OFFCURVE",
"466 122 OFFCURVE",
"497 164 CURVE",
"502 164 LINE",
"518 122 OFFCURVE",
"554 101 OFFCURVE",
"609 101 CURVE SMOOTH",
"656 101 OFFCURVE",
"700 114 OFFCURVE",
"739 141 CURVE SMOOTH",
"818 193 OFFCURVE",
"866 293 OFFCURVE",
"866 404 CURVE SMOOTH"
);
},
{
closed = 1;
nodes = (
"503 424 OFFCURVE",
"512 422 OFFCURVE",
"519 419 CURVE",
"496 326 LINE SMOOTH",
"484 282 OFFCURVE",
"472 251 OFFCURVE",
"460 234 CURVE SMOOTH",
"447 217 OFFCURVE",
"431 209 OFFCURVE",
"411 209 CURVE SMOOTH",
"386 209 OFFCURVE",
"373 226 OFFCURVE",
"373 260 CURVE SMOOTH",
"373 287 OFFCURVE",
"378 313 OFFCURVE",
"389 339 CURVE SMOOTH",
"410 391 OFFCURVE",
"447 424 OFFCURVE",
"494 424 CURVE SMOOTH"
);
}
);
width = 897;
}
);
note = at;
unicode = 0040;
},
{
glyphname = A;
lastChange = "2018-06-23 23:47:21 +0000";
layers = (
{
anchors = (
{
name = bottom;
position = "{279, 0}";
},
{
name = ogonek;
position = "{550, 5}";
},
{
name = top;
position = "{431, 714}";
}
);
layerId = "273861F4-9D16-4AA5-A9CF-BC69819DDA51";
paths = (
{
closed = 1;
nodes = (
"610 0 LINE",
"550 714 LINE",
"304 714 LINE",
"-59 0 LINE",
"139 0 LINE",
"200 134 LINE",
"419 134 LINE",
"424 0 LINE"
);
},
{
closed = 1;
nodes = (
"388 544 OFFCURVE",
"398 571 OFFCURVE",
"406 599 CURVE",
"404 581 OFFCURVE",
"404 560 OFFCURVE",
"404 535 CURVE SMOOTH",
"405 493 LINE",
"413 286 LINE",
"270 286 LINE",
"376 518 LINE SMOOTH"
);
}
);
width = 676;
}
);
note = A;
unicode = 0041;
},
{
glyphname = B;
lastChange = "2018-06-23 23:47:21 +0000";
layers = (
{
anchors = (
{
name = bottom;
position = "{258, 0}";
},
{
name = top;
position = "{410, 714}";
}
);
layerId = "273861F4-9D16-4AA5-A9CF-BC69819DDA51";
paths = (
{
closed = 1;
nodes = (
"283 0 LINE SMOOTH",
"465 0 OFFCURVE",
"569 85 OFFCURVE",
"569 234 CURVE SMOOTH",
"569 302 OFFCURVE",
"532 351 OFFCURVE",
"475 370 CURVE",
"475 374 LINE",
"572 403 OFFCURVE",
"620 464 OFFCURVE",
"620 558 CURVE SMOOTH",
"620 658 OFFCURVE",
"546 714 OFFCURVE",
"405 714 CURVE SMOOTH",
"167 714 LINE",
"16 0 LINE"
);
},
{
closed = 1;
nodes = (
"360 568 LINE SMOOTH",
"401 568 OFFCURVE",
"422 551 OFFCURVE",
"422 518 CURVE SMOOTH",
"422 463 OFFCURVE",
"392 440 OFFCURVE",
"335 440 CURVE SMOOTH",
"300 440 LINE",
"329 568 LINE"
);
},
{
closed = 1;
nodes = (
"358 299 OFFCURVE",
"377 277 OFFCURVE",
"377 232 CURVE SMOOTH",
"377 185 OFFCURVE",
"335 149 OFFCURVE",
"279 149 CURVE SMOOTH",
"239 149 LINE",
"271 299 LINE",
"304 299 LINE SMOOTH"
);
}
);
width = 634;
}
);
note = B;
unicode = 0042;
},
{
glyphname = C;
lastChange = "2018-06-23 23:47:21 +0000";
layers = (
{
anchors = (
{
name = bottom;
position = "{256, 0}";
},
{
name = top;
position = "{408, 714}";
}
);
layerId = "273861F4-9D16-4AA5-A9CF-BC69819DDA51";
paths = (
{
closed = 1;
nodes = (
"485 566 OFFCURVE",
"532 548 OFFCURVE",
"593 512 CURVE",
"665 661 LINE",
"595 704 OFFCURVE",
"517 725 OFFCURVE",
"430 725 CURVE SMOOTH",
"357 725 OFFCURVE",
"292 707 OFFCURVE",
"235 670 CURVE SMOOTH",
"122 596 OFFCURVE",
"51 441 OFFCURVE",
"51 268 CURVE SMOOTH",
"51 91 OFFCURVE",
"146 -10 OFFCURVE",
"315 -10 CURVE SMOOTH",
"392 -10 OFFCURVE",
"464 5 OFFCURVE",
"530 34 CURVE",
"530 192 LINE",
"455 160 OFFCURVE",
"404 148 OFFCURVE",
"350 148 CURVE SMOOTH",
"282 148 OFFCURVE",
"244 190 OFFCURVE",
"244 278 CURVE SMOOTH",
"244 330 OFFCURVE",
"252 378 OFFCURVE",
"269 423 CURVE SMOOTH",
"301 512 OFFCURVE",
"360 566 OFFCURVE",
"430 566 CURVE SMOOTH"
);
}
);
width = 630;
}
);
note = C;
unicode = 0043;
},
{
glyphname = D;
lastChange = "2018-06-23 23:47:21 +0000";
layers = (
{
anchors = (
{
name = bottom;
position = "{284, 0}";
},
{
name = center;
position = "{359, 357}";
},
{
name = top;
position = "{435, 714}";
}
);
layerId = "273861F4-9D16-4AA5-A9CF-BC69819DDA51";
paths = (
{
closed = 1;
nodes = (
"653 616 OFFCURVE",
"550 714 OFFCURVE",
"370 714 CURVE SMOOTH",
"167 714 LINE",
"16 0 LINE",
"246 0 LINE SMOOTH",
"330 0 OFFCURVE",
"403 18 OFFCURVE",
"464 53 CURVE SMOOTH",
"587 124 OFFCURVE",
"653 262 OFFCURVE",
"653 444 CURVE SMOOTH"
);
},
{
closed = 1;
nodes = (
"325 558 LINE",
"360 558 LINE SMOOTH",
"423 558 OFFCURVE",
"460 516 OFFCURVE",
"460 434 CURVE SMOOTH",
"460 380 OFFCURVE",
"452 332 OFFCURVE",
"437 290 CURVE SMOOTH",
"405 206 OFFCURVE",
"347 158 OFFCURVE",
"275 158 CURVE SMOOTH",
"241 158 LINE"
);
}
);
width = 684;
}
);
note = D;
unicode = 0044;
},
{
glyphname = E;
lastChange = "2018-06-23 23:47:21 +0000";
layers = (
{
anchors = (
{
name = bottom;
position = "{223, 0}";
},
{
name = ogonek;
position = "{447, 5}";
},
{
name = top;
position = "{374, 714}";
},
{
name = topleft;
position = "{103, 714}";
}
);
layerId = "273861F4-9D16-4AA5-A9CF-BC69819DDA51";
paths = (
{
closed = 1;
nodes = (
"240 157 LINE",
"268 292 LINE",
"485 292 LINE",
"520 447 LINE",
"303 447 LINE",
"326 559 LINE",
"559 559 LINE",
"591 714 LINE",
"167 714 LINE",
"16 0 LINE",
"440 0 LINE",
"473 157 LINE"
);
}
);
width = 562;
}
);
note = E;
unicode = 0045;
},
{
glyphname = F;
lastChange = "2018-06-23 23:47:21 +0000";
layers = (
{
anchors = (
{
name = bottom;
position = "{226, 0}";
},
{
name = top;
position = "{377, 714}";
}
);
layerId = "273861F4-9D16-4AA5-A9CF-BC69819DDA51";
paths = (
{
closed = 1;
nodes = (
"476 267 LINE",
"510 423 LINE",
"297 423 LINE",
"325 559 LINE",
"555 559 LINE",
"588 714 LINE",
"167 714 LINE",
"16 0 LINE",
"207 0 LINE",
"262 267 LINE"
);
}
);
width = 569;
}
);
note = F;
unicode = 0046;
},
{
glyphname = G;
lastChange = "2018-06-23 23:47:21 +0000";
layers = (
{
anchors = (
{
name = bottom;
position = "{291, 0}";
},
{
name = top;
position = "{442, 714}";
}
);
layerId = "273861F4-9D16-4AA5-A9CF-BC69819DDA51";
paths = (
{
closed = 1;
nodes = (
"436 269 LINE",
"411 156 LINE",
"388 151 OFFCURVE",
"367 149 OFFCURVE",
"346 149 CURVE SMOOTH",
"278 149 OFFCURVE",
"244 192 OFFCURVE",
"244 278 CURVE SMOOTH",
"244 330 OFFCURVE",
"254 379 OFFCURVE",
"274 426 CURVE SMOOTH",
"313 518 OFFCURVE",
"381 566 OFFCURVE",
"467 566 CURVE SMOOTH",
"517 566 OFFCURVE",
"566 551 OFFCURVE",
"616 522 CURVE",
"688 673 LINE",
"629 708 OFFCURVE",
"556 725 OFFCURVE",
"469 725 CURVE SMOOTH",
"387 725 OFFCURVE",
"314 707 OFFCURVE",
"252 670 CURVE SMOOTH",
"127 597 OFFCURVE",
"51 449 OFFCURVE",
"51 275 CURVE SMOOTH",
"51 93 OFFCURVE",
"149 -10 OFFCURVE",
"319 -10 CURVE SMOOTH",
"407 -10 OFFCURVE",
"492 3 OFFCURVE",
"573 30 CURVE",
"655 418 LINE",
"357 418 LINE",
"324 269 LINE"
);
}
);
width = 698;
}
);
note = G;
unicode = 0047;
},
{
glyphname = H;
lastChange = "2018-06-23 23:47:21 +0000";
layers = (
{
anchors = (
{
name = bottom;
position = "{298, 0}";
},
{
name = center;
position = "{374, 357}";
},
{
name = top;
position = "{450, 714}";
},
{
name = topleft;
position = "{103, 714}";
}
);
layerId = "273861F4-9D16-4AA5-A9CF-BC69819DDA51";
paths = (
{
closed = 1;
nodes = (
"528 714 LINE",
"473 449 LINE",
"303 449 LINE",
"358 714 LINE",
"167 714 LINE",
"16 0 LINE",
"207 0 LINE",
"269 291 LINE",
"438 291 LINE",
"377 0 LINE",
"568 0 LINE",
"719 714 LINE"
);
}
);
width = 714;
}
);
note = H;
unicode = 0048;
},
{
glyphname = I.alt;
lastChange = "2018-06-23 23:47:21 +0000";
layers = (
{
anchors = (
{
name = bottom;
position = "{154, 0}";
},
{
name = ogonek;
position = "{325, 5}";
},
{
name = top;
position = "{306, 714}";
},
{
name = topleft;
position = "{103, 714}";
}
);
layerId = "273861F4-9D16-4AA5-A9CF-BC69819DDA51";
paths = (
{
closed = 1;
nodes = (
"272 148 LINE",
"360 562 LINE",
"458 604 LINE",
"481 714 LINE",
"114 714 LINE",
"91 604 LINE",
"169 562 LINE",
"81 148 LINE",
"-13 109 LINE",
"-36 0 LINE",
"328 0 LINE",
"351 109 LINE"
);
}
);
width = 426;
}
);
note = I.alt;
},
{
glyphname = J;
lastChange = "2018-06-23 23:47:21 +0000";
layers = (
{
anchors = (
{
name = bottom;
position = "{128, 0}";
},
{
name = top;
position = "{279, 714}";
}
);
guideLines = (
{
angle = 78;
position = "{271, 50}";
}
);
layerId = "273861F4-9D16-4AA5-A9CF-BC69819DDA51";
paths = (
{
closed = 1;
nodes = (
"2 -225 OFFCURVE",
"50 -217 OFFCURVE",
"87 -200 CURVE SMOOTH",
"160 -166 OFFCURVE",
"203 -97 OFFCURVE",
"231 33 CURVE SMOOTH",
"377 714 LINE",
"186 714 LINE",
"45 57 LINE SMOOTH",
"26 -31 OFFCURVE",
"-5 -67 OFFCURVE",
"-75 -67 CURVE SMOOTH",
"-100 -67 OFFCURVE",
"-128 -63 OFFCURVE",
"-160 -55 CURVE",
"-160 -211 LINE",
"-125 -220 OFFCURVE",
"-91 -225 OFFCURVE",
"-56 -225 CURVE SMOOTH"
);
}
);
width = 373;
}
);
note = J;
unicode = 004A;
},
{
glyphname = K;
lastChange = "2018-06-23 23:47:21 +0000";
layers = (
{
anchors = (
{
name = bottom;
position = "{276, 0}";
},
{
name = top;
position = "{427, 714}";
}
);
layerId = "273861F4-9D16-4AA5-A9CF-BC69819DDA51";
paths = (
{
closed = 1;
nodes = (
"743 714 LINE",
"519 714 LINE",
"374 533 LINE SMOOTH",
"360 516 OFFCURVE",
"339 484 OFFCURVE",
"311 438 CURVE SMOOTH",
"292 409 LINE",
"358 714 LINE",
"167 714 LINE",
"16 0 LINE",
"207 0 LINE",
"260 255 LINE",
"307 282 LINE",
"392 0 LINE",
"606 0 LINE",
"474 385 LINE"
);
}
);
width = 669;
}
);
note = K;
unicode = 004B;
},
{
glyphname = L;
lastChange = "2018-06-23 23:47:21 +0000";
layers = (
{
anchors = (
{
name = bottom;
position = "{205, 0}";
},
{
name = center;
position = "{281, 357}";
},
{
name = top;
position = "{356, 714}";
},
{
name = topright;
position = "{610, 714}";
}
);
layerId = "273861F4-9D16-4AA5-A9CF-BC69819DDA51";
paths = (
{
closed = 1;
nodes = (
"473 156 LINE",
"240 156 LINE",
"358 714 LINE",
"167 714 LINE",
"16 0 LINE",
"440 0 LINE"
);
}
);
width = 527;
}
);
note = L;
unicode = 004C;
},
{
glyphname = M;
lastChange = "2018-06-23 23:47:21 +0000";
layers = (
{
anchors = (
{
name = bottom;
position = "{396, 0}";
},
{
name = top;
position = "{547, 714}";
}
);
layerId = "273861F4-9D16-4AA5-A9CF-BC69819DDA51";
paths = (
{
closed = 1;
nodes = (
"703 512 LINE",
"707 512 LINE",
"700 481 LINE",
"681 413 OFFCURVE",
"663 342 OFFCURVE",
"647 268 CURVE SMOOTH",
"590 0 LINE",
"761 0 LINE",
"914 714 LINE",
"657 714 LINE",
"424 207 LINE",
"420 207 LINE",
"420 714 LINE",
"167 714 LINE",
"16 0 LINE",
"186 0 LINE",
"241 262 LINE SMOOTH",
"248 293 OFFCURVE",
"261 376 OFFCURVE",
"283 512 CURVE",
"287 512 LINE",
"287 0 LINE",
"468 0 LINE"
);
}
);
width = 909;
}
);
note = M;
unicode = 004D;
},
{
glyphname = N;
lastChange = "2018-06-23 23:47:21 +0000";
layers = (
{
anchors = (
{
name = bottom;
position = "{336, 0}";
},
{
name = top;
position = "{488, 714}";
}
);
layerId = "273861F4-9D16-4AA5-A9CF-BC69819DDA51";
paths = (
{
closed = 1;
nodes = (
"625 714 LINE",
"561 415 LINE SMOOTH",
"552 371 OFFCURVE",
"542 311 OFFCURVE",
"533 234 CURVE",
"529 234 LINE",
"389 714 LINE",
"167 714 LINE",
"16 0 LINE",
"186 0 LINE",
"249 298 LINE SMOOTH",
"258 339 OFFCURVE",
"268 407 OFFCURVE",
"277 502 CURVE",
"281 502 LINE",
"422 0 LINE",
"644 0 LINE",
"795 714 LINE"
);
}
);
width = 790;
}
);
note = N;
unicode = 004E;
},
{
glyphname = O;
lastChange = "2018-06-23 23:47:21 +0000";
layers = (
{
anchors = (
{
name = bottom;
position = "{310, 0}";
},
{
name = center;
position = "{386, 357}";
},
{
name = ogonek;
position = "{604, 5}";
},
{
name = top;
position = "{461, 714}";
},
{
name = topleft;
position = "{103, 714}";
},
{
name = topright;
position = "{820, 714}";
}
);
layerId = "273861F4-9D16-4AA5-A9CF-BC69819DDA51";
paths = (
{
closed = 1;
nodes = (
"362 725 OFFCURVE",
"296 706 OFFCURVE",
"238 668 CURVE SMOOTH",
"123 592 OFFCURVE",
"51 438 OFFCURVE",
"51 265 CURVE SMOOTH",
"51 93 OFFCURVE",
"150 -10 OFFCURVE",
"325 -10 CURVE SMOOTH",
"400 -10 OFFCURVE",
"466 9 OFFCURVE",
"523 48 CURVE SMOOTH",
"637 124 OFFCURVE",
"706 277 OFFCURVE",
"706 450 CURVE SMOOTH",
"706 624 OFFCURVE",
"607 725 OFFCURVE",
"438 725 CURVE SMOOTH"
);
},
{
closed = 1;
nodes = (
"513 394 OFFCURVE",
"506 344 OFFCURVE",
"491 298 CURVE SMOOTH",
"460 206 OFFCURVE",
"404 148 OFFCURVE",
"342 148 CURVE SMOOTH",
"277 148 OFFCURVE",
"244 188 OFFCURVE",
"244 266 CURVE SMOOTH",
"244 316 OFFCURVE",
"252 365 OFFCURVE",
"269 413 CURVE SMOOTH",
"301 509 OFFCURVE",
"357 567 OFFCURVE",
"422 567 CURVE SMOOTH",
"481 567 OFFCURVE",
"513 522 OFFCURVE",
"513 448 CURVE SMOOTH"
);
}
);
width = 737;
}
);
note = O;
unicode = 004F;
},
{
glyphname = P;
lastChange = "2018-06-23 23:47:21 +0000";
layers = (
{
anchors = (
{
name = bottom;
position = "{253, 0}";
},
{
name = top;
position = "{404, 714}";
}
);
layerId = "273861F4-9D16-4AA5-A9CF-BC69819DDA51";
paths = (
{
closed = 1;
nodes = (
"611 637 OFFCURVE",
"518 714 OFFCURVE",
"349 714 CURVE SMOOTH",
"167 714 LINE",
"16 0 LINE",
"207 0 LINE",
"256 237 LINE",
"298 237 LINE SMOOTH",
"492 237 OFFCURVE",
"611 336 OFFCURVE",
"611 500 CURVE SMOOTH"
);
},
{
closed = 1;
nodes = (
"354 558 LINE SMOOTH",
"395 558 OFFCURVE",
"420 533 OFFCURVE",
"420 494 CURVE SMOOTH",
"420 436 OFFCURVE",
"380 393 OFFCURVE",
"321 393 CURVE SMOOTH",
"290 393 LINE",
"325 558 LINE"
);
}
);
width = 623;
}
);
note = P;
unicode = 0050;
},
{
glyphname = Q;
lastChange = "2018-06-23 23:47:21 +0000";
layers = (
{
anchors = (
{
name = bottom;
position = "{310, 0}";
},
{
name = top;
position = "{461, 714}";
}
);
guideLines = (
{
angle = 78;
position = "{634, 0}";
}
);
layerId = "273861F4-9D16-4AA5-A9CF-BC69819DDA51";
paths = (
{
closed = 1;
nodes = (
"364 725 OFFCURVE",
"297 706 OFFCURVE",
"239 668 CURVE SMOOTH",
"122 591 OFFCURVE",
"51 438 OFFCURVE",
"51 265 CURVE SMOOTH",
"51 93 OFFCURVE",
"148 -10 OFFCURVE",
"316 -10 CURVE SMOOTH",
"322 -10 LINE",
"401 -170 LINE",
"615 -170 LINE",
"499 36 LINE",
"626 108 OFFCURVE",
"706 268 OFFCURVE",
"706 450 CURVE SMOOTH",
"706 622 OFFCURVE",
"609 725 OFFCURVE",
"441 725 CURVE SMOOTH"
);
},
{
closed = 1;
nodes = (
"481 565 OFFCURVE",
"513 526 OFFCURVE",
"513 452 CURVE SMOOTH",
"513 397 OFFCURVE",
"505 347 OFFCURVE",
"489 300 CURVE SMOOTH",
"458 207 OFFCURVE",
"399 151 OFFCURVE",
"333 151 CURVE SMOOTH",
"276 151 OFFCURVE",
"244 188 OFFCURVE",
"244 263 CURVE SMOOTH",
"244 317 OFFCURVE",
"252 368 OFFCURVE",
"268 414 CURVE SMOOTH",
"299 507 OFFCURVE",
"358 565 OFFCURVE",
"425 565 CURVE SMOOTH"
);
}
);
width = 737;
}
);
note = Q;
unicode = 0051;
},
{
glyphname = R;
lastChange = "2018-06-23 23:47:21 +0000";
layers = (
{
anchors = (
{
name = bottom;
position = "{267, 0}";
},
{
name = top;
position = "{418, 714}";
}
);
layerId = "273861F4-9D16-4AA5-A9CF-BC69819DDA51";
paths = (
{
closed = 1;
nodes = (
"393 0 LINE",
"601 0 LINE",
"582 47 LINE",
"472 299 LINE",
"563 338 OFFCURVE",
"610 417 OFFCURVE",
"610 518 CURVE SMOOTH",
"610 649 OFFCURVE",
"520 714 OFFCURVE",
"356 714 CURVE SMOOTH",
"167 714 LINE",
"16 0 LINE",
"207 0 LINE",
"262 260 LINE",
"298 260 LINE"
);
},
{
closed = 1;
nodes = (
"353 568 LINE SMOOTH",
"396 568 OFFCURVE",
"419 546 OFFCURVE",
"419 506 CURVE SMOOTH",
"419 442 OFFCURVE",
"380 405 OFFCURVE",
"318 405 CURVE SMOOTH",
"293 405 LINE",
"327 568 LINE"
);
}
);
width = 650;
}
);
note = R;
unicode = 0052;
},
{
glyphname = S;
lastChange = "2018-06-23 23:47:21 +0000";
layers = (
{
anchors = (
{
name = bottom;
position = "{215, 0}";
},
{
name = top;
position = "{367, 714}";
}
);
layerId = "273861F4-9D16-4AA5-A9CF-BC69819DDA51";
paths = (
{
closed = 1;
nodes = (
"477 300 OFFCURVE",
"440 359 OFFCURVE",
"364 416 CURVE SMOOTH",
"333 439 OFFCURVE",
"313 458 OFFCURVE",
"302 472 CURVE",
"291 485 OFFCURVE",
"285 500 OFFCURVE",
"285 516 CURVE SMOOTH",
"285 551 OFFCURVE",
"309 570 OFFCURVE",
"350 570 CURVE SMOOTH",
"389 570 OFFCURVE",
"437 556 OFFCURVE",
"492 527 CURVE",
"558 672 LINE",
"496 707 OFFCURVE",
"426 724 OFFCURVE",
"348 724 CURVE SMOOTH",
"300 724 OFFCURVE",
"256 715 OFFCURVE",
"218 696 CURVE SMOOTH",
"140 659 OFFCURVE",
"95 587 OFFCURVE",
"95 502 CURVE SMOOTH",
"95 426 OFFCURVE",
"128 364 OFFCURVE",
"204 303 CURVE SMOOTH",
"235 277 OFFCURVE",
"254 260 OFFCURVE",
"262 253 CURVE",
"276 237 OFFCURVE",
"284 223 OFFCURVE",
"284 205 CURVE SMOOTH",
"284 168 OFFCURVE",
"259 147 OFFCURVE",
"211 147 CURVE SMOOTH",
"154 147 OFFCURVE",
"76 173 OFFCURVE",
"21 208 CURVE",
"21 37 LINE",
"67 6 OFFCURVE",
"133 -10 OFFCURVE",
"205 -10 CURVE SMOOTH",
"376 -10 OFFCURVE",
"477 75 OFFCURVE",
"477 219 CURVE SMOOTH"
);
}
);
width = 548;
}
);
note = S;
unicode = 0053;
},
{
glyphname = T;
lastChange = "2018-06-23 23:47:21 +0000";
layers = (
{
anchors = (
{
name = bottom;
position = "{217, 0}";
},
{
name = center;
position = "{293, 357}";
},
{
name = top;
position = "{369, 714}";
}
);
layerId = "273861F4-9D16-4AA5-A9CF-BC69819DDA51";
paths = (
{
closed = 1;
nodes = (
"577 556 LINE",
"612 714 LINE",
"110 714 LINE",
"76 556 LINE",
"231 556 LINE",
"115 0 LINE",
"306 0 LINE",
"422 556 LINE"
);
}
);
width = 552;
}
);
note = T;
unicode = 0054;
},
{
glyphname = U;
lastChange = "2018-06-23 23:47:21 +0000";
layers = (
{
anchors = (
{
name = bottom;
position = "{292, 0}";
},
{
name = ogonek;
position = "{572, 5}";
},
{
name = top;
position = "{443, 714}";
},
{
name = topright;
position = "{784, 714}";
}
);
layerId = "273861F4-9D16-4AA5-A9CF-BC69819DDA51";
paths = (
{
closed = 1;
nodes = (
"424 278 LINE SMOOTH",
"406 191 OFFCURVE",
"373 150 OFFCURVE",
"312 150 CURVE SMOOTH",
"272 150 OFFCURVE",
"253 170 OFFCURVE",
"253 212 CURVE SMOOTH",
"253 227 OFFCURVE",
"255 246 OFFCURVE",
"260 268 CURVE SMOOTH",
"355 714 LINE",
"164 714 LINE",
"67 263 LINE SMOOTH",
"63 242 OFFCURVE",
"61 221 OFFCURVE",
"61 200 CURVE SMOOTH",
"61 161 OFFCURVE",
"70 125 OFFCURVE",
"88 92 CURVE SMOOTH",
"125 28 OFFCURVE",
"193 -10 OFFCURVE",
"281 -10 CURVE SMOOTH",
"466 -10 OFFCURVE",
"572 76 OFFCURVE",
"611 259 CURVE SMOOTH",
"708 714 LINE",
"517 714 LINE"
);
}
);
width = 701;
}
);
note = U;
unicode = 0055;
},
{
glyphname = V;
lastChange = "2018-06-23 23:47:21 +0000";
layers = (
{
anchors = (
{
name = bottom;
position = "{250, 0}";
},
{
name = top;
position = "{401, 714}";
}
);
layerId = "273861F4-9D16-4AA5-A9CF-BC69819DDA51";
paths = (
{
closed = 1;
nodes = (
"302 287 OFFCURVE",
"278 214 OFFCURVE",
"269 173 CURVE",
"265 173 LINE",
"271 209 OFFCURVE",
"273 251 OFFCURVE",
"273 298 CURVE SMOOTH",
"273 323 LINE",
"260 714 LINE",
"73 714 LINE",
"124 0 LINE",
"337 0 LINE",
"691 714 LINE",
"489 714 LINE",
"318 321 LINE"
);
}
);
width = 617;
}
);
note = V;
unicode = 0056;
},
{
glyphname = W;
lastChange = "2018-06-23 23:47:21 +0000";
layers = (
{
anchors = (
{
name = bottom;
position = "{409, 0}";
},
{
name = top;
position = "{561, 714}";
}
);
layerId = "273861F4-9D16-4AA5-A9CF-BC69819DDA51";
paths = (
{
closed = 1;
nodes = (
"244 208 OFFCURVE",
"248 269 OFFCURVE",
"250 356 CURVE SMOOTH",
"255 714 LINE",
"74 714 LINE",
"98 0 LINE",
"310 0 LINE",
"434 291 LINE SMOOTH",
"461 361 OFFCURVE",
"480 417 OFFCURVE",
"491 461 CURVE",
"487 406 OFFCURVE",
"485 353 OFFCURVE",
"485 303 CURVE SMOOTH",
"485 0 LINE",
"710 0 LINE",
"1020 714 LINE",
"831 714 LINE",
"683 342 LINE SMOOTH",
"643 238 OFFCURVE",
"622 182 OFFCURVE",
"618 173 CURVE",
"626 225 OFFCURVE",
"631 276 OFFCURVE",
"631 327 CURVE SMOOTH",
"631 714 LINE",
"467 714 LINE",
"303 337 LINE",
"257 224 LINE",
"238 173 LINE"
);
}
);
width = 935;
}
);
note = W;
unicode = 0057;
},
{
glyphname = X;
lastChange = "2018-06-23 23:47:21 +0000";
layers = (
{
anchors = (
{
name = bottom;
position = "{273, 0}";
},
{
name = top;
position = "{424, 714}";
}
);
layerId = "273861F4-9D16-4AA5-A9CF-BC69819DDA51";
paths = (
{
closed = 1;
nodes = (
"738 714 LINE",
"519 714 LINE",
"368 485 LINE",
"308 714 LINE",
"105 714 LINE",
"214 379 LINE",
"-61 0 LINE",
"156 0 LINE",
"321 243 LINE",
"392 0 LINE",
"603 0 LINE",
"475 360 LINE"
);
}
);
width = 663;
}
);
note = X;
unicode = 0058;
},
{
glyphname = Y;
lastChange = "2018-06-23 23:47:21 +0000";
layers = (
{
anchors = (
{
name = bottom;
position = "{244, 0}";
},
{
name = top;
position = "{395, 714}";
},
{
name = topleft;
position = "{103, 714}";
}
);
layerId = "273861F4-9D16-4AA5-A9CF-BC69819DDA51";
paths = (
{
closed = 1;
nodes = (
"80 714 LINE",
"196 277 LINE",
"137 0 LINE",
"328 0 LINE",
"387 277 LINE",
"686 714 LINE",
"473 714 LINE",
"321 449 LINE",
"277 714 LINE"
);
}
);
width = 604;
}
);
note = Y;
unicode = 0059;
},
{
glyphname = Z;
lastChange = "2018-06-23 23:47:21 +0000";
layers = (
{
anchors = (
{
name = bottom;
position = "{211, 0}";
},
{
name = top;
position = "{362, 714}";
}
);
layerId = "273861F4-9D16-4AA5-A9CF-BC69819DDA51";
paths = (
{
closed = 1;
nodes = (
"228 156 LINE",
"570 594 LINE",
"595 714 LINE",
"114 714 LINE",
"81 558 LINE",
"315 558 LINE",
"-22 118 LINE",
"-45 0 LINE",
"460 0 LINE",
"493 156 LINE"
);
}
);
width = 539;
}
);
note = Z;
unicode = 005A;
},
{
glyphname = bracketleft;
lastChange = "2018-06-23 23:47:21 +0000";
layers = (
{
layerId = "273861F4-9D16-4AA5-A9CF-BC69819DDA51";
paths = (
{
closed = 1;
nodes = (
"154 -44 LINE",
"293 610 LINE",
"398 610 LINE",
"425 734 LINE",
"166 734 LINE",
"-26 -168 LINE",
"233 -168 LINE",
"259 -44 LINE"
);
}
);
width = 360;
}
);
note = bracketleft;
unicode = 005B;
},
{
glyphname = backslash;
lastChange = "2018-06-23 23:47:21 +0000";
layers = (
{
layerId = "273861F4-9D16-4AA5-A9CF-BC69819DDA51";
paths = (
{
closed = 1;
nodes = (
"224 -10 LINE",
"380 -10 LINE",
"259 724 LINE",
"108 724 LINE"
);
}
);
width = 467;
}
);
note = backslash;
unicode = 005C;
},
{
glyphname = bracketright;
lastChange = "2018-06-23 23:47:21 +0000";
layers = (
{
layerId = "273861F4-9D16-4AA5-A9CF-BC69819DDA51";
paths = (
{
closed = 1;
nodes = (
"192 -168 LINE",
"384 734 LINE",
"126 734 LINE",
"99 610 LINE",
"204 610 LINE",
"65 -44 LINE",
"-39 -44 LINE",
"-65 -168 LINE"
);
}
);
width = 360;
}
);
note = bracketright;
unicode = 005D;
},
{
glyphname = asciicircum;
lastChange = "2018-06-23 23:47:21 +0000";
layers = (
{
layerId = "273861F4-9D16-4AA5-A9CF-BC69819DDA51";
paths = (
{
closed = 1;
nodes = (
"318 523 LINE",
"394 245 LINE",
"528 245 LINE",
"389 714 LINE",
"305 714 LINE",
"-3 245 LINE",
"142 245 LINE"
);
}
);
width = 535;
}
);
note = asciicircum;
unicode = 005E;
},
{
glyphname = underscore;
lastChange = "2018-06-23 23:47:21 +0000";
layers = (
{
layerId = "273861F4-9D16-4AA5-A9CF-BC69819DDA51";
paths = (
{
closed = 1;
nodes = (
"-62 -65 LINE",
"-90 -185 LINE",
"364 -185 LINE",
"392 -65 LINE"
);
}
);
width = 450;
}
);
note = underscore;
unicode = 005F;
},
{
glyphname = grave;
lastChange = "2018-06-23 23:47:21 +0000";
layers = (
{
layerId = "273861F4-9D16-4AA5-A9CF-BC69819DDA51";
paths = (
{
closed = 1;
nodes = (
"455 666 OFFCURVE",
"439 715 OFFCURVE",
"430 766 CURVE",
"237 766 LINE",
"237 756 LINE",
"258 714 OFFCURVE",
"308 655 OFFCURVE",
"361 606 CURVE",
"476 606 LINE",
"476 618 LINE"
);
}
);
width = 554;
}
);
note = grave;
unicode = 0060;
},
{
glyphname = a;
lastChange = "2018-06-23 23:47:21 +0000";
layers = (
{
anchors = (
{
name = bottom;
position = "{245, 0}";
},
{
name = ogonek;
position = "{488, 5}";
},
{
name = top;
position = "{362, 553}";
}
);
layerId = "273861F4-9D16-4AA5-A9CF-BC69819DDA51";
paths = (
{
closed = 1;
nodes = (
"248 142 OFFCURVE",
"234 166 OFFCURVE",
"234 212 CURVE SMOOTH",
"234 313 OFFCURVE",
"282 411 OFFCURVE",
"331 411 CURVE SMOOTH",
"358 411 OFFCURVE",
"371 383 OFFCURVE",
"371 341 CURVE SMOOTH",
"371 310 OFFCURVE",
"367 279 OFFCURVE",
"358 247 CURVE SMOOTH",
"340 183 OFFCURVE",
"309 142 OFFCURVE",
"276 142 CURVE SMOOTH"
);
},
{
closed = 1;
nodes = (
"445 553 LINE",
"419 485 LINE",
"415 485 LINE",
"382 540 OFFCURVE",
"342 563 OFFCURVE",
"287 563 CURVE SMOOTH",
"243 563 OFFCURVE",
"203 547 OFFCURVE",
"167 517 CURVE SMOOTH",
"94 455 OFFCURVE",
"41 318 OFFCURVE",
"41 201 CURVE SMOOTH",
"41 65 OFFCURVE",
"95 -10 OFFCURVE",
"198 -10 CURVE SMOOTH",
"251 -10 OFFCURVE",
"292 9 OFFCURVE",
"329 60 CURVE",
"333 60 LINE",
"328 0 LINE",
"479 0 LINE",
"596 553 LINE"
);
}
);
width = 607;
}
);
note = a;
unicode = 0061;
},
{
glyphname = b;
lastChange = "2018-06-23 23:47:21 +0000";
layers = (
{
anchors = (
{
name = bottom;
position = "{245, 0}";
},
{
name = top;
position = "{362, 553}";
}
);
layerId = "273861F4-9D16-4AA5-A9CF-BC69819DDA51";
paths = (
{
closed = 1;
nodes = (
"365 -10 OFFCURVE",
"406 6 OFFCURVE",
"442 38 CURVE SMOOTH",
"515 102 OFFCURVE",
"566 236 OFFCURVE",
"566 352 CURVE SMOOTH",
"566 488 OFFCURVE",
"510 563 OFFCURVE",
"409 563 CURVE SMOOTH",
"393 563 OFFCURVE",
"379 561 OFFCURVE",
"367 557 CURVE SMOOTH",
"343 549 OFFCURVE",
"328 539 OFFCURVE",
"297 500 CURVE",
"293 500 LINE",
"310 541 OFFCURVE",
"325 590 OFFCURVE",
"337 647 CURVE SMOOTH",
"361 760 LINE",
"172 760 LINE",
"11 0 LINE",
"161 0 LINE",
"185 61 LINE",
"189 61 LINE",
"230 8 OFFCURVE",
"267 -10 OFFCURVE",
"321 -10 CURVE SMOOTH"
);
},
{
closed = 1;
nodes = (
"359 411 OFFCURVE",
"373 388 OFFCURVE",
"373 341 CURVE SMOOTH",
"373 310 OFFCURVE",
"368 279 OFFCURVE",
"359 247 CURVE SMOOTH",
"340 184 OFFCURVE",
"307 142 OFFCURVE",
"275 142 CURVE SMOOTH",
"249 142 OFFCURVE",
"237 169 OFFCURVE",
"237 212 CURVE SMOOTH",
"237 245 OFFCURVE",
"241 276 OFFCURVE",
"250 308 CURVE SMOOTH",
"267 371 OFFCURVE",
"298 411 OFFCURVE",
"331 411 CURVE SMOOTH"
);
}
);
width = 607;
}
);
note = b;
unicode = 0062;
},
{
glyphname = c;
lastChange = "2018-06-23 23:47:21 +0000";
layers = (
{
anchors = (
{
name = bottom;
position = "{258, 0}";
},
{
name = top;
position = "{335, 553}";
}
);
layerId = "273861F4-9D16-4AA5-A9CF-BC69819DDA51";
paths = (
{
closed = 1;
nodes = (
"324 -10 OFFCURVE",
"378 5 OFFCURVE",
"430 34 CURVE",
"430 184 LINE",
"381 158 OFFCURVE",
"339 142 OFFCURVE",
"292 142 CURVE SMOOTH",
"250 142 OFFCURVE",
"231 169 OFFCURVE",
"231 228 CURVE SMOOTH",
"231 258 OFFCURVE",
"236 289 OFFCURVE",
"248 320 CURVE SMOOTH",
"270 382 OFFCURVE",
"306 413 OFFCURVE",
"346 413 CURVE SMOOTH",
"376 413 OFFCURVE",
"413 403 OFFCURVE",
"456 384 CURVE",
"516 524 LINE",
"460 550 OFFCURVE",
"400 563 OFFCURVE",
"337 563 CURVE SMOOTH",
"280 563 OFFCURVE",
"229 548 OFFCURVE",
"184 519 CURVE SMOOTH",
"93 459 OFFCURVE",
"41 347 OFFCURVE",
"41 216 CURVE SMOOTH",
"41 72 OFFCURVE",
"118 -10 OFFCURVE",
"247 -10 CURVE SMOOTH"
);
}
);
width = 504;
}
);
note = c;
unicode = 0063;
},
{
glyphname = d;
lastChange = "2018-06-23 23:47:21 +0000";
layers = (
{
anchors = (
{
name = bottom;
position = "{244, 0}";
},
{
name = center;
position = "{302, 277}";
},
{
name = top;
position = "{361, 553}";
},
{
name = topright;
position = "{653, 553}";
}
);
layerId = "273861F4-9D16-4AA5-A9CF-BC69819DDA51";
paths = (
{
closed = 1;
nodes = (
"242 563 OFFCURVE",
"202 547 OFFCURVE",
"166 516 CURVE SMOOTH",
"93 453 OFFCURVE",
"41 317 OFFCURVE",
"41 201 CURVE SMOOTH",
"41 65 OFFCURVE",
"95 -10 OFFCURVE",
"198 -10 CURVE SMOOTH",
"253 -10 OFFCURVE",
"292 9 OFFCURVE",
"329 60 CURVE",
"333 60 LINE",
"328 0 LINE",
"479 0 LINE",
"640 760 LINE",
"449 760 LINE",
"419 613 LINE SMOOTH",
"413 587 OFFCURVE",
"409 552 OFFCURVE",
"407 507 CURVE SMOOTH",
"406 489 LINE",
"402 489 LINE",
"363 548 OFFCURVE",
"335 563 OFFCURVE",
"286 563 CURVE SMOOTH"
);
},
{
closed = 1;
nodes = (
"248 142 OFFCURVE",
"234 166 OFFCURVE",
"234 212 CURVE SMOOTH",
"234 244 OFFCURVE",
"239 275 OFFCURVE",
"248 307 CURVE SMOOTH",
"267 369 OFFCURVE",
"300 411 OFFCURVE",
"332 411 CURVE SMOOTH",
"358 411 OFFCURVE",
"371 388 OFFCURVE",
"371 341 CURVE SMOOTH",
"371 310 OFFCURVE",
"367 279 OFFCURVE",
"358 247 CURVE SMOOTH",
"340 183 OFFCURVE",
"309 142 OFFCURVE",
"276 142 CURVE SMOOTH"
);
}
);
width = 604;
}
);
note = d;
unicode = 0064;
},
{
glyphname = e;
lastChange = "2018-06-23 23:47:21 +0000";
layers = (
{
anchors = (
{
name = bottom;
position = "{231, 0}";
},
{
name = ogonek;
position = "{462, 5}";
},
{
name = top;
position = "{348, 553}";
}
);
layerId = "273861F4-9D16-4AA5-A9CF-BC69819DDA51";
paths = (
{
closed = 1;
nodes = (
"342 -10 OFFCURVE",
"398 3 OFFCURVE",
"471 40 CURVE",
"471 174 LINE",
"408 141 OFFCURVE",
"362 126 OFFCURVE",
"311 126 CURVE SMOOTH",
"258 126 OFFCURVE",
"231 150 OFFCURVE",
"231 198 CURVE SMOOTH",
"231 206 LINE",
"260 206 LINE SMOOTH",
"453 206 OFFCURVE",
"557 278 OFFCURVE",
"557 409 CURVE SMOOTH",
"557 502 OFFCURVE",
"481 563 OFFCURVE",
"358 563 CURVE SMOOTH",
"296 563 OFFCURVE",
"241 549 OFFCURVE",
"194 521 CURVE SMOOTH",
"99 463 OFFCURVE",
"41 346 OFFCURVE",
"41 209 CURVE SMOOTH",
"41 72 OFFCURVE",
"122 -10 OFFCURVE",
"260 -10 CURVE SMOOTH"
);
},
{
closed = 1;
nodes = (
"366 435 OFFCURVE",
"378 419 OFFCURVE",
"378 398 CURVE SMOOTH",
"378 354 OFFCURVE",
"335 324 OFFCURVE",
"264 324 CURVE SMOOTH",
"250 324 LINE",
"257 381 OFFCURVE",
"297 435 OFFCURVE",
"337 435 CURVE SMOOTH"
);
}
);
width = 579;
}
);
note = e;
unicode = 0065;
},
{
glyphname = f;
lastChange = "2018-06-23 23:47:21 +0000";
layers = (
{
anchors = (
{
name = bottom;
position = "{146, 0}";
},
{
name = top;
position = "{264, 553}";
}
);
guideLines = (
{
angle = 78;
position = "{274, 0}";
}
);
layerId = "273861F4-9D16-4AA5-A9CF-BC69819DDA51";
paths = (
{
closed = 1;
nodes = (
"118 -240 OFFCURVE",
"189 -182 OFFCURVE",
"217 -57 CURVE SMOOTH",
"317 411 LINE",
"419 411 LINE",
"451 553 LINE",
"348 553 LINE",
"356 588 LINE SMOOTH",
"361 611 OFFCURVE",
"378 623 OFFCURVE",
"401 623 CURVE SMOOTH",
"422 623 OFFCURVE",
"443 618 OFFCURVE",
"464 608 CURVE",
"512 737 LINE",
"478 754 OFFCURVE",
"426 765 OFFCURVE",
"374 765 CURVE SMOOTH",
"262 765 OFFCURVE",
"196 712 OFFCURVE",
"168 587 CURVE SMOOTH",
"160 551 LINE",
"68 504 LINE",
"47 411 LINE",
"128 411 LINE",
"35 -27 LINE SMOOTH",
"26 -69 OFFCURVE",
"3 -88 OFFCURVE",
"-45 -88 CURVE SMOOTH",
"-63 -88 OFFCURVE",
"-82 -85 OFFCURVE",
"-102 -79 CURVE",
"-102 -227 LINE",
"-70 -236 OFFCURVE",
"-37 -240 OFFCURVE",
"-1 -240 CURVE SMOOTH"
);
}
);
width = 410;
}
);
note = f;
unicode = 0066;
},
{
glyphname = g;
lastChange = "2018-06-23 23:47:21 +0000";
layers = (
{
anchors = (
{
name = bottom;
position = "{221, 0}";
},
{
name = top;
position = "{338, 553}";
}
);
guideLines = (
{
angle = 78;
position = "{478, 119}";
}
);
layerId = "273861F4-9D16-4AA5-A9CF-BC69819DDA51";
paths = (
{
closed = 1;
nodes = (
"387 559 OFFCURVE",
"345 563 OFFCURVE",
"312 563 CURVE SMOOTH",
"161 563 OFFCURVE",
"66 482 OFFCURVE",
"66 355 CURVE SMOOTH",
"66 297 OFFCURVE",
"87 251 OFFCURVE",
"130 218 CURVE",
"64 188 OFFCURVE",
"31 153 OFFCURVE",
"31 107 CURVE SMOOTH",
"31 80 OFFCURVE",
"48 54 OFFCURVE",
"72 39 CURVE",
"-22 8 OFFCURVE",
"-65 -37 OFFCURVE",
"-65 -101 CURVE SMOOTH",
"-65 -188 OFFCURVE",
"23 -240 OFFCURVE",
"161 -240 CURVE SMOOTH",
"363 -240 OFFCURVE",
"477 -161 OFFCURVE",
"477 -21 CURVE SMOOTH",
"477 59 OFFCURVE",
"431 100 OFFCURVE",
"318 116 CURVE SMOOTH",
"251 125 LINE SMOOTH",
"215 130 OFFCURVE",
"197 140 OFFCURVE",
"197 154 CURVE SMOOTH",
"197 166 OFFCURVE",
"207 172 OFFCURVE",
"220 179 CURVE",
"236 175 OFFCURVE",
"256 173 OFFCURVE",
"281 173 CURVE SMOOTH",
"417 173 OFFCURVE",
"510 256 OFFCURVE",
"510 381 CURVE SMOOTH",
"510 398 OFFCURVE",
"508 414 OFFCURVE",
"505 427 CURVE",
"583 452 LINE",
"603 553 LINE",
"408 553 LINE"
);
},
{
closed = 1;
nodes = (
"96 -43 OFFCURVE",
"125 -23 OFFCURVE",
"176 -16 CURVE",
"232 -22 LINE SMOOTH",
"259 -25 OFFCURVE",
"277 -29 OFFCURVE",
"288 -35 CURVE SMOOTH",
"299 -42 OFFCURVE",
"304 -50 OFFCURVE",
"304 -62 CURVE SMOOTH",
"304 -79 OFFCURVE",
"293 -93 OFFCURVE",
"272 -102 CURVE SMOOTH",
"251 -111 OFFCURVE",
"220 -116 OFFCURVE",
"179 -116 CURVE SMOOTH",
"124 -116 OFFCURVE",
"96 -102 OFFCURVE",
"96 -74 CURVE SMOOTH"
);
},
{
closed = 1;
nodes = (
"244 355 OFFCURVE",
"247 373 OFFCURVE",
"252 390 CURVE SMOOTH",
"262 425 OFFCURVE",
"280 449 OFFCURVE",
"305 449 CURVE SMOOTH",
"325 449 OFFCURVE",
"335 434 OFFCURVE",
"335 403 CURVE SMOOTH",
"335 344 OFFCURVE",
"311 292 OFFCURVE",
"277 292 CURVE SMOOTH",
"255 292 OFFCURVE",
"244 307 OFFCURVE",
"244 338 CURVE SMOOTH"
);
}
);
width = 559;
}
);
note = g;
unicode = 0067;
},
{
glyphname = h;
lastChange = "2018-06-23 23:47:21 +0000";
layers = (
{
anchors = (
{
name = bottom;
position = "{252, 0}";
},
{
name = center;
position = "{311, 277}";
},
{
name = top;
position = "{370, 553}";
}
);
layerId = "273861F4-9D16-4AA5-A9CF-BC69819DDA51";
paths = (
{
closed = 1;
nodes = (
"563 294 LINE SMOOTH",
"571 334 OFFCURVE",
"575 371 OFFCURVE",
"575 406 CURVE SMOOTH",
"575 504 OFFCURVE",
"521 563 OFFCURVE",
"429 563 CURVE SMOOTH",
"373 563 OFFCURVE",
"329 542 OFFCURVE",
"296 500 CURVE",
"292 500 LINE",
"309 541 OFFCURVE",
"324 587 OFFCURVE",
"335 638 CURVE SMOOTH",
"361 760 LINE",
"172 760 LINE",
"11 0 LINE",
"200 0 LINE",
"257 270 LINE SMOOTH",
"276 365 OFFCURVE",
"307 413 OFFCURVE",
"347 413 CURVE SMOOTH",
"367 413 OFFCURVE",
"384 399 OFFCURVE",
"384 371 CURVE SMOOTH",
"384 350 OFFCURVE",
"381 327 OFFCURVE",
"375 302 CURVE SMOOTH",
"312 0 LINE",
"501 0 LINE"
);
}
);
width = 622;
}
);
note = h;
unicode = 0068;
},
{
glyphname = i;
lastChange = "2018-06-23 23:47:21 +0000";
layers = (
{
anchors = (
{
name = bottom;
position = "{104, 0}";
}
);
guideLines = (
{
angle = 78;
position = "{352, 657}";
}
);
layerId = "273861F4-9D16-4AA5-A9CF-BC69819DDA51";
paths = (
{
closed = 1;
nodes = (
"128 553 LINE",
"11 0 LINE",
"200 0 LINE",
"318 553 LINE"
);
},
{
closed = 1;
nodes = (
"151 629 OFFCURVE",
"182 606 OFFCURVE",
"244 606 CURVE SMOOTH",
"315 606 OFFCURVE",
"354 643 OFFCURVE",
"354 708 CURVE SMOOTH",
"354 752 OFFCURVE",
"320 777 OFFCURVE",
"261 777 CURVE SMOOTH",
"191 777 OFFCURVE",
"151 742 OFFCURVE",
"151 675 CURVE SMOOTH"
);
}
);
width = 325;
}
);
note = i;
unicode = 0069;
},
{
glyphname = j;
lastChange = "2018-06-23 23:47:21 +0000";
layers = (
{
guideLines = (
{
angle = 78;
position = "{212, 0}";
}
);
layerId = "273861F4-9D16-4AA5-A9CF-BC69819DDA51";
paths = (
{
closed = 1;
nodes = (
"89 -240 OFFCURVE",
"168 -171 OFFCURVE",
"194 -46 CURVE SMOOTH",
"321 553 LINE",
"132 553 LINE",
"11 -16 LINE SMOOTH",
"0 -64 OFFCURVE",
"-28 -88 OFFCURVE",
"-74 -88 CURVE SMOOTH",
"-92 -88 OFFCURVE",
"-111 -85 OFFCURVE",
"-129 -79 CURVE",
"-129 -227 LINE",
"-97 -236 OFFCURVE",
"-63 -240 OFFCURVE",
"-28 -240 CURVE SMOOTH"
);
},
{
closed = 1;
nodes = (
"155 629 OFFCURVE",
"186 606 OFFCURVE",
"248 606 CURVE SMOOTH",
"323 606 OFFCURVE",
"358 647 OFFCURVE",
"358 708 CURVE SMOOTH",
"358 752 OFFCURVE",
"324 777 OFFCURVE",
"265 777 CURVE SMOOTH",
"195 777 OFFCURVE",
"155 742 OFFCURVE",
"155 675 CURVE SMOOTH"
);
}
);
width = 325;
}
);
note = j;
unicode = 006A;
},
{
glyphname = k;
lastChange = "2018-06-23 23:47:21 +0000";
layers = (
{
anchors = (
{
name = bottom;
position = "{250, 0}";
},
{
name = top;
position = "{475, 553}";
}
);
layerId = "273861F4-9D16-4AA5-A9CF-BC69819DDA51";
paths = (
{
closed = 1;
nodes = (
"200 0 LINE",
"234 165 LINE",
"283 191 LINE",
"351 0 LINE",
"565 0 LINE",
"431 303 LINE",
"671 553 LINE",
"455 553 LINE",
"337 425 LINE SMOOTH",
"314 401 OFFCURVE",
"290 369 OFFCURVE",
"262 327 CURVE",
"258 327 LINE",
"274 375 OFFCURVE",
"286 411 OFFCURVE",
"291 436 CURVE SMOOTH",
"359 760 LINE",
"170 760 LINE",
"11 0 LINE"
);
}
);
width = 617;
}
);
note = k;
unicode = 006B;
},
{
glyphname = l;
lastChange = "2018-06-23 23:47:21 +0000";
layers = (
{
anchors = (
{
name = bottom;
position = "{104, 0}";
},
{
name = center;
position = "{163, 277}";
},
{
name = top;
position = "{453, 553}";
},
{
name = topright;
position = "{374, 553}";
}
);
guideLines = (
{
angle = 78;
position = "{212, 0}";
}
);
layerId = "273861F4-9D16-4AA5-A9CF-BC69819DDA51";
paths = (
{
closed = 1;
nodes = (
"172 760 LINE",
"11 0 LINE",
"200 0 LINE",
"361 760 LINE"
);
}
);
width = 325;
}
);
note = l;
unicode = 006C;
},
{
glyphname = m;
lastChange = "2018-06-23 23:47:21 +0000";
layers = (
{
anchors = (
{
name = bottom;
position = "{404, 0}";
},
{
name = top;
position = "{588, 553}";
}
);
guideLines = (
{
angle = 258;
position = "{1180, 1016}";
}
);
layerId = "273861F4-9D16-4AA5-A9CF-BC69819DDA51";
paths = (
{
closed = 1;
nodes = (
"558 265 LINE SMOOTH",
"578 363 OFFCURVE",
"605 413 OFFCURVE",
"654 413 CURVE SMOOTH",
"675 413 OFFCURVE",
"688 399 OFFCURVE",
"688 373 CURVE SMOOTH",
"688 348 OFFCURVE",
"686 326 OFFCURVE",
"681 308 CURVE",
"618 0 LINE",
"807 0 LINE",
"868 300 LINE SMOOTH",
"875 335 OFFCURVE",
"879 368 OFFCURVE",
"879 400 CURVE SMOOTH",
"879 507 OFFCURVE",
"831 563 OFFCURVE",
"739 563 CURVE SMOOTH",
"667 563 OFFCURVE",
"613 531 OFFCURVE",
"571 462 CURVE",
"567 462 LINE",
"550 527 OFFCURVE",
"511 563 OFFCURVE",
"435 563 CURVE SMOOTH",
"360 563 OFFCURVE",
"314 536 OFFCURVE",
"275 462 CURVE",
"271 462 LINE",
"279 553 LINE",
"128 553 LINE",
"11 0 LINE",
"200 0 LINE",
"258 269 LINE SMOOTH",
"279 364 OFFCURVE",
"307 413 OFFCURVE",
"351 413 CURVE SMOOTH",
"375 413 OFFCURVE",
"386 398 OFFCURVE",
"386 367 CURVE SMOOTH",
"386 357 OFFCURVE",
"384 337 OFFCURVE",
"379 308 CURVE",
"315 0 LINE",
"504 0 LINE"
);
}
);
width = 926;
}
);
note = m;
unicode = 006D;
},
{
glyphname = n;
lastChange = "2018-06-23 23:47:21 +0000";
layers = (
{
anchors = (
{
name = bottom;
position = "{252, 0}";
},
{
name = top;
position = "{429, 553}";
}
);
layerId = "273861F4-9D16-4AA5-A9CF-BC69819DDA51";
paths = (
{
closed = 1;
nodes = (
"384 350 OFFCURVE",
"381 327 OFFCURVE",
"375 302 CURVE SMOOTH",
"312 0 LINE",
"501 0 LINE",
"563 294 LINE SMOOTH",
"571 334 OFFCURVE",
"575 371 OFFCURVE",
"575 406 CURVE SMOOTH",
"575 504 OFFCURVE",
"521 563 OFFCURVE",
"429 563 CURVE SMOOTH",
"359 563 OFFCURVE",
"313 538 OFFCURVE",
"277 476 CURVE",
"273 476 LINE",
"279 553 LINE",
"128 553 LINE",
"11 0 LINE",
"200 0 LINE",
"257 270 LINE SMOOTH",
"267 319 OFFCURVE",
"280 355 OFFCURVE",
"296 378 CURVE SMOOTH",
"312 401 OFFCURVE",
"329 413 OFFCURVE",
"347 413 CURVE SMOOTH",
"367 413 OFFCURVE",
"384 399 OFFCURVE",
"384 371 CURVE SMOOTH"
);
}
);
width = 622;
}
);
note = n;
unicode = 006E;
},
{
glyphname = o;
lastChange = "2018-06-23 23:47:21 +0000";
layers = (
{
anchors = (
{
name = bottom;
position = "{245, 0}";
},
{
name = center;
position = "{304, 277}";
},
{
name = ogonek;
position = "{488, 5}";
},
{
name = top;
position = "{362, 553}";
},
{
name = topright;
position = "{656, 553}";
}
);
layerId = "273861F4-9D16-4AA5-A9CF-BC69819DDA51";
paths = (
{
closed = 1;
nodes = (
"316 -10 OFFCURVE",
"371 5 OFFCURVE",
"418 36 CURVE SMOOTH",
"512 97 OFFCURVE",
"566 213 OFFCURVE",
"566 350 CURVE SMOOTH",
"566 487 OFFCURVE",
"489 563 OFFCURVE",
"353 563 CURVE SMOOTH",
"291 563 OFFCURVE",
"236 548 OFFCURVE",
"189 517 CURVE SMOOTH",
"95 456 OFFCURVE",
"41 340 OFFCURVE",
"41 203 CURVE SMOOTH",
"41 66 OFFCURVE",
"118 -10 OFFCURVE",
"254 -10 CURVE SMOOTH"
);
},
{
closed = 1;
nodes = (
"357 421 OFFCURVE",
"373 399 OFFCURVE",
"373 356 CURVE SMOOTH",
"373 238 OFFCURVE",
"328 132 OFFCURVE",
"275 132 CURVE SMOOTH",
"248 132 OFFCURVE",
"234 153 OFFCURVE",
"234 197 CURVE SMOOTH",
"234 314 OFFCURVE",
"278 421 OFFCURVE",
"331 421 CURVE SMOOTH"
);
}
);
width = 607;
}
);
note = o;
unicode = 006F;
},
{
glyphname = p;
lastChange = "2018-06-23 23:47:21 +0000";
layers = (
{
anchors = (
{
name = bottom;
position = "{245, 0}";
},
{
name = top;
position = "{362, 553}";
}
);
layerId = "273861F4-9D16-4AA5-A9CF-BC69819DDA51";
paths = (
{
closed = 1;
nodes = (
"362 -10 OFFCURVE",
"404 6 OFFCURVE",
"441 38 CURVE SMOOTH",
"517 100 OFFCURVE",
"566 227 OFFCURVE",
"566 359 CURVE SMOOTH",
"566 486 OFFCURVE",
"504 563 OFFCURVE",
"403 563 CURVE SMOOTH",
"350 563 OFFCURVE",
"308 539 OFFCURVE",
"277 491 CURVE",
"273 491 LINE",
"279 553 LINE",
"128 553 LINE",
"-40 -240 LINE",
"149 -240 LINE",
"174 -120 LINE SMOOTH",
"188 -53 OFFCURVE",
"197 7 OFFCURVE",
"201 61 CURVE",
"205 61 LINE",
"234 14 OFFCURVE",
"271 -10 OFFCURVE",
"318 -10 CURVE SMOOTH"
);
},
{
closed = 1;
nodes = (
"359 411 OFFCURVE",
"373 388 OFFCURVE",
"373 341 CURVE SMOOTH",
"373 308 OFFCURVE",
"369 276 OFFCURVE",
"360 245 CURVE SMOOTH",
"342 182 OFFCURVE",
"311 142 OFFCURVE",
"280 142 CURVE SMOOTH",
"252 142 OFFCURVE",
"237 169 OFFCURVE",
"237 212 CURVE SMOOTH",
"237 245 OFFCURVE",
"241 276 OFFCURVE",
"250 308 CURVE SMOOTH",
"267 371 OFFCURVE",
"298 411 OFFCURVE",
"331 411 CURVE SMOOTH"
);
}
);
width = 607;
}
);
note = p;
unicode = 0070;
},
{
glyphname = q;
lastChange = "2018-06-23 23:47:21 +0000";
layers = (
{
anchors = (
{
name = bottom;
position = "{245, 0}";
},
{
name = top;
position = "{407, 553}";
}
);
layerId = "273861F4-9D16-4AA5-A9CF-BC69819DDA51";
paths = (
{
closed = 1;
nodes = (
"242 563 OFFCURVE",
"202 547 OFFCURVE",
"166 516 CURVE SMOOTH",
"93 453 OFFCURVE",
"41 317 OFFCURVE",
"41 199 CURVE SMOOTH",
"41 156 OFFCURVE",
"47 119 OFFCURVE",
"60 87 CURVE SMOOTH",
"84 24 OFFCURVE",
"131 -10 OFFCURVE",
"189 -10 CURVE SMOOTH",
"238 -10 OFFCURVE",
"274 6 OFFCURVE",
"310 54 CURVE",
"314 54 LINE",
"293 -9 OFFCURVE",
"278 -60 OFFCURVE",
"270 -97 CURVE SMOOTH",
"237 -240 LINE",
"428 -240 LINE",
"596 553 LINE",
"445 553 LINE",
"419 485 LINE",
"415 485 LINE",
"375 546 OFFCURVE",
"344 563 OFFCURVE",
"286 563 CURVE SMOOTH"
);
},
{
closed = 1;
nodes = (
"248 142 OFFCURVE",
"234 166 OFFCURVE",
"234 212 CURVE SMOOTH",
"234 244 OFFCURVE",
"239 275 OFFCURVE",
"248 307 CURVE SMOOTH",
"267 369 OFFCURVE",
"300 411 OFFCURVE",
"332 411 CURVE SMOOTH",
"358 411 OFFCURVE",
"371 388 OFFCURVE",
"371 341 CURVE SMOOTH",
"371 310 OFFCURVE",
"367 279 OFFCURVE",
"358 247 CURVE SMOOTH",
"340 183 OFFCURVE",
"309 142 OFFCURVE",
"276 142 CURVE SMOOTH"
);
}
);
width = 607;
}
);
note = q;
unicode = 0071;
},
{
glyphname = r;
lastChange = "2018-06-23 23:47:21 +0000";
layers = (
{
anchors = (
{
name = bottom;
position = "{160, 0}";
},
{
name = top;
position = "{277, 553}";
}
);
layerId = "273861F4-9D16-4AA5-A9CF-BC69819DDA51";
paths = (
{
closed = 1;
nodes = (
"360 563 OFFCURVE",
"316 534 OFFCURVE",
"274 461 CURVE",
"270 461 LINE",
"279 553 LINE",
"128 553 LINE",
"11 0 LINE",
"200 0 LINE",
"252 243 LINE SMOOTH",
"273 337 OFFCURVE",
"311 383 OFFCURVE",
"378 383 CURVE SMOOTH",
"400 383 OFFCURVE",
"420 379 OFFCURVE",
"438 372 CURVE",
"479 559 LINE",
"471 562 OFFCURVE",
"458 563 OFFCURVE",
"440 563 CURVE SMOOTH"
);
}
);
width = 437;
}
);
note = r;
unicode = 0072;
},
{
glyphname = s;
lastChange = "2018-06-23 23:47:21 +0000";
layers = (
{
anchors = (
{
name = bottom;
position = "{192, 0}";
},
{
name = top;
position = "{310, 553}";
}
);
layerId = "273861F4-9D16-4AA5-A9CF-BC69819DDA51";
paths = (
{
closed = 1;
nodes = (
"435 260 OFFCURVE",
"398 312 OFFCURVE",
"325 348 CURVE SMOOTH",
"302 359 OFFCURVE",
"286 369 OFFCURVE",
"275 376 CURVE SMOOTH",
"265 383 OFFCURVE",
"260 392 OFFCURVE",
"260 401 CURVE SMOOTH",
"260 423 OFFCURVE",
"272 434 OFFCURVE",
"297 434 CURVE SMOOTH",
"330 434 OFFCURVE",
"380 416 OFFCURVE",
"423 388 CURVE",
"482 511 LINE",
"425 546 OFFCURVE",
"368 563 OFFCURVE",
"295 563 CURVE SMOOTH",
"150 563 OFFCURVE",
"68 500 OFFCURVE",
"68 388 CURVE SMOOTH",
"68 318 OFFCURVE",
"98 271 OFFCURVE",
"167 234 CURVE SMOOTH",
"201 215 OFFCURVE",
"222 201 OFFCURVE",
"230 193 CURVE SMOOTH",
"239 185 OFFCURVE",
"243 174 OFFCURVE",
"243 163 CURVE SMOOTH",
"243 142 OFFCURVE",
"221 129 OFFCURVE",
"177 129 CURVE SMOOTH",
"124 129 OFFCURVE",
"75 140 OFFCURVE",
"15 173 CURVE",
"15 21 LINE",
"59 0 OFFCURVE",
"117 -10 OFFCURVE",
"189 -10 CURVE SMOOTH",
"348 -10 OFFCURVE",
"435 63 OFFCURVE",
"435 192 CURVE SMOOTH"
);
}
);
width = 502;
}
);
note = s;
unicode = 0073;
},
{
glyphname = t;
lastChange = "2018-06-23 23:47:21 +0000";
layers = (
{
anchors = (
{
name = bottom;
position = "{206, 0}";
},
{
name = center;
position = "{229, 277}";
},
{
name = top;
position = "{457, 553}";
},
{
name = topright;
position = "{506, 553}";
}
);
layerId = "273861F4-9D16-4AA5-A9CF-BC69819DDA51";
paths = (
{
closed = 1;
nodes = (
"256 142 OFFCURVE",
"246 152 OFFCURVE",
"246 173 CURVE SMOOTH",
"246 182 OFFCURVE",
"249 199 OFFCURVE",
"254 224 CURVE SMOOTH",
"295 411 LINE",
"436 411 LINE",
"467 553 LINE",
"326 553 LINE",
"350 664 LINE",
"224 664 LINE",
"157 547 LINE",
"51 504 LINE",
"31 411 LINE",
"106 411 LINE",
"65 215 LINE SMOOTH",
"57 178 OFFCURVE",
"53 148 OFFCURVE",
"53 123 CURVE SMOOTH",
"53 29 OFFCURVE",
"104 -10 OFFCURVE",
"200 -10 CURVE SMOOTH",
"267 -10 OFFCURVE",
"322 1 OFFCURVE",
"366 23 CURVE",
"366 165 LINE",
"328 150 OFFCURVE",
"298 142 OFFCURVE",
"277 142 CURVE SMOOTH"
);
}
);
width = 457;
}
);
leftMetricsKey = t;
note = t;
unicode = 0074;
},
{
glyphname = u;
lastChange = "2018-06-23 23:47:21 +0000";
layers = (
{
anchors = (
{
name = bottom;
position = "{252, 0}";
},
{
name = ogonek;
position = "{501, 5}";
},
{
name = top;
position = "{370, 553}";
},
{
name = topright;
position = "{671, 553}";
}
);
layerId = "273861F4-9D16-4AA5-A9CF-BC69819DDA51";
paths = (
{
closed = 1;
nodes = (
"238 202 OFFCURVE",
"241 225 OFFCURVE",
"247 252 CURVE SMOOTH",
"310 553 LINE",
"121 553 LINE",
"59 259 LINE SMOOTH",
"51 219 OFFCURVE",
"47 182 OFFCURVE",
"47 147 CURVE SMOOTH",
"47 49 OFFCURVE",
"101 -10 OFFCURVE",
"193 -10 CURVE SMOOTH",
"264 -10 OFFCURVE",
"310 17 OFFCURVE",
"345 77 CURVE",
"349 77 LINE",
"343 0 LINE",
"494 0 LINE",
"611 553 LINE",
"422 553 LINE",
"365 284 LINE SMOOTH",
"346 196 OFFCURVE",
"313 141 OFFCURVE",
"275 141 CURVE SMOOTH",
"255 141 OFFCURVE",
"238 154 OFFCURVE",
"238 183 CURVE SMOOTH"
);
}
);
width = 622;
}
);
note = u;
unicode = 0075;
},
{
glyphname = v;
lastChange = "2018-06-23 23:47:21 +0000";
layers = (
{
anchors = (
{
name = bottom;
position = "{213, 0}";
},
{
name = top;
position = "{331, 553}";
}
);
layerId = "273861F4-9D16-4AA5-A9CF-BC69819DDA51";
paths = (
{
closed = 1;
nodes = (
"602 553 LINE",
"400 553 LINE",
"320 382 OFFCURVE",
"277 289 OFFCURVE",
"271 276 CURVE SMOOTH",
"258 249 OFFCURVE",
"245 210 OFFCURVE",
"244 201 CURVE",
"240 201 LINE",
"243 216 OFFCURVE",
"244 235 OFFCURVE",
"244 259 CURVE",
"231 553 LINE",
"43 553 LINE",
"114 0 LINE",
"303 0 LINE"
);
}
);
width = 544;
}
);
note = v;
unicode = 0076;
},
{
glyphname = w;
lastChange = "2018-06-23 23:47:21 +0000";
layers = (
{
anchors = (
{
name = bottom;
position = "{353, 0}";
},
{
name = top;
position = "{470, 553}";
}
);
layerId = "273861F4-9D16-4AA5-A9CF-BC69819DDA51";
paths = (
{
closed = 1;
nodes = (
"879 553 LINE",
"691 553 LINE",
"625 400 OFFCURVE",
"586 306 OFFCURVE",
"573 269 CURVE SMOOTH",
"560 231 OFFCURVE",
"552 208 OFFCURVE",
"550 200 CURVE",
"547 192 OFFCURVE",
"544 184 OFFCURVE",
"542 177 CURVE",
"538 177 LINE",
"546 231 OFFCURVE",
"551 279 OFFCURVE",
"554 321 CURVE SMOOTH",
"564 553 LINE",
"355 553 LINE",
"271 321 LINE SMOOTH",
"257 282 OFFCURVE",
"243 234 OFFCURVE",
"228 177 CURVE",
"224 177 LINE",
"227 202 OFFCURVE",
"228 244 OFFCURVE",
"228 303 CURVE SMOOTH",
"228 553 LINE",
"50 553 LINE",
"82 0 LINE",
"281 0 LINE",
"373 238 LINE SMOOTH",
"393 289 OFFCURVE",
"413 353 OFFCURVE",
"432 428 CURVE",
"436 428 LINE",
"428 374 OFFCURVE",
"421 267 OFFCURVE",
"420 219 CURVE SMOOTH",
"410 0 LINE",
"616 0 LINE"
);
}
);
width = 823;
}
);
note = w;
unicode = 0077;
},
{
glyphname = x;
lastChange = "2018-06-23 23:47:21 +0000";
layers = (
{
anchors = (
{
name = bottom;
position = "{225, 0}";
},
{
name = top;
position = "{342, 553}";
}
);
layerId = "273861F4-9D16-4AA5-A9CF-BC69819DDA51";
paths = (
{
closed = 1;
nodes = (
"514 0 LINE",
"403 272 LINE",
"630 553 LINE",
"406 553 LINE",
"315 400 LINE",
"278 553 LINE",
"72 553 LINE",
"173 282 LINE",
"-58 0 LINE",
"163 0 LINE",
"266 160 LINE",
"305 0 LINE"
);
}
);
width = 566;
}
);
note = x;
unicode = 0078;
},
{
glyphname = y;
lastChange = "2018-06-23 23:47:21 +0000";
layers = (
{
anchors = (
{
name = bottom;
position = "{213, 0}";
},
{
name = top;
position = "{331, 553}";
}
);
guideLines = (
{
angle = 78;
position = "{437, 0}";
}
);
layerId = "273861F4-9D16-4AA5-A9CF-BC69819DDA51";
paths = (
{
closed = 1;
nodes = (
"108 -14 LINE SMOOTH",
"80 -65 OFFCURVE",
"47 -88 OFFCURVE",
"-10 -88 CURVE SMOOTH",
"-30 -88 OFFCURVE",
"-48 -86 OFFCURVE",
"-63 -82 CURVE",
"-63 -232 LINE",
"-43 -237 OFFCURVE",
"-18 -240 OFFCURVE",
"12 -240 CURVE SMOOTH",
"132 -240 OFFCURVE",
"210 -190 OFFCURVE",
"273 -70 CURVE SMOOTH",
"600 553 LINE",
"397 553 LINE",
"323 387 OFFCURVE",
"285 298 OFFCURVE",
"280 287 CURVE SMOOTH",
"276 276 OFFCURVE",
"268 249 OFFCURVE",
"256 206 CURVE",
"252 206 LINE",
"252 249 LINE",
"251 279 LINE",
"230 553 LINE",
"40 553 LINE",
"119 6 LINE"
);
}
);
width = 544;
}
);
note = y;
unicode = 0079;
},
{
glyphname = z;
lastChange = "2018-06-23 23:47:21 +0000";
layers = (
{
anchors = (
{
name = bottom;
position = "{184, 0}";
},
{
name = top;
position = "{301, 553}";
}
);
layerId = "273861F4-9D16-4AA5-A9CF-BC69819DDA51";
paths = (
{
closed = 1;
nodes = (
"237 146 LINE",
"479 435 LINE",
"505 553 LINE",
"109 553 LINE",
"76 407 LINE",
"246 407 LINE",
"1 108 LINE",
"-20 0 LINE",
"392 0 LINE",
"424 146 LINE"
);
}
);
width = 485;
}
);
note = z;
unicode = 007A;
},
{
glyphname = braceleft;
lastChange = "2018-06-23 23:47:21 +0000";
layers = (
{
layerId = "273861F4-9D16-4AA5-A9CF-BC69819DDA51";
paths = (
{
closed = 1;
nodes = (
"211 28 OFFCURVE",
"212 36 OFFCURVE",
"214 46 CURVE SMOOTH",
"231 126 LINE SMOOTH",
"234 145 OFFCURVE",
"236 157 OFFCURVE",
"236 162 CURVE SMOOTH",
"236 219 OFFCURVE",
"211 257 OFFCURVE",
"153 276 CURVE",
"153 280 LINE",
"236 290 OFFCURVE",
"276 326 OFFCURVE",
"289 388 CURVE SMOOTH",
"315 514 LINE SMOOTH",
"326 561 OFFCURVE",
"348 576 OFFCURVE",
"401 577 CURVE",
"431 714 LINE",
"368 714 LINE SMOOTH",
"329 714 OFFCURVE",
"295 708 OFFCURVE",
"269 698 CURVE SMOOTH",
"216 676 OFFCURVE",
"186 637 OFFCURVE",
"168 556 CURVE SMOOTH",
"141 436 LINE SMOOTH",
"127 374 OFFCURVE",
"96 352 OFFCURVE",
"18 352 CURVE",
"-8 212 LINE",
"52 212 OFFCURVE",
"78 194 OFFCURVE",
"78 145 CURVE SMOOTH",
"78 139 OFFCURVE",
"77 132 OFFCURVE",
"75 124 CURVE",
"57 39 LINE SMOOTH",
"52 18 OFFCURVE",
"50 -2 OFFCURVE",
"50 -23 CURVE SMOOTH",
"50 -114 OFFCURVE",
"107 -158 OFFCURVE",
"226 -158 CURVE SMOOTH",
"266 -158 LINE",
"266 -21 LINE",
"229 -21 OFFCURVE",
"211 -7 OFFCURVE",
"211 22 CURVE SMOOTH"
);
}
);
width = 359;
}
);
note = braceleft;
unicode = 007B;
},
{
glyphname = bar;
lastChange = "2018-06-23 23:47:21 +0000";
layers = (
{
layerId = "273861F4-9D16-4AA5-A9CF-BC69819DDA51";
paths = (
{
closed = 1;
nodes = (
"348 -227 LINE",
"348 756 LINE",
"216 756 LINE",
"216 -227 LINE"
);
}
);
width = 566;
}
);
note = bar;
unicode = 007C;
},
{
glyphname = braceright;
lastChange = "2018-06-23 23:47:21 +0000";
layers = (
{
layerId = "273861F4-9D16-4AA5-A9CF-BC69819DDA51";
paths = (
{
closed = 1;
nodes = (
"95 -158 OFFCURVE",
"157 -111 OFFCURVE",
"181 0 CURVE SMOOTH",
"208 120 LINE SMOOTH",
"221 181 OFFCURVE",
"258 205 OFFCURVE",
"337 205 CURVE",
"365 345 LINE",
"297 345 OFFCURVE",
"271 368 OFFCURVE",
"271 411 CURVE SMOOTH",
"271 417 OFFCURVE",
"272 424 OFFCURVE",
"274 432 CURVE SMOOTH",
"292 517 LINE SMOOTH",
"296 537 OFFCURVE",
"299 558 OFFCURVE",
"299 580 CURVE SMOOTH",
"299 667 OFFCURVE",
"237 714 OFFCURVE",
"128 714 CURVE SMOOTH",
"98 714 LINE",
"72 577 LINE",
"116 577 OFFCURVE",
"138 563 OFFCURVE",
"138 534 CURVE SMOOTH",
"138 527 OFFCURVE",
"137 519 OFFCURVE",
"135 510 CURVE",
"118 430 LINE",
"115 410 OFFCURVE",
"113 398 OFFCURVE",
"113 394 CURVE SMOOTH",
"113 336 OFFCURVE",
"141 298 OFFCURVE",
"196 280 CURVE",
"196 276 LINE",
"116 268 OFFCURVE",
"74 232 OFFCURVE",
"60 168 CURVE SMOOTH",
"34 42 LINE SMOOTH",
"30 23 OFFCURVE",
"25 9 OFFCURVE",
"20 2 CURVE SMOOTH",
"8 -13 OFFCURVE",
"-13 -19 OFFCURVE",
"-60 -21 CURVE",
"-60 -158 LINE",
"-24 -158 LINE SMOOTH"
);
}
);
width = 359;
}
);
note = braceright;
unicode = 007D;
},
{
glyphname = asciitilde;
lastChange = "2018-06-23 23:47:21 +0000";
layers = (
{
layerId = "273861F4-9D16-4AA5-A9CF-BC69819DDA51";
paths = (
{
closed = 1;
nodes = (
"196 315 OFFCURVE",
"218 308 OFFCURVE",
"267 288 CURVE SMOOTH",
"330 263 OFFCURVE",
"354 257 OFFCURVE",
"395 257 CURVE SMOOTH",
"445 257 OFFCURVE",
"488 274 OFFCURVE",
"523 310 CURVE",
"523 449 LINE",
"486 412 OFFCURVE",
"440 390 OFFCURVE",
"407 390 CURVE SMOOTH",
"374 390 OFFCURVE",
"347 399 OFFCURVE",
"303 417 CURVE SMOOTH",
"236 444 OFFCURVE",
"214 448 OFFCURVE",
"175 448 CURVE SMOOTH",
"125 448 OFFCURVE",
"82 431 OFFCURVE",
"47 395 CURVE",
"47 256 LINE",
"88 295 OFFCURVE",
"130 315 OFFCURVE",
"164 315 CURVE SMOOTH"
);
}
);
width = 566;
}
);
note = asciitilde;
unicode = 007E;
},
{
glyphname = exclamdown;
lastChange = "2018-06-23 23:47:21 +0000";
layers = (
{
layerId = "273861F4-9D16-4AA5-A9CF-BC69819DDA51";
paths = (
{
closed = 1;
nodes = (
"155 -165 LINE",
"231 297 LINE",
"71 297 LINE",
"-53 -165 LINE"
);
},
{
closed = 1;
nodes = (
"286 536 OFFCURVE",
"253 563 OFFCURVE",
"195 563 CURVE SMOOTH",
"124 563 OFFCURVE",
"79 522 OFFCURVE",
"79 451 CURVE SMOOTH",
"79 402 OFFCURVE",
"110 375 OFFCURVE",
"167 375 CURVE SMOOTH",
"241 375 OFFCURVE",
"286 419 OFFCURVE",
"286 489 CURVE SMOOTH"
);
}
);
width = 304;
}
);
note = exclamdown;
unicode = 00A1;
},
{
glyphname = cent;
lastChange = "2018-06-23 23:47:21 +0000";
layers = (
{
layerId = "273861F4-9D16-4AA5-A9CF-BC69819DDA51";
paths = (
{
closed = 1;
nodes = (
"367 86 OFFCURVE",
"417 101 OFFCURVE",
"464 126 CURVE",
"464 278 LINE",
"416 252 OFFCURVE",
"373 234 OFFCURVE",
"326 234 CURVE SMOOTH",
"288 234 OFFCURVE",
"267 255 OFFCURVE",
"267 306 CURVE SMOOTH",
"267 342 OFFCURVE",
"272 375 OFFCURVE",
"283 407 CURVE SMOOTH",
"304 470 OFFCURVE",
"339 503 OFFCURVE",
"380 503 CURVE SMOOTH",
"412 503 OFFCURVE",
"439 498 OFFCURVE",
"490 474 CURVE",
"550 614 LINE",
"514 632 OFFCURVE",
"477 645 OFFCURVE",
"437 651 CURVE",
"453 724 LINE",
"341 724 LINE",
"325 652 LINE",
"175 629 OFFCURVE",
"75 485 OFFCURVE",
"75 286 CURVE SMOOTH",
"75 181 OFFCURVE",
"119 116 OFFCURVE",
"207 92 CURVE",
"182 -10 LINE",
"294 -10 LINE",
"314 82 LINE"
);
}
);
width = 580;
}
);
note = cent;
unicode = 00A2;
},
{
glyphname = sterling;
lastChange = "2018-06-23 23:47:21 +0000";
layers = (
{
layerId = "273861F4-9D16-4AA5-A9CF-BC69819DDA51";
paths = (
{
closed = 1;
nodes = (
"368 724 OFFCURVE",
"329 717 OFFCURVE",
"299 703 CURVE SMOOTH",
"240 675 OFFCURVE",
"201 614 OFFCURVE",
"184 517 CURVE SMOOTH",
"173 454 LINE",
"81 454 LINE",
"53 318 LINE",
"145 318 LINE",
"135 271 LINE SMOOTH",
"129 244 OFFCURVE",
"123 224 OFFCURVE",
"115 211 CURVE SMOOTH",
"99 184 OFFCURVE",
"71 167 OFFCURVE",
"22 153 CURVE",
"-9 0 LINE",
"489 0 LINE",
"524 161 LINE",
"229 161 LINE",
"281 183 OFFCURVE",
"318 224 OFFCURVE",
"328 272 CURVE SMOOTH",
"338 318 LINE",
"461 318 LINE",
"489 454 LINE",
"366 454 LINE",
"378 510 LINE SMOOTH",
"387 554 OFFCURVE",
"400 567 OFFCURVE",
"423 567 CURVE SMOOTH",
"456 567 OFFCURVE",
"484 556 OFFCURVE",
"527 536 CURVE",
"597 682 LINE",
"527 713 OFFCURVE",
"473 724 OFFCURVE",
"415 724 CURVE SMOOTH"
);
}
);
width = 580;
}
);
note = sterling;
unicode = 00A3;
},
{
glyphname = currency;
lastChange = "2018-06-23 23:47:21 +0000";
layers = (
{
layerId = "273861F4-9D16-4AA5-A9CF-BC69819DDA51";
paths = (
{
closed = 1;
nodes = (
"93 322 OFFCURVE",
"100 292 OFFCURVE",
"115 263 CURVE",
"53 203 LINE",
"142 114 LINE",
"202 172 LINE",
"228 159 OFFCURVE",
"258 153 OFFCURVE",
"293 153 CURVE SMOOTH",
"322 153 OFFCURVE",
"352 160 OFFCURVE",
"383 173 CURVE",
"444 113 LINE",
"533 202 LINE",
"473 262 LINE",
"487 292 OFFCURVE",
"494 322 OFFCURVE",
"494 353 CURVE SMOOTH",
"494 387 OFFCURVE",
"487 417 OFFCURVE",
"473 444 CURVE",
"536 507 LINE",
"444 594 LINE",
"383 531 LINE",
"354 546 OFFCURVE",
"324 554 OFFCURVE",
"293 554 CURVE SMOOTH",
"265 554 OFFCURVE",
"235 547 OFFCURVE",
"204 533 CURVE",
"142 594 LINE",
"52 504 LINE",
"115 443 LINE",
"100 413 OFFCURVE",
"93 383 OFFCURVE",
"93 353 CURVE SMOOTH"
);
},
{
closed = 1;
nodes = (
"220 394 OFFCURVE",
"251 427 OFFCURVE",
"293 427 CURVE SMOOTH",
"336 427 OFFCURVE",
"369 393 OFFCURVE",
"369 353 CURVE SMOOTH",
"369 312 OFFCURVE",
"335 279 OFFCURVE",
"293 279 CURVE SMOOTH",
"252 279 OFFCURVE",
"220 312 OFFCURVE",
"220 353 CURVE SMOOTH"
);
}
);
width = 580;
}
);
note = currency;
unicode = 00A4;
},
{
glyphname = yen;
lastChange = "2018-06-23 23:47:21 +0000";
layers = (
{
layerId = "273861F4-9D16-4AA5-A9CF-BC69819DDA51";
paths = (
{
closed = 1;
nodes = (
"89 714 LINE",
"180 356 LINE",
"93 356 LINE",
"71 256 LINE",
"181 256 LINE",
"169 193 LINE",
"58 193 LINE",
"37 93 LINE",
"148 93 LINE",
"128 0 LINE",
"313 0 LINE",
"333 93 LINE",
"442 93 LINE",
"463 193 LINE",
"354 193 LINE",
"367 256 LINE",
"476 256 LINE",
"498 356 LINE",
"408 356 LINE",
"647 714 LINE",
"455 714 LINE",
"312 476 LINE",
"277 714 LINE"
);
}
);
width = 580;
}
);
note = yen;
unicode = 00A5;
},
{
glyphname = brokenbar;
lastChange = "2018-06-23 23:47:21 +0000";
layers = (
{
layerId = "273861F4-9D16-4AA5-A9CF-BC69819DDA51";
paths = (
{
closed = 1;
nodes = (
"349 344 LINE",
"349 755 LINE",
"217 755 LINE",
"217 344 LINE"
);
},
{
closed = 1;
nodes = (
"349 -217 LINE",
"349 193 LINE",
"217 193 LINE",
"217 -217 LINE"
);
}
);
width = 566;
}
);
note = brokenbar;
unicode = 00A6;
},
{
glyphname = section;
lastChange = "2018-06-23 23:47:21 +0000";
layers = (
{
layerId = "273861F4-9D16-4AA5-A9CF-BC69819DDA51";
paths = (
{
closed = 1;
nodes = (
"77 316 OFFCURVE",
"116 264 OFFCURVE",
"200 218 CURVE SMOOTH",
"248 192 OFFCURVE",
"266 173 OFFCURVE",
"266 148 CURVE SMOOTH",
"266 117 OFFCURVE",
"238 97 OFFCURVE",
"193 97 CURVE SMOOTH",
"130 97 OFFCURVE",
"73 122 OFFCURVE",
"18 156 CURVE",
"18 34 LINE",
"55 5 OFFCURVE",
"112 -12 OFFCURVE",
"184 -12 CURVE SMOOTH",
"334 -12 OFFCURVE",
"421 48 OFFCURVE",
"421 159 CURVE SMOOTH",
"421 196 OFFCURVE",
"408 232 OFFCURVE",
"387 257 CURVE",
"447 291 OFFCURVE",
"469 336 OFFCURVE",
"469 401 CURVE SMOOTH",
"469 466 OFFCURVE",
"430 517 OFFCURVE",
"350 553 CURVE SMOOTH",
"332 562 OFFCURVE",
"317 570 OFFCURVE",
"307 577 CURVE SMOOTH",
"285 592 OFFCURVE",
"277 603 OFFCURVE",
"277 624 CURVE SMOOTH",
"277 643 OFFCURVE",
"292 660 OFFCURVE",
"331 660 CURVE SMOOTH",
"374 660 OFFCURVE",
"415 648 OFFCURVE",
"474 611 CURVE",
"523 720 LINE",
"466 753 OFFCURVE",
"407 770 OFFCURVE",
"347 770 CURVE SMOOTH",
"202 770 OFFCURVE",
"125 714 OFFCURVE",
"125 610 CURVE SMOOTH",
"125 577 OFFCURVE",
"139 541 OFFCURVE",
"164 516 CURVE",
"108 481 OFFCURVE",
"77 434 OFFCURVE",
"77 379 CURVE SMOOTH"
);
},
{
closed = 1;
nodes = (
"309 437 OFFCURVE",
"331 411 OFFCURVE",
"331 376 CURVE SMOOTH",
"331 351 OFFCURVE",
"319 331 OFFCURVE",
"295 314 CURVE",
"238 346 OFFCURVE",
"216 371 OFFCURVE",
"216 399 CURVE SMOOTH",
"216 421 OFFCURVE",
"232 447 OFFCURVE",
"256 459 CURVE"
);
}
);
width = 506;
}
);
note = section;
unicode = 00A7;
},
{
glyphname = dieresis;
lastChange = "2018-06-23 23:47:21 +0000";
layers = (
{
layerId = "273861F4-9D16-4AA5-A9CF-BC69819DDA51";
paths = (
{
closed = 1;
nodes = (
"164 633 OFFCURVE",
"190 614 OFFCURVE",
"247 614 CURVE SMOOTH",
"313 614 OFFCURVE",
"345 645 OFFCURVE",
"345 706 CURVE SMOOTH",
"345 747 OFFCURVE",
"317 767 OFFCURVE",
"262 767 CURVE SMOOTH",
"197 767 OFFCURVE",
"164 737 OFFCURVE",
"164 676 CURVE SMOOTH"
);
},
{
closed = 1;
nodes = (
"402 633 OFFCURVE",
"428 614 OFFCURVE",
"485 614 CURVE SMOOTH",
"550 614 OFFCURVE",
"582 643 OFFCURVE",
"582 706 CURVE SMOOTH",
"582 747 OFFCURVE",
"555 767 OFFCURVE",
"500 767 CURVE SMOOTH",
"435 767 OFFCURVE",
"402 737 OFFCURVE",
"402 676 CURVE SMOOTH"
);
}
);
width = 554;
}
);
note = dieresis;
unicode = 00A8;
},
{
glyphname = copyright;
lastChange = "2018-06-23 23:47:21 +0000";
layers = (
{
layerId = "273861F4-9D16-4AA5-A9CF-BC69819DDA51";
paths = (
{
closed = 1;
nodes = (
"481 474 OFFCURVE",
"517 464 OFFCURVE",
"554 445 CURVE",
"599 545 LINE",
"545 572 OFFCURVE",
"491 585 OFFCURVE",
"437 585 CURVE SMOOTH",
"302 585 OFFCURVE",
"225 502 OFFCURVE",
"225 359 CURVE SMOOTH",
"225 214 OFFCURVE",
"303 128 OFFCURVE",
"442 128 CURVE SMOOTH",
"490 128 OFFCURVE",
"534 138 OFFCURVE",
"575 159 CURVE",
"575 272 LINE",
"536 250 OFFCURVE",
"494 239 OFFCURVE",
"449 239 CURVE SMOOTH",
"390 239 OFFCURVE",
"362 273 OFFCURVE",
"362 357 CURVE SMOOTH",
"362 434 OFFCURVE",
"394 474 OFFCURVE",
"446 474 CURVE SMOOTH"
);
},
{
closed = 1;
nodes = (
"55 292 OFFCURVE",
"71 232 OFFCURVE",
"104 175 CURVE SMOOTH",
"167 62 OFFCURVE",
"288 -10 OFFCURVE",
"422 -10 CURVE SMOOTH",
"490 -10 OFFCURVE",
"552 7 OFFCURVE",
"609 41 CURVE SMOOTH",
"723 109 OFFCURVE",
"789 229 OFFCURVE",
"789 357 CURVE SMOOTH",
"789 423 OFFCURVE",
"772 484 OFFCURVE",
"740 541 CURVE SMOOTH",
"674 655 OFFCURVE",
"552 724 OFFCURVE",
"422 724 CURVE SMOOTH",
"357 724 OFFCURVE",
"296 708 OFFCURVE",
"239 676 CURVE SMOOTH",
"126 611 OFFCURVE",
"55 488 OFFCURVE",
"55 357 CURVE SMOOTH"
);
},
{
closed = 1;
nodes = (
"135 408 OFFCURVE",
"147 456 OFFCURVE",
"173 500 CURVE SMOOTH",
"223 588 OFFCURVE",
"319 644 OFFCURVE",
"422 644 CURVE SMOOTH",
"473 644 OFFCURVE",
"521 631 OFFCURVE",
"566 606 CURVE SMOOTH",
"655 555 OFFCURVE",
"709 460 OFFCURVE",
"709 357 CURVE SMOOTH",
"709 305 OFFCURVE",
"696 257 OFFCURVE",
"670 212 CURVE SMOOTH",
"619 124 OFFCURVE",
"524 70 OFFCURVE",
"422 70 CURVE SMOOTH",
"371 70 OFFCURVE",
"323 83 OFFCURVE",
"278 108 CURVE SMOOTH",
"189 160 OFFCURVE",
"135 254 OFFCURVE",
"135 357 CURVE SMOOTH"
);
}
);
width = 824;
}
);
note = copyright;
unicode = 00A9;
},
{
glyphname = ordfeminine;
lastChange = "2018-06-23 23:47:21 +0000";
layers = (
{
layerId = "273861F4-9D16-4AA5-A9CF-BC69819DDA51";
paths = (
{
closed = 1;
nodes = (
"204 720 OFFCURVE",
"175 709 OFFCURVE",
"150 688 CURVE SMOOTH",
"99 646 OFFCURVE",
"68 567 OFFCURVE",
"68 489 CURVE SMOOTH",
"68 460 OFFCURVE",
"73 436 OFFCURVE",
"82 416 CURVE SMOOTH",
"101 377 OFFCURVE",
"133 356 OFFCURVE",
"172 356 CURVE SMOOTH",
"215 356 OFFCURVE",
"252 372 OFFCURVE",
"281 404 CURVE",
"285 404 LINE",
"281 362 LINE",
"376 362 LINE",
"459 714 LINE",
"362 714 LINE",
"344 672 LINE",
"340 672 LINE",
"305 710 OFFCURVE",
"277 720 OFFCURVE",
"236 720 CURVE SMOOTH"
);
},
{
closed = 1;
nodes = (
"215 445 OFFCURVE",
"201 463 OFFCURVE",
"201 494 CURVE SMOOTH",
"201 515 OFFCURVE",
"205 537 OFFCURVE",
"211 559 CURVE SMOOTH",
"224 602 OFFCURVE",
"247 631 OFFCURVE",
"272 631 CURVE SMOOTH",
"293 631 OFFCURVE",
"307 610 OFFCURVE",
"307 575 CURVE SMOOTH",
"307 553 OFFCURVE",
"304 533 OFFCURVE",
"298 513 CURVE SMOOTH",
"287 473 OFFCURVE",
"265 445 OFFCURVE",
"235 445 CURVE SMOOTH"
);
}
);
width = 404;
}
);
note = ordfeminine;
unicode = 00AA;
},
{
glyphname = guillemotleft;
lastChange = "2018-06-23 23:47:21 +0000";
layers = (
{
layerId = "273861F4-9D16-4AA5-A9CF-BC69819DDA51";
paths = (
{
closed = 1;
nodes = (
"119 37 LINE",
"282 104 LINE",
"228 265 LINE",
"358 428 LINE",
"229 528 LINE",
"30 275 LINE",
"30 270 LINE"
);
},
{
closed = 1;
nodes = (
"392 37 LINE",
"555 104 LINE",
"495 279 LINE",
"631 428 LINE",
"504 531 LINE",
"297 289 LINE",
"297 284 LINE"
);
}
);
width = 623;
}
);
note = guillemotleft;
unicode = 00AB;
},
{
glyphname = logicalnot;
lastChange = "2018-06-23 23:47:21 +0000";
layers = (
{
layerId = "273861F4-9D16-4AA5-A9CF-BC69819DDA51";
paths = (
{
closed = 1;
nodes = (
"40 286 LINE",
"384 286 LINE",
"384 116 LINE",
"516 116 LINE",
"516 419 LINE",
"40 419 LINE"
);
}
);
width = 566;
}
);
note = logicalnot;
unicode = 00AC;
},
{
glyphname = registered;
lastChange = "2018-06-23 23:47:21 +0000";
layers = (
{
layerId = "273861F4-9D16-4AA5-A9CF-BC69819DDA51";
paths = (
{
closed = 1;
nodes = (
"608 532 OFFCURVE",
"542 580 OFFCURVE",
"403 580 CURVE SMOOTH",
"261 580 LINE",
"261 153 LINE",
"398 153 LINE",
"398 309 LINE",
"404 309 LINE",
"482 153 LINE",
"621 153 LINE",
"518 326 LINE",
"580 349 OFFCURVE",
"608 389 OFFCURVE",
"608 448 CURVE SMOOTH"
);
},
{
closed = 1;
nodes = (
"402 485 LINE SMOOTH",
"447 485 OFFCURVE",
"470 478 OFFCURVE",
"470 443 CURVE SMOOTH",
"470 408 OFFCURVE",
"454 395 OFFCURVE",
"403 395 CURVE SMOOTH",
"398 395 LINE",
"398 485 LINE"
);
},
{
closed = 1;
nodes = (
"55 292 OFFCURVE",
"71 232 OFFCURVE",
"104 175 CURVE SMOOTH",
"167 62 OFFCURVE",
"288 -10 OFFCURVE",
"422 -10 CURVE SMOOTH",
"490 -10 OFFCURVE",
"552 7 OFFCURVE",
"609 41 CURVE SMOOTH",
"723 109 OFFCURVE",
"789 229 OFFCURVE",
"789 357 CURVE SMOOTH",
"789 423 OFFCURVE",
"772 484 OFFCURVE",
"740 541 CURVE SMOOTH",
"674 655 OFFCURVE",
"552 724 OFFCURVE",
"422 724 CURVE SMOOTH",
"357 724 OFFCURVE",
"296 708 OFFCURVE",
"239 676 CURVE SMOOTH",
"126 611 OFFCURVE",
"55 488 OFFCURVE",
"55 357 CURVE SMOOTH"
);
},
{
closed = 1;
nodes = (
"135 408 OFFCURVE",
"147 456 OFFCURVE",
"173 500 CURVE SMOOTH",
"223 588 OFFCURVE",
"319 644 OFFCURVE",
"422 644 CURVE SMOOTH",
"473 644 OFFCURVE",
"521 631 OFFCURVE",
"566 606 CURVE SMOOTH",
"655 555 OFFCURVE",
"709 460 OFFCURVE",
"709 357 CURVE SMOOTH",
"709 305 OFFCURVE",
"696 257 OFFCURVE",
"670 212 CURVE SMOOTH",
"619 124 OFFCURVE",
"524 70 OFFCURVE",
"422 70 CURVE SMOOTH",
"371 70 OFFCURVE",
"323 83 OFFCURVE",
"278 108 CURVE SMOOTH",
"189 160 OFFCURVE",
"135 254 OFFCURVE",
"135 357 CURVE SMOOTH"
);
}
);
width = 824;
}
);
note = registered;
unicode = 00AE;
},
{
glyphname = degree;
lastChange = "2018-06-23 23:47:21 +0000";
layers = (
{
layerId = "273861F4-9D16-4AA5-A9CF-BC69819DDA51";
paths = (
{
closed = 1;
nodes = (
"81 512 OFFCURVE",
"89 482 OFFCURVE",
"105 455 CURVE SMOOTH",
"137 400 OFFCURVE",
"197 366 OFFCURVE",
"261 366 CURVE SMOOTH",
"293 366 OFFCURVE",
"323 374 OFFCURVE",
"351 390 CURVE SMOOTH",
"407 421 OFFCURVE",
"441 480 OFFCURVE",
"441 544 CURVE SMOOTH",
"441 575 OFFCURVE",
"433 605 OFFCURVE",
"417 633 CURVE SMOOTH",
"385 689 OFFCURVE",
"325 724 OFFCURVE",
"261 724 CURVE SMOOTH",
"229 724 OFFCURVE",
"199 716 OFFCURVE",
"171 700 CURVE SMOOTH",
"115 667 OFFCURVE",
"81 607 OFFCURVE",
"81 544 CURVE SMOOTH"
);
},
{
closed = 1;
nodes = (
"197 579 OFFCURVE",
"226 609 OFFCURVE",
"261 609 CURVE SMOOTH",
"296 609 OFFCURVE",
"325 579 OFFCURVE",
"325 544 CURVE SMOOTH",
"325 511 OFFCURVE",
"295 482 OFFCURVE",
"261 482 CURVE SMOOTH",
"227 482 OFFCURVE",
"197 511 OFFCURVE",
"197 544 CURVE SMOOTH"
);
}
);
width = 422;
}
);
note = degree;
unicode = 00B0;
},
{
glyphname = plusminus;
lastChange = "2018-06-23 23:47:21 +0000";
layers = (
{
layerId = "273861F4-9D16-4AA5-A9CF-BC69819DDA51";
paths = (
{
closed = 1;
nodes = (
"354 168 LINE",
"354 339 LINE",
"526 339 LINE",
"526 471 LINE",
"354 471 LINE",
"354 643 LINE",
"222 643 LINE",
"222 471 LINE",
"50 471 LINE",
"50 339 LINE",
"222 339 LINE",
"222 168 LINE"
);
},
{
closed = 1;
nodes = (
"526 132 LINE",
"50 132 LINE",
"50 0 LINE",
"526 0 LINE"
);
}
);
width = 566;
}
);
note = plusminus;
unicode = 00B1;
},
{
glyphname = twosuperior;
lastChange = "2018-06-23 23:47:21 +0000";
layers = (
{
layerId = "273861F4-9D16-4AA5-A9CF-BC69819DDA51";
paths = (
{
closed = 1;
nodes = (
"224 410 LINE",
"283 447 OFFCURVE",
"324 476 OFFCURVE",
"347 496 CURVE SMOOTH",
"393 536 OFFCURVE",
"412 573 OFFCURVE",
"412 618 CURVE SMOOTH",
"412 680 OFFCURVE",
"352 724 OFFCURVE",
"264 724 CURVE SMOOTH",
"181 724 OFFCURVE",
"129 707 OFFCURVE",
"74 664 CURVE",
"132 571 LINE",
"167 600 OFFCURVE",
"201 610 OFFCURVE",
"224 610 CURVE SMOOTH",
"245 610 OFFCURVE",
"255 602 OFFCURVE",
"255 585 CURVE SMOOTH",
"255 574 OFFCURVE",
"249 562 OFFCURVE",
"237 548 CURVE SMOOTH",
"226 535 OFFCURVE",
"202 515 OFFCURVE",
"167 488 CURVE SMOOTH",
"32 385 LINE",
"11 285 LINE",
"355 285 LINE",
"380 410 LINE"
);
}
);
width = 414;
}
);
note = twosuperior;
unicode = 00B2;
},
{
glyphname = threesuperior;
lastChange = "2018-06-23 23:47:21 +0000";
layers = (
{
layerId = "273861F4-9D16-4AA5-A9CF-BC69819DDA51";
paths = (
{
closed = 1;
nodes = (
"401 683 OFFCURVE",
"342 723 OFFCURVE",
"253 723 CURVE SMOOTH",
"186 723 OFFCURVE",
"140 710 OFFCURVE",
"86 677 CURVE",
"135 588 LINE",
"169 609 OFFCURVE",
"199 620 OFFCURVE",
"225 620 CURVE SMOOTH",
"246 620 OFFCURVE",
"262 610 OFFCURVE",
"262 592 CURVE SMOOTH",
"262 563 OFFCURVE",
"231 549 OFFCURVE",
"185 549 CURVE SMOOTH",
"138 549 LINE",
"117 454 LINE",
"176 454 LINE SMOOTH",
"212 454 OFFCURVE",
"231 443 OFFCURVE",
"231 421 CURVE SMOOTH",
"231 395 OFFCURVE",
"207 382 OFFCURVE",
"157 382 CURVE SMOOTH",
"121 382 OFFCURVE",
"73 394 OFFCURVE",
"32 422 CURVE",
"32 312 LINE",
"73 287 OFFCURVE",
"115 278 OFFCURVE",
"184 278 CURVE SMOOTH",
"295 278 OFFCURVE",
"369 333 OFFCURVE",
"369 416 CURVE SMOOTH",
"369 459 OFFCURVE",
"348 490 OFFCURVE",
"288 505 CURVE",
"288 509 LINE",
"366 528 OFFCURVE",
"401 562 OFFCURVE",
"401 621 CURVE SMOOTH"
);
}
);
width = 414;
}
);
note = threesuperior;
unicode = 00B3;
},
{
glyphname = acute;
lastChange = "2018-06-23 23:47:21 +0000";
layers = (
{
layerId = "273861F4-9D16-4AA5-A9CF-BC69819DDA51";
paths = (
{
closed = 1;
nodes = (
"360 606 LINE",
"424 641 OFFCURVE",
"544 724 OFFCURVE",
"573 759 CURVE",
"573 766 LINE",
"359 766 LINE",
"307 700 OFFCURVE",
"261 650 OFFCURVE",
"221 617 CURVE",
"221 606 LINE"
);
}
);
width = 554;
}
);
note = acute;
unicode = 00B4;
},
{
glyphname = mu;
lastChange = "2018-06-23 23:47:21 +0000";
layers = (
{
layerId = "273861F4-9D16-4AA5-A9CF-BC69819DDA51";
paths = (
{
closed = 1;
nodes = (
"306 -10 OFFCURVE",
"337 14 OFFCURVE",
"359 60 CURVE",
"363 60 LINE",
"360 0 LINE",
"501 0 LINE",
"618 553 LINE",
"429 553 LINE",
"372 284 LINE SMOOTH",
"364 246 OFFCURVE",
"356 216 OFFCURVE",
"349 196 CURVE SMOOTH",
"333 157 OFFCURVE",
"316 141 OFFCURVE",
"282 141 CURVE SMOOTH",
"262 141 OFFCURVE",
"245 154 OFFCURVE",
"245 183 CURVE SMOOTH",
"245 204 OFFCURVE",
"248 227 OFFCURVE",
"254 252 CURVE SMOOTH",
"317 553 LINE",
"128 553 LINE",
"-40 -240 LINE",
"149 -240 LINE",
"175 -120 LINE SMOOTH",
"187 -65 OFFCURVE",
"195 -16 OFFCURVE",
"198 28 CURVE",
"202 28 LINE",
"211 3 OFFCURVE",
"233 -10 OFFCURVE",
"266 -10 CURVE SMOOTH"
);
}
);
width = 629;
}
);
note = mu;
unicode = 00B5;
},
{
glyphname = paragraph;
lastChange = "2018-06-23 23:47:21 +0000";
layers = (
{
layerId = "273861F4-9D16-4AA5-A9CF-BC69819DDA51";
paths = (
{
closed = 1;
nodes = (
"270 760 LINE SMOOTH",
"116 760 OFFCURVE",
"50 675 OFFCURVE",
"50 509 CURVE SMOOTH",
"50 345 OFFCURVE",
"114 264 OFFCURVE",
"255 264 CURVE SMOOTH",
"278 264 OFFCURVE",
"298 267 OFFCURVE",
"316 273 CURVE",
"316 -127 LINE",
"409 -127 LINE",
"409 648 LINE",
"486 648 LINE",
"486 -127 LINE",
"579 -127 LINE",
"579 760 LINE"
);
}
);
width = 643;
}
);
note = paragraph;
unicode = 00B6;
},
{
glyphname = periodcentered;
lastChange = "2018-06-23 23:47:21 +0000";
layers = (
{
layerId = "273861F4-9D16-4AA5-A9CF-BC69819DDA51";
paths = (
{
closed = 1;
nodes = (
"56 286 OFFCURVE",
"88 259 OFFCURVE",
"144 259 CURVE SMOOTH",
"218 259 OFFCURVE",
"263 295 OFFCURVE",
"263 371 CURVE SMOOTH",
"263 419 OFFCURVE",
"228 447 OFFCURVE",
"175 447 CURVE SMOOTH",
"101 447 OFFCURVE",
"56 403 OFFCURVE",
"56 334 CURVE SMOOTH"
);
}
);
width = 306;
}
);
note = periodcentered;
unicode = 00B7;
},
{
glyphname = cedilla;
lastChange = "2018-06-23 23:47:21 +0000";
layers = (
{
layerId = "273861F4-9D16-4AA5-A9CF-BC69819DDA51";
paths = (
{
closed = 1;
nodes = (
"140 -64 OFFCURVE",
"111 -32 OFFCURVE",
"53 -20 CURVE",
"65 0 LINE",
"-35 0 LINE",
"-72 -66 LINE",
"-24 -75 OFFCURVE",
"-1 -91 OFFCURVE",
"-1 -115 CURVE SMOOTH",
"-1 -131 OFFCURVE",
"-12 -139 OFFCURVE",
"-34 -139 CURVE SMOOTH",
"-50 -139 OFFCURVE",
"-88 -132 OFFCURVE",
"-108 -126 CURVE",
"-108 -226 LINE",
"-83 -235 OFFCURVE",
"-52 -240 OFFCURVE",
"-14 -240 CURVE SMOOTH",
"84 -240 OFFCURVE",
"140 -194 OFFCURVE",
"140 -115 CURVE SMOOTH"
);
}
);
width = 187;
}
);
note = cedilla;
unicode = 00B8;
},
{
glyphname = onesuperior;
lastChange = "2018-06-23 23:47:21 +0000";
layers = (
{
layerId = "273861F4-9D16-4AA5-A9CF-BC69819DDA51";
paths = (
{
closed = 1;
nodes = (
"114 497 LINE",
"172 535 LINE",
"208 564 LINE",
"197 530 OFFCURVE",
"188 496 OFFCURVE",
"181 463 CURVE SMOOTH",
"141 285 LINE",
"296 285 LINE",
"387 714 LINE",
"264 714 LINE",
"56 587 LINE"
);
}
);
width = 414;
}
);
note = onesuperior;
unicode = 00B9;
},
{
glyphname = ordmasculine;
lastChange = "2018-06-23 23:47:21 +0000";
layers = (
{
layerId = "273861F4-9D16-4AA5-A9CF-BC69819DDA51";
paths = (
{
closed = 1;
nodes = (
"294 506 OFFCURVE",
"267 455 OFFCURVE",
"228 455 CURVE SMOOTH",
"210 455 OFFCURVE",
"201 469 OFFCURVE",
"201 496 CURVE SMOOTH",
"201 569 OFFCURVE",
"228 622 OFFCURVE",
"267 622 CURVE SMOOTH",
"288 622 OFFCURVE",
"294 606 OFFCURVE",
"294 577 CURVE SMOOTH"
);
},
{
closed = 1;
nodes = (
"427 667 OFFCURVE",
"373 722 OFFCURVE",
"280 722 CURVE SMOOTH",
"149 722 OFFCURVE",
"68 629 OFFCURVE",
"68 490 CURVE SMOOTH",
"68 408 OFFCURVE",
"122 355 OFFCURVE",
"216 355 CURVE SMOOTH",
"259 355 OFFCURVE",
"297 364 OFFCURVE",
"329 383 CURVE SMOOTH",
"393 420 OFFCURVE",
"427 490 OFFCURVE",
"427 577 CURVE SMOOTH"
);
}
);
width = 399;
}
);
note = ordmasculine;
unicode = 00BA;
},
{
glyphname = guillemotright;
lastChange = "2018-06-23 23:47:21 +0000";
layers = (
{
layerId = "273861F4-9D16-4AA5-A9CF-BC69819DDA51";
paths = (
{
closed = 1;
nodes = (
"504 512 LINE",
"341 445 LINE",
"395 284 LINE",
"265 121 LINE",
"394 21 LINE",
"593 274 LINE",
"593 279 LINE"
);
},
{
closed = 1;
nodes = (
"231 512 LINE",
"69 445 LINE",
"128 270 LINE",
"-7 121 LINE",
"119 17 LINE",
"326 260 LINE",
"326 265 LINE"
);
}
);
width = 623;
}
);
note = guillemotright;
unicode = 00BB;
},
{
glyphname = onequarter;
lastChange = "2018-06-23 23:47:21 +0000";
layers = (
{
layerId = "273861F4-9D16-4AA5-A9CF-BC69819DDA51";
paths = (
{
closed = 1;
nodes = (
"843 157 LINE",
"901 429 LINE",
"743 429 LINE",
"503 147 LINE",
"488 60 LINE",
"683 60 LINE",
"669 0 LINE",
"811 0 LINE",
"823 60 LINE",
"878 60 LINE",
"898 157 LINE"
);
},
{
closed = 1;
nodes = (
"687 234 OFFCURVE",
"721 278 OFFCURVE",
"729 289 CURVE SMOOTH",
"736 298 OFFCURVE",
"741 306 OFFCURVE",
"746 312 CURVE",
"744 309 OFFCURVE",
"742 302 OFFCURVE",
"738 291 CURVE SMOOTH",
"735 279 OFFCURVE",
"723 234 OFFCURVE",
"703 157 CURVE",
"624 157 LINE"
);
},
{
closed = 1;
nodes = (
"176 0 LINE",
"321 0 LINE",
"850 714 LINE",
"708 714 LINE"
);
},
{
closed = 1;
nodes = (
"144 485 LINE",
"202 523 LINE",
"238 552 LINE",
"227 518 OFFCURVE",
"218 484 OFFCURVE",
"211 451 CURVE SMOOTH",
"171 273 LINE",
"326 273 LINE",
"417 702 LINE",
"294 702 LINE",
"86 575 LINE"
);
}
);
width = 949;
}
);
note = onequarter;
unicode = 00BC;
},
{
glyphname = onehalf;
lastChange = "2018-06-23 23:47:21 +0000";
layers = (
{
layerId = "273861F4-9D16-4AA5-A9CF-BC69819DDA51";
paths = (
{
closed = 1;
nodes = (
"799 125 LINE",
"858 162 OFFCURVE",
"899 191 OFFCURVE",
"922 211 CURVE SMOOTH",
"968 251 OFFCURVE",
"987 288 OFFCURVE",
"987 333 CURVE SMOOTH",
"987 395 OFFCURVE",
"927 439 OFFCURVE",
"839 439 CURVE SMOOTH",
"756 439 OFFCURVE",
"704 421 OFFCURVE",
"649 379 CURVE",
"707 286 LINE",
"742 314 OFFCURVE",
"776 325 OFFCURVE",
"799 325 CURVE SMOOTH",
"820 325 OFFCURVE",
"830 316 OFFCURVE",
"830 300 CURVE SMOOTH",
"830 289 OFFCURVE",
"824 276 OFFCURVE",
"813 263 CURVE SMOOTH",
"801 250 OFFCURVE",
"777 229 OFFCURVE",
"742 203 CURVE SMOOTH",
"607 100 LINE",
"586 0 LINE",
"930 0 LINE",
"955 125 LINE"
);
},
{
closed = 1;
nodes = (
"146 497 LINE",
"204 535 LINE",
"240 564 LINE",
"229 530 OFFCURVE",
"221 496 OFFCURVE",
"213 463 CURVE SMOOTH",
"173 285 LINE",
"328 285 LINE",
"419 714 LINE",
"296 714 LINE",
"88 587 LINE"
);
},
{
closed = 1;
nodes = (
"171 0 LINE",
"316 0 LINE",
"845 714 LINE",
"703 714 LINE"
);
}
);
width = 1011;
}
);
note = onehalf;
unicode = 00BD;
},
{
glyphname = threequarters;
lastChange = "2018-06-23 23:47:21 +0000";
layers = (
{
layerId = "273861F4-9D16-4AA5-A9CF-BC69819DDA51";
paths = (
{
closed = 1;
nodes = (
"855 157 LINE",
"914 429 LINE",
"755 429 LINE",
"516 147 LINE",
"500 60 LINE",
"695 60 LINE",
"682 0 LINE",
"823 0 LINE",
"835 60 LINE",
"891 60 LINE",
"911 157 LINE"
);
},
{
closed = 1;
nodes = (
"699 234 OFFCURVE",
"733 278 OFFCURVE",
"741 289 CURVE SMOOTH",
"748 298 OFFCURVE",
"753 306 OFFCURVE",
"758 312 CURVE",
"756 309 OFFCURVE",
"754 302 OFFCURVE",
"750 291 CURVE SMOOTH",
"747 279 OFFCURVE",
"735 234 OFFCURVE",
"715 157 CURVE",
"636 157 LINE"
);
},
{
closed = 1;
nodes = (
"412 683 OFFCURVE",
"353 723 OFFCURVE",
"264 723 CURVE SMOOTH",
"197 723 OFFCURVE",
"151 710 OFFCURVE",
"97 677 CURVE",
"146 588 LINE",
"180 609 OFFCURVE",
"210 620 OFFCURVE",
"236 620 CURVE SMOOTH",
"257 620 OFFCURVE",
"273 610 OFFCURVE",
"273 592 CURVE SMOOTH",
"273 563 OFFCURVE",
"242 549 OFFCURVE",
"196 549 CURVE SMOOTH",
"149 549 LINE",
"128 454 LINE",
"187 454 LINE SMOOTH",
"223 454 OFFCURVE",
"242 443 OFFCURVE",
"242 421 CURVE SMOOTH",
"242 395 OFFCURVE",
"217 382 OFFCURVE",
"168 382 CURVE SMOOTH",
"131 382 OFFCURVE",
"84 394 OFFCURVE",
"43 422 CURVE",
"43 312 LINE",
"83 287 OFFCURVE",
"126 278 OFFCURVE",
"195 278 CURVE SMOOTH",
"306 278 OFFCURVE",
"380 333 OFFCURVE",
"380 416 CURVE SMOOTH",
"380 459 OFFCURVE",
"359 490 OFFCURVE",
"299 505 CURVE",
"299 509 LINE",
"377 528 OFFCURVE",
"412 562 OFFCURVE",
"412 621 CURVE SMOOTH"
);
},
{
closed = 1;
nodes = (
"173 0 LINE",
"318 0 LINE",
"847 714 LINE",
"705 714 LINE"
);
}
);
width = 949;
}
);
note = threequarters;
unicode = 00BE;
},
{
glyphname = questiondown;
lastChange = "2018-06-23 23:47:21 +0000";
layers = (
{
layerId = "273861F4-9D16-4AA5-A9CF-BC69819DDA51";
paths = (
{
closed = 1;
nodes = (
"191 278 LINE SMOOTH",
"187 264 OFFCURVE",
"178 250 OFFCURVE",
"164 237 CURVE SMOOTH",
"150 224 OFFCURVE",
"127 208 OFFCURVE",
"94 188 CURVE SMOOTH",
"55 164 OFFCURVE",
"26 144 OFFCURVE",
"10 126 CURVE SMOOTH",
"-22 92 OFFCURVE",
"-41 50 OFFCURVE",
"-41 -8 CURVE SMOOTH",
"-41 -111 OFFCURVE",
"42 -173 OFFCURVE",
"173 -173 CURVE SMOOTH",
"249 -173 OFFCURVE",
"324 -151 OFFCURVE",
"398 -107 CURVE",
"340 31 LINE",
"278 -4 OFFCURVE",
"228 -22 OFFCURVE",
"187 -22 CURVE SMOOTH",
"158 -22 OFFCURVE",
"143 -12 OFFCURVE",
"143 12 CURVE SMOOTH",
"143 25 OFFCURVE",
"149 38 OFFCURVE",
"161 50 CURVE SMOOTH",
"173 62 OFFCURVE",
"193 77 OFFCURVE",
"222 96 CURVE SMOOTH",
"253 116 OFFCURVE",
"275 134 OFFCURVE",
"290 149 CURVE SMOOTH",
"319 179 OFFCURVE",
"336 215 OFFCURVE",
"346 268 CURVE SMOOTH",
"352 299 LINE",
"198 299 LINE"
);
},
{
closed = 1;
nodes = (
"391 536 OFFCURVE",
"358 563 OFFCURVE",
"300 563 CURVE SMOOTH",
"229 563 OFFCURVE",
"184 522 OFFCURVE",
"184 451 CURVE SMOOTH",
"184 402 OFFCURVE",
"215 375 OFFCURVE",
"272 375 CURVE SMOOTH",
"346 375 OFFCURVE",
"391 419 OFFCURVE",
"391 489 CURVE SMOOTH"
);
}
);
width = 488;
}
);
note = questiondown;
unicode = 00BF;
},
{
glyphname = AE;
lastChange = "2018-06-23 23:47:21 +0000";
layers = (
{
anchors = (
{
name = bottom;
position = "{415, 0}";
},
{
name = top;
position = "{566, 714}";
}
);
layerId = "273861F4-9D16-4AA5-A9CF-BC69819DDA51";
paths = (
{
closed = 1;
nodes = (
"624 157 LINE",
"652 292 LINE",
"869 292 LINE",
"904 447 LINE",
"687 447 LINE",
"710 559 LINE",
"943 559 LINE",
"975 714 LINE",
"383 714 LINE",
"-61 0 LINE",
"141 0 LINE",
"224 134 LINE",
"428 134 LINE",
"400 0 LINE",
"824 0 LINE",
"857 157 LINE"
);
},
{
closed = 1;
nodes = (
"485 559 LINE",
"518 559 LINE",
"463 294 LINE",
"323 294 LINE"
);
}
);
width = 946;
}
);
note = AE;
unicode = 00C6;
},
{
glyphname = Eth;
lastChange = "2018-06-23 23:47:21 +0000";
layers = (
{
layerId = "273861F4-9D16-4AA5-A9CF-BC69819DDA51";
paths = (
{
closed = 1;
nodes = (
"74 275 LINE",
"16 0 LINE",
"257 0 LINE SMOOTH",
"507 0 OFFCURVE",
"653 161 OFFCURVE",
"653 444 CURVE SMOOTH",
"653 617 OFFCURVE",
"553 714 OFFCURVE",
"377 714 CURVE SMOOTH",
"167 714 LINE",
"107 431 LINE",
"39 431 LINE",
"5 275 LINE"
);
},
{
closed = 1;
nodes = (
"265 275 LINE",
"351 275 LINE",
"385 431 LINE",
"298 431 LINE",
"325 558 LINE",
"360 558 LINE SMOOTH",
"423 558 OFFCURVE",
"460 516 OFFCURVE",
"460 440 CURVE SMOOTH",
"460 385 OFFCURVE",
"452 336 OFFCURVE",
"437 293 CURVE SMOOTH",
"406 207 OFFCURVE",
"347 158 OFFCURVE",
"275 158 CURVE SMOOTH",
"241 158 LINE"
);
}
);
width = 684;
}
);
note = Eth;
unicode = 00D0;
},
{
glyphname = multiply;
lastChange = "2018-06-23 23:47:21 +0000";
layers = (
{
layerId = "273861F4-9D16-4AA5-A9CF-BC69819DDA51";
paths = (
{
closed = 1;
nodes = (
"141 120 LINE",
"282 260 LINE",
"425 119 LINE",
"515 211 LINE",
"375 353 LINE",
"518 496 LINE",
"425 586 LINE",
"282 447 LINE",
"141 586 LINE",
"50 493 LINE",
"189 353 LINE",
"51 212 LINE"
);
}
);
width = 566;
}
);
note = multiply;
unicode = 00D7;
},
{
glyphname = Oslash;
lastChange = "2018-06-23 23:47:21 +0000";
layers = (
{
anchors = (
{
name = bottom;
position = "{310, 0}";
},
{
name = top;
position = "{461, 714}";
}
);
layerId = "273861F4-9D16-4AA5-A9CF-BC69819DDA51";
paths = (
{
closed = 1;
nodes = (
"356 725 OFFCURVE",
"292 706 OFFCURVE",
"235 668 CURVE SMOOTH",
"121 591 OFFCURVE",
"51 436 OFFCURVE",
"51 265 CURVE SMOOTH",
"51 191 OFFCURVE",
"68 132 OFFCURVE",
"103 86 CURVE",
"46 15 LINE",
"124 -42 LINE",
"176 24 LINE",
"219 1 OFFCURVE",
"271 -10 OFFCURVE",
"334 -10 CURVE SMOOTH",
"406 -10 OFFCURVE",
"470 10 OFFCURVE",
"526 49 CURVE SMOOTH",
"638 126 OFFCURVE",
"706 282 OFFCURVE",
"706 450 CURVE SMOOTH",
"706 521 OFFCURVE",
"689 581 OFFCURVE",
"656 627 CURVE",
"704 688 LINE",
"628 746 LINE",
"583 690 LINE",
"540 713 OFFCURVE",
"488 725 OFFCURVE",
"429 725 CURVE SMOOTH"
);
},
{
closed = 1;
nodes = (
"244 321 OFFCURVE",
"252 371 OFFCURVE",
"268 417 CURVE SMOOTH",
"299 510 OFFCURVE",
"355 567 OFFCURVE",
"416 567 CURVE SMOOTH",
"439 567 OFFCURVE",
"458 562 OFFCURVE",
"472 551 CURVE",
"244 263 LINE",
"244 268 LINE SMOOTH"
);
},
{
closed = 1;
nodes = (
"320 148 OFFCURVE",
"301 153 OFFCURVE",
"286 162 CURVE",
"513 447 LINE",
"513 393 OFFCURVE",
"505 342 OFFCURVE",
"490 296 CURVE SMOOTH",
"459 205 OFFCURVE",
"404 148 OFFCURVE",
"342 148 CURVE SMOOTH"
);
}
);
width = 737;
}
);
note = Oslash;
unicode = 00D8;
},
{
glyphname = Thorn;
lastChange = "2018-06-23 23:47:21 +0000";
layers = (
{
anchors = (
{
name = bottom;
position = "{253, 0}";
},
{
name = top;
position = "{404, 714}";
}
);
layerId = "273861F4-9D16-4AA5-A9CF-BC69819DDA51";
paths = (
{
closed = 1;
nodes = (
"207 0 LINE",
"235 134 LINE",
"277 134 LINE SMOOTH",
"472 134 OFFCURVE",
"590 233 OFFCURVE",
"590 396 CURVE SMOOTH",
"590 534 OFFCURVE",
"500 611 OFFCURVE",
"336 611 CURVE",
"358 714 LINE",
"167 714 LINE",
"16 0 LINE"
);
},
{
closed = 1;
nodes = (
"326 455 LINE SMOOTH",
"369 455 OFFCURVE",
"399 428 OFFCURVE",
"399 390 CURVE SMOOTH",
"399 320 OFFCURVE",
"361 290 OFFCURVE",
"300 290 CURVE SMOOTH",
"269 290 LINE",
"304 455 LINE"
);
}
);
width = 623;
}
);
note = Thorn;
unicode = 00DE;
},
{
glyphname = germandbls;
lastChange = "2018-06-23 23:47:21 +0000";
layers = (
{
anchors = (
{
name = bottom;
position = "{298, 0}";
},
{
name = top;
position = "{415, 553}";
}
);
layerId = "273861F4-9D16-4AA5-A9CF-BC69819DDA51";
paths = (
{
closed = 1;
nodes = (
"93 -240 OFFCURVE",
"164 -182 OFFCURVE",
"192 -57 CURVE SMOOTH",
"315 521 LINE SMOOTH",
"328 584 OFFCURVE",
"365 617 OFFCURVE",
"416 617 CURVE SMOOTH",
"465 617 OFFCURVE",
"493 597 OFFCURVE",
"493 559 CURVE SMOOTH",
"493 530 OFFCURVE",
"477 509 OFFCURVE",
"430 483 CURVE SMOOTH",
"350 439 OFFCURVE",
"329 408 OFFCURVE",
"329 348 CURVE SMOOTH",
"329 299 OFFCURVE",
"353 267 OFFCURVE",
"410 230 CURVE SMOOTH",
"441 210 OFFCURVE",
"459 196 OFFCURVE",
"466 189 CURVE SMOOTH",
"472 182 OFFCURVE",
"475 173 OFFCURVE",
"475 163 CURVE SMOOTH",
"475 145 OFFCURVE",
"458 128 OFFCURVE",
"419 128 CURVE SMOOTH",
"382 128 OFFCURVE",
"326 139 OFFCURVE",
"287 158 CURVE",
"287 12 LINE",
"324 -2 OFFCURVE",
"369 -10 OFFCURVE",
"421 -10 CURVE SMOOTH",
"473 -10 OFFCURVE",
"517 -1 OFFCURVE",
"554 15 CURVE SMOOTH",
"626 47 OFFCURVE",
"665 106 OFFCURVE",
"665 182 CURVE SMOOTH",
"665 245 OFFCURVE",
"637 287 OFFCURVE",
"575 320 CURVE SMOOTH",
"553 331 OFFCURVE",
"539 340 OFFCURVE",
"532 348 CURVE",
"525 354 OFFCURVE",
"522 363 OFFCURVE",
"522 372 CURVE SMOOTH",
"522 387 OFFCURVE",
"541 404 OFFCURVE",
"579 422 CURVE SMOOTH",
"651 456 OFFCURVE",
"683 506 OFFCURVE",
"683 583 CURVE SMOOTH",
"683 697 OFFCURVE",
"589 765 OFFCURVE",
"431 765 CURVE SMOOTH",
"256 765 OFFCURVE",
"164 697 OFFCURVE",
"129 535 CURVE SMOOTH",
"10 -27 LINE SMOOTH",
"0 -69 OFFCURVE",
"-21 -88 OFFCURVE",
"-70 -88 CURVE SMOOTH",
"-87 -88 OFFCURVE",
"-106 -85 OFFCURVE",
"-127 -79 CURVE",
"-127 -227 LINE",
"-95 -236 OFFCURVE",
"-62 -240 OFFCURVE",
"-26 -240 CURVE SMOOTH"
);
}
);
width = 713;
}
);
note = germandbls;
unicode = 00DF;
},
{
glyphname = ae;
lastChange = "2018-06-23 23:47:21 +0000";
layers = (
{
anchors = (
{
name = bottom;
position = "{378, 0}";
},
{
name = top;
position = "{495, 553}";
}
);
layerId = "273861F4-9D16-4AA5-A9CF-BC69819DDA51";
paths = (
{
closed = 1;
nodes = (
"653 -10 OFFCURVE",
"701 2 OFFCURVE",
"765 40 CURVE",
"765 174 LINE",
"702 141 OFFCURVE",
"656 126 OFFCURVE",
"605 126 CURVE SMOOTH",
"552 126 OFFCURVE",
"525 150 OFFCURVE",
"525 198 CURVE SMOOTH",
"525 206 LINE",
"554 206 LINE SMOOTH",
"746 206 OFFCURVE",
"851 278 OFFCURVE",
"851 409 CURVE SMOOTH",
"851 501 OFFCURVE",
"784 563 OFFCURVE",
"682 563 CURVE SMOOTH",
"635 563 OFFCURVE",
"583 543 OFFCURVE",
"546 507 CURVE",
"546 553 LINE",
"445 553 LINE",
"419 485 LINE",
"415 485 LINE",
"382 540 OFFCURVE",
"347 563 OFFCURVE",
"287 563 CURVE SMOOTH",
"243 563 OFFCURVE",
"203 547 OFFCURVE",
"167 517 CURVE SMOOTH",
"94 455 OFFCURVE",
"41 318 OFFCURVE",
"41 201 CURVE SMOOTH",
"41 65 OFFCURVE",
"95 -10 OFFCURVE",
"198 -10 CURVE SMOOTH",
"251 -10 OFFCURVE",
"292 9 OFFCURVE",
"329 60 CURVE",
"333 60 LINE",
"328 0 LINE",
"439 0 LINE",
"454 45 LINE",
"481 8 OFFCURVE",
"524 -10 OFFCURVE",
"582 -10 CURVE SMOOTH"
);
},
{
closed = 1;
nodes = (
"248 142 OFFCURVE",
"234 166 OFFCURVE",
"234 212 CURVE SMOOTH",
"234 244 OFFCURVE",
"238 276 OFFCURVE",
"247 308 CURVE SMOOTH",
"265 371 OFFCURVE",
"295 411 OFFCURVE",
"327 411 CURVE SMOOTH",
"354 411 OFFCURVE",
"370 383 OFFCURVE",
"370 341 CURVE SMOOTH",
"370 236 OFFCURVE",
"325 142 OFFCURVE",
"276 142 CURVE SMOOTH"
);
},
{
closed = 1;
nodes = (
"660 435 OFFCURVE",
"672 419 OFFCURVE",
"672 398 CURVE SMOOTH",
"672 354 OFFCURVE",
"629 324 OFFCURVE",
"558 324 CURVE SMOOTH",
"544 324 LINE",
"551 381 OFFCURVE",
"591 435 OFFCURVE",
"631 435 CURVE SMOOTH"
);
}
);
width = 873;
}
);
note = ae;
unicode = 00E6;
},
{
glyphname = eth;
lastChange = "2018-06-23 23:47:21 +0000";
layers = (
{
layerId = "273861F4-9D16-4AA5-A9CF-BC69819DDA51";
paths = (
{
closed = 1;
nodes = (
"216 512 LINE",
"349 574 LINE",
"372 541 OFFCURVE",
"387 500 OFFCURVE",
"393 454 CURVE",
"388 452 LINE",
"364 481 OFFCURVE",
"332 495 OFFCURVE",
"289 495 CURVE SMOOTH",
"240 495 OFFCURVE",
"196 483 OFFCURVE",
"159 459 CURVE SMOOTH",
"83 411 OFFCURVE",
"41 319 OFFCURVE",
"41 208 CURVE SMOOTH",
"41 73 OFFCURVE",
"123 -10 OFFCURVE",
"254 -10 CURVE SMOOTH",
"446 -10 OFFCURVE",
"549 116 OFFCURVE",
"549 350 CURVE SMOOTH",
"549 456 OFFCURVE",
"519 573 OFFCURVE",
"472 630 CURVE",
"562 674 LINE",
"522 755 LINE",
"406 701 LINE",
"375 726 OFFCURVE",
"337 748 OFFCURVE",
"293 768 CURVE",
"237 680 LINE",
"258 664 OFFCURVE",
"274 652 OFFCURVE",
"283 644 CURVE",
"176 594 LINE"
);
},
{
closed = 1;
nodes = (
"244 127 OFFCURVE",
"230 151 OFFCURVE",
"230 199 CURVE SMOOTH",
"230 279 OFFCURVE",
"265 358 OFFCURVE",
"318 358 CURVE SMOOTH",
"349 358 OFFCURVE",
"359 328 OFFCURVE",
"359 279 CURVE SMOOTH",
"359 255 OFFCURVE",
"355 231 OFFCURVE",
"348 207 CURVE SMOOTH",
"332 158 OFFCURVE",
"306 127 OFFCURVE",
"271 127 CURVE SMOOTH"
);
}
);
width = 564;
}
);
note = eth;
unicode = 00F0;
},
{
glyphname = divide;
lastChange = "2018-06-23 23:47:21 +0000";
layers = (
{
layerId = "273861F4-9D16-4AA5-A9CF-BC69819DDA51";
paths = (
{
closed = 1;
nodes = (
"526 419 LINE",
"50 419 LINE",
"50 286 LINE",
"526 286 LINE"
);
},
{
closed = 1;
nodes = (
"211 130 OFFCURVE",
"240 98 OFFCURVE",
"288 98 CURVE SMOOTH",
"335 98 OFFCURVE",
"364 129 OFFCURVE",
"364 182 CURVE SMOOTH",
"364 236 OFFCURVE",
"336 266 OFFCURVE",
"288 266 CURVE SMOOTH",
"239 266 OFFCURVE",
"211 236 OFFCURVE",
"211 182 CURVE SMOOTH"
);
},
{
closed = 1;
nodes = (
"211 471 OFFCURVE",
"240 439 OFFCURVE",
"288 439 CURVE SMOOTH",
"335 439 OFFCURVE",
"364 470 OFFCURVE",
"364 523 CURVE SMOOTH",
"364 577 OFFCURVE",
"336 607 OFFCURVE",
"288 607 CURVE SMOOTH",
"239 607 OFFCURVE",
"211 577 OFFCURVE",
"211 523 CURVE SMOOTH"
);
}
);
width = 566;
}
);
note = divide;
unicode = 00F7;
},
{
glyphname = oslash;
lastChange = "2018-06-23 23:47:21 +0000";
layers = (
{
anchors = (
{
name = top;
position = "{373, 553}";
}
);
layerId = "273861F4-9D16-4AA5-A9CF-BC69819DDA51";
paths = (
{
closed = 1;
nodes = (
"332 -10 OFFCURVE",
"387 6 OFFCURVE",
"436 37 CURVE SMOOTH",
"532 99 OFFCURVE",
"587 215 OFFCURVE",
"587 350 CURVE SMOOTH",
"587 400 OFFCURVE",
"574 444 OFFCURVE",
"547 481 CURVE",
"598 541 LINE",
"536 594 LINE",
"485 535 LINE",
"448 554 OFFCURVE",
"407 563 OFFCURVE",
"363 563 CURVE SMOOTH",
"298 563 OFFCURVE",
"242 548 OFFCURVE",
"193 517 CURVE SMOOTH",
"96 456 OFFCURVE",
"41 338 OFFCURVE",
"41 203 CURVE SMOOTH",
"41 148 OFFCURVE",
"56 101 OFFCURVE",
"87 63 CURVE",
"32 -1 LINE",
"94 -54 LINE",
"152 14 LINE",
"188 -2 OFFCURVE",
"227 -10 OFFCURVE",
"268 -10 CURVE SMOOTH"
);
},
{
closed = 1;
nodes = (
"358 428 OFFCURVE",
"372 423 OFFCURVE",
"383 414 CURVE",
"219 220 LINE",
"220 259 OFFCURVE",
"226 295 OFFCURVE",
"237 327 CURVE SMOOTH",
"259 391 OFFCURVE",
"299 428 OFFCURVE",
"343 428 CURVE SMOOTH"
);
},
{
closed = 1;
nodes = (
"274 127 OFFCURVE",
"262 129 OFFCURVE",
"253 134 CURVE",
"408 317 LINE",
"402 196 OFFCURVE",
"358 127 OFFCURVE",
"288 127 CURVE SMOOTH"
);
}
);
width = 628;
}
);
note = oslash;
unicode = 00F8;
},
{
glyphname = thorn;
lastChange = "2018-06-23 23:47:21 +0000";
layers = (
{
anchors = (
{
name = bottom;
position = "{245, 0}";
},
{
name = top;
position = "{362, 553}";
}
);
layerId = "273861F4-9D16-4AA5-A9CF-BC69819DDA51";
paths = (
{
closed = 1;
nodes = (
"359 411 OFFCURVE",
"373 388 OFFCURVE",
"373 341 CURVE SMOOTH",
"373 308 OFFCURVE",
"369 276 OFFCURVE",
"360 245 CURVE SMOOTH",
"342 182 OFFCURVE",
"311 142 OFFCURVE",
"280 142 CURVE SMOOTH",
"252 142 OFFCURVE",
"237 169 OFFCURVE",
"237 212 CURVE SMOOTH",
"237 245 OFFCURVE",
"241 276 OFFCURVE",
"250 308 CURVE SMOOTH",
"267 371 OFFCURVE",
"298 411 OFFCURVE",
"331 411 CURVE SMOOTH"
);
},
{
closed = 1;
nodes = (
"357 563 OFFCURVE",
"326 539 OFFCURVE",
"297 500 CURVE",
"293 500 LINE",
"310 541 OFFCURVE",
"325 590 OFFCURVE",
"337 647 CURVE SMOOTH",
"361 760 LINE",
"172 760 LINE",
"-40 -240 LINE",
"149 -240 LINE",
"174 -120 LINE SMOOTH",
"188 -53 OFFCURVE",
"197 7 OFFCURVE",
"201 61 CURVE",
"205 61 LINE",
"234 14 OFFCURVE",
"271 -10 OFFCURVE",
"318 -10 CURVE SMOOTH",
"362 -10 OFFCURVE",
"404 6 OFFCURVE",
"441 38 CURVE SMOOTH",
"517 100 OFFCURVE",
"566 227 OFFCURVE",
"566 359 CURVE SMOOTH",
"566 485 OFFCURVE",
"506 563 OFFCURVE",
"408 563 CURVE SMOOTH"
);
}
);
width = 607;
}
);
note = thorn;
unicode = 00FE;
},
{
glyphname = dcroat;
lastChange = "2018-06-23 23:47:21 +0000";
layers = (
{
layerId = "273861F4-9D16-4AA5-A9CF-BC69819DDA51";
paths = (
{
closed = 1;
nodes = (
"291 570 LINE",
"410 570 LINE",
"409 563 LINE",
"403 537 OFFCURVE",
"399 502 OFFCURVE",
"397 457 CURVE SMOOTH",
"396 439 LINE",
"392 439 LINE",
"354 494 OFFCURVE",
"318 513 OFFCURVE",
"268 513 CURVE SMOOTH",
"226 513 OFFCURVE",
"188 499 OFFCURVE",
"153 471 CURVE SMOOTH",
"84 415 OFFCURVE",
"41 309 OFFCURVE",
"41 201 CURVE SMOOTH",
"41 65 OFFCURVE",
"95 -10 OFFCURVE",
"198 -10 CURVE SMOOTH",
"218 -10 OFFCURVE",
"236 -7 OFFCURVE",
"251 -3 CURVE SMOOTH",
"280 6 OFFCURVE",
"298 17 OFFCURVE",
"329 60 CURVE",
"333 60 LINE",
"328 0 LINE",
"479 0 LINE",
"599 570 LINE",
"676 570 LINE",
"701 688 LINE",
"624 688 LINE",
"640 760 LINE",
"449 760 LINE",
"434 688 LINE",
"315 688 LINE"
);
},
{
closed = 1;
nodes = (
"248 142 OFFCURVE",
"234 166 OFFCURVE",
"234 212 CURVE SMOOTH",
"234 291 OFFCURVE",
"271 361 OFFCURVE",
"317 361 CURVE SMOOTH",
"344 361 OFFCURVE",
"360 333 OFFCURVE",
"360 291 CURVE SMOOTH",
"360 207 OFFCURVE",
"326 142 OFFCURVE",
"276 142 CURVE SMOOTH"
);
}
);
width = 604;
}
);
note = dcroat;
unicode = 0111;
},
{
glyphname = Hbar;
lastChange = "2018-06-23 23:47:21 +0000";
layers = (
{
layerId = "273861F4-9D16-4AA5-A9CF-BC69819DDA51";
paths = (
{
closed = 1;
nodes = (
"528 714 LINE",
"512 637 LINE",
"343 637 LINE",
"358 714 LINE",
"167 714 LINE",
"150 637 LINE",
"66 637 LINE",
"43 522 LINE",
"126 522 LINE",
"16 0 LINE",
"207 0 LINE",
"269 290 LINE",
"438 290 LINE",
"377 0 LINE",
"568 0 LINE",
"678 522 LINE",
"763 522 LINE",
"787 637 LINE",
"703 637 LINE",
"719 714 LINE"
);
},
{
closed = 1;
nodes = (
"317 522 LINE",
"487 522 LINE",
"473 449 LINE",
"303 449 LINE"
);
}
);
width = 714;
}
);
note = Hbar;
unicode = 0126;
},
{
glyphname = hbar;
lastChange = "2018-06-23 23:47:21 +0000";
layers = (
{
layerId = "273861F4-9D16-4AA5-A9CF-BC69819DDA51";
paths = (
{
closed = 1;
nodes = (
"477 688 LINE",
"346 688 LINE",
"361 760 LINE",
"172 760 LINE",
"156 688 LINE",
"74 688 LINE",
"49 570 LINE",
"131 570 LINE",
"11 0 LINE",
"200 0 LINE",
"247 220 LINE SMOOTH",
"266 313 OFFCURVE",
"292 363 OFFCURVE",
"337 363 CURVE SMOOTH",
"357 363 OFFCURVE",
"374 350 OFFCURVE",
"374 321 CURVE SMOOTH",
"374 300 OFFCURVE",
"371 277 OFFCURVE",
"365 252 CURVE SMOOTH",
"312 0 LINE",
"501 0 LINE",
"553 244 LINE SMOOTH",
"561 283 OFFCURVE",
"565 320 OFFCURVE",
"565 356 CURVE SMOOTH",
"565 454 OFFCURVE",
"510 513 OFFCURVE",
"419 513 CURVE SMOOTH",
"363 513 OFFCURVE",
"318 492 OFFCURVE",
"286 450 CURVE",
"282 450 LINE",
"298 489 OFFCURVE",
"311 528 OFFCURVE",
"321 570 CURVE",
"452 570 LINE"
);
}
);
width = 622;
}
);
note = hbar;
unicode = 0127;
},
{
glyphname = dotlessi;
lastChange = "2018-06-23 23:47:21 +0000";
layers = (
{
anchors = (
{
name = bottom;
position = "{104, 0}";
},
{
name = ogonek;
position = "{234, 5}";
},
{
name = top;
position = "{221, 553}";
}
);
layerId = "273861F4-9D16-4AA5-A9CF-BC69819DDA51";
paths = (
{
closed = 1;
nodes = (
"128 553 LINE",
"11 0 LINE",
"200 0 LINE",
"318 553 LINE"
);
}
);
width = 325;
}
);
note = dotlessi;
unicode = 0131;
},
{
glyphname = kgreenlandic;
lastChange = "2018-06-23 23:47:21 +0000";
layers = (
{
anchors = (
{
name = bottom;
position = "{250, 0}";
},
{
name = top;
position = "{367, 553}";
}
);
layerId = "273861F4-9D16-4AA5-A9CF-BC69819DDA51";
paths = (
{
closed = 1;
nodes = (
"200 0 LINE",
"234 165 LINE",
"283 191 LINE",
"351 0 LINE",
"565 0 LINE",
"431 303 LINE",
"669 553 LINE",
"453 553 LINE",
"337 425 LINE SMOOTH",
"312 398 OFFCURVE",
"287 366 OFFCURVE",
"261 327 CURVE",
"257 327 LINE",
"266 348 OFFCURVE",
"284 403 OFFCURVE",
"291 436 CURVE SMOOTH",
"316 553 LINE",
"127 553 LINE",
"11 0 LINE"
);
}
);
width = 617;
}
);
note = kgreenlandic;
unicode = 0138;
},
{
glyphname = Lslash;
lastChange = "2018-06-23 23:47:21 +0000";
layers = (
{
layerId = "273861F4-9D16-4AA5-A9CF-BC69819DDA51";
paths = (
{
closed = 1;
nodes = (
"-23 336 LINE",
"38 218 LINE",
"76 237 LINE",
"26 0 LINE",
"450 0 LINE",
"483 156 LINE",
"250 156 LINE",
"288 338 LINE",
"472 434 LINE",
"408 553 LINE",
"324 509 LINE",
"368 714 LINE",
"177 714 LINE",
"111 407 LINE"
);
}
);
width = 537;
}
);
note = Lslash;
unicode = 0141;
},
{
glyphname = lslash;
lastChange = "2018-06-23 23:47:21 +0000";
layers = (
{
layerId = "273861F4-9D16-4AA5-A9CF-BC69819DDA51";
paths = (
{
closed = 1;
nodes = (
"187 760 LINE",
"102 358 LINE",
"-24 293 LINE",
"28 184 LINE",
"70 205 LINE",
"26 0 LINE",
"215 0 LINE",
"278 300 LINE",
"410 366 LINE",
"353 475 LINE",
"311 454 LINE",
"376 760 LINE"
);
}
);
width = 355;
}
);
note = lslash;
unicode = 0142;
},
{
glyphname = Eng;
lastChange = "2018-06-23 23:47:21 +0000";
layers = (
{
layerId = "273861F4-9D16-4AA5-A9CF-BC69819DDA51";
paths = (
{
closed = 1;
nodes = (
"526 -225 OFFCURVE",
"609 -162 OFFCURVE",
"644 0 CURVE SMOOTH",
"795 714 LINE",
"625 714 LINE",
"584 525 OFFCURVE",
"561 414 OFFCURVE",
"555 379 CURVE SMOOTH",
"548 344 OFFCURVE",
"543 313 OFFCURVE",
"540 288 CURVE",
"536 288 LINE",
"377 714 LINE",
"167 714 LINE",
"16 0 LINE",
"186 0 LINE",
"249 298 LINE SMOOTH",
"258 339 OFFCURVE",
"268 407 OFFCURVE",
"277 502 CURVE",
"281 502 LINE",
"469 4 LINE",
"456 -43 OFFCURVE",
"416 -73 OFFCURVE",
"353 -73 CURVE SMOOTH",
"322 -73 OFFCURVE",
"291 -69 OFFCURVE",
"260 -61 CURVE",
"260 -211 LINE",
"294 -220 OFFCURVE",
"329 -225 OFFCURVE",
"364 -225 CURVE SMOOTH"
);
}
);
width = 790;
}
);
note = Eng;
unicode = 014A;
},
{
glyphname = eng;
lastChange = "2018-06-23 23:47:21 +0000";
layers = (
{
layerId = "273861F4-9D16-4AA5-A9CF-BC69819DDA51";
paths = (
{
closed = 1;
nodes = (
"387 -240 OFFCURVE",
"465 -171 OFFCURVE",
"491 -46 CURVE SMOOTH",
"563 294 LINE SMOOTH",
"571 334 OFFCURVE",
"575 371 OFFCURVE",
"575 406 CURVE SMOOTH",
"575 504 OFFCURVE",
"521 563 OFFCURVE",
"429 563 CURVE SMOOTH",
"359 563 OFFCURVE",
"313 538 OFFCURVE",
"277 476 CURVE",
"273 476 LINE",
"279 553 LINE",
"128 553 LINE",
"11 0 LINE",
"200 0 LINE",
"257 270 LINE SMOOTH",
"277 365 OFFCURVE",
"307 413 OFFCURVE",
"347 413 CURVE SMOOTH",
"367 413 OFFCURVE",
"384 399 OFFCURVE",
"384 371 CURVE SMOOTH",
"384 350 OFFCURVE",
"381 327 OFFCURVE",
"375 302 CURVE SMOOTH",
"308 -16 LINE SMOOTH",
"297 -64 OFFCURVE",
"269 -88 OFFCURVE",
"223 -88 CURVE SMOOTH",
"205 -88 OFFCURVE",
"186 -85 OFFCURVE",
"168 -79 CURVE",
"168 -227 LINE",
"200 -236 OFFCURVE",
"233 -240 OFFCURVE",
"269 -240 CURVE SMOOTH"
);
}
);
width = 622;
}
);
note = eng;
unicode = 014B;
},
{
glyphname = OE;
lastChange = "2018-06-23 23:47:21 +0000";
layers = (
{
anchors = (
{
name = bottom;
position = "{408, 0}";
},
{
name = top;
position = "{559, 714}";
}
);
layerId = "273861F4-9D16-4AA5-A9CF-BC69819DDA51";
paths = (
{
closed = 1;
nodes = (
"609 158 LINE",
"637 291 LINE",
"854 291 LINE",
"889 448 LINE",
"672 448 LINE",
"695 558 LINE",
"928 558 LINE",
"961 714 LINE",
"534 714 LINE",
"502 721 OFFCURVE",
"472 725 OFFCURVE",
"441 725 CURVE SMOOTH",
"326 725 OFFCURVE",
"229 680 OFFCURVE",
"160 596 CURVE SMOOTH",
"91 511 OFFCURVE",
"51 385 OFFCURVE",
"51 258 CURVE SMOOTH",
"51 92 OFFCURVE",
"149 -10 OFFCURVE",
"316 -10 CURVE SMOOTH",
"346 -10 OFFCURVE",
"378 -6 OFFCURVE",
"412 0 CURVE",
"810 0 LINE",
"842 158 LINE"
);
},
{
closed = 1;
nodes = (
"274 151 OFFCURVE",
"244 186 OFFCURVE",
"244 257 CURVE SMOOTH",
"244 311 OFFCURVE",
"252 361 OFFCURVE",
"269 409 CURVE SMOOTH",
"302 505 OFFCURVE",
"362 567 OFFCURVE",
"425 567 CURVE SMOOTH",
"458 567 OFFCURVE",
"483 559 OFFCURVE",
"500 543 CURVE",
"421 171 LINE",
"394 158 OFFCURVE",
"364 151 OFFCURVE",
"333 151 CURVE SMOOTH"
);
}
);
width = 932;
}
);
note = OE;
unicode = 0152;
},
{
glyphname = oe;
lastChange = "2018-06-23 23:47:21 +0000";
layers = (
{
anchors = (
{
name = bottom;
position = "{381, 0}";
},
{
name = top;
position = "{499, 553}";
}
);
layerId = "273861F4-9D16-4AA5-A9CF-BC69819DDA51";
paths = (
{
closed = 1;
nodes = (
"643 -10 OFFCURVE",
"698 2 OFFCURVE",
"772 40 CURVE",
"772 174 LINE",
"709 141 OFFCURVE",
"663 126 OFFCURVE",
"612 126 CURVE SMOOTH",
"559 126 OFFCURVE",
"532 150 OFFCURVE",
"532 198 CURVE SMOOTH",
"532 206 LINE",
"561 206 LINE SMOOTH",
"752 206 OFFCURVE",
"858 277 OFFCURVE",
"858 409 CURVE SMOOTH",
"858 502 OFFCURVE",
"782 563 OFFCURVE",
"659 563 CURVE SMOOTH",
"584 563 OFFCURVE",
"524 542 OFFCURVE",
"477 502 CURVE",
"448 542 OFFCURVE",
"403 563 OFFCURVE",
"342 563 CURVE SMOOTH",
"283 563 OFFCURVE",
"231 548 OFFCURVE",
"186 518 CURVE SMOOTH",
"96 457 OFFCURVE",
"41 339 OFFCURVE",
"41 203 CURVE SMOOTH",
"41 66 OFFCURVE",
"118 -10 OFFCURVE",
"254 -10 CURVE SMOOTH",
"322 -10 OFFCURVE",
"376 8 OFFCURVE",
"417 45 CURVE",
"447 8 OFFCURVE",
"495 -10 OFFCURVE",
"561 -10 CURVE SMOOTH"
);
},
{
closed = 1;
nodes = (
"357 421 OFFCURVE",
"373 399 OFFCURVE",
"373 356 CURVE SMOOTH",
"373 238 OFFCURVE",
"328 132 OFFCURVE",
"275 132 CURVE SMOOTH",
"248 132 OFFCURVE",
"234 153 OFFCURVE",
"234 197 CURVE SMOOTH",
"234 314 OFFCURVE",
"278 421 OFFCURVE",
"331 421 CURVE SMOOTH"
);
},
{
closed = 1;
nodes = (
"666 435 OFFCURVE",
"679 419 OFFCURVE",
"679 398 CURVE SMOOTH",
"679 353 OFFCURVE",
"637 324 OFFCURVE",
"565 324 CURVE SMOOTH",
"551 324 LINE",
"560 383 OFFCURVE",
"599 435 OFFCURVE",
"638 435 CURVE SMOOTH"
);
}
);
width = 880;
}
);
note = oe;
unicode = 0153;
},
{
glyphname = Tbar;
lastChange = "2018-06-23 23:47:21 +0000";
layers = (
{
layerId = "273861F4-9D16-4AA5-A9CF-BC69819DDA51";
paths = (
{
closed = 1;
nodes = (
"577 556 LINE",
"612 714 LINE",
"110 714 LINE",
"76 556 LINE",
"231 556 LINE",
"203 421 LINE",
"103 421 LINE",
"70 265 LINE",
"170 265 LINE",
"115 0 LINE",
"306 0 LINE",
"361 265 LINE",
"461 265 LINE",
"495 421 LINE",
"394 421 LINE",
"422 556 LINE"
);
}
);
width = 552;
}
);
note = Tbar;
unicode = 0166;
},
{
glyphname = tbar;
lastChange = "2018-06-23 23:47:21 +0000";
layers = (
{
layerId = "273861F4-9D16-4AA5-A9CF-BC69819DDA51";
paths = (
{
closed = 1;
nodes = (
"251 141 OFFCURVE",
"244 147 OFFCURVE",
"244 165 CURVE SMOOTH",
"244 172 OFFCURVE",
"247 187 OFFCURVE",
"251 209 CURVE",
"252 216 LINE",
"374 216 LINE",
"399 334 LINE",
"278 334 LINE",
"295 410 LINE",
"436 410 LINE",
"467 553 LINE",
"326 553 LINE",
"349 663 LINE",
"223 663 LINE",
"157 547 LINE",
"51 504 LINE",
"31 410 LINE",
"106 410 LINE",
"89 334 LINE",
"36 334 LINE",
"11 216 LINE",
"64 216 LINE",
"55 167 OFFCURVE",
"50 133 OFFCURVE",
"50 116 CURVE SMOOTH",
"50 30 OFFCURVE",
"95 -10 OFFCURVE",
"202 -10 CURVE SMOOTH",
"267 -10 OFFCURVE",
"321 1 OFFCURVE",
"364 22 CURVE",
"364 162 LINE",
"332 149 OFFCURVE",
"295 141 OFFCURVE",
"275 141 CURVE SMOOTH"
);
}
);
width = 457;
}
);
note = tbar;
unicode = 0167;
},
{
glyphname = longs;
lastChange = "2018-06-23 23:47:21 +0000";
layers = (
{
anchors = (
{
name = bottom;
position = "{125, 0}";
},
{
name = top;
position = "{242, 553}";
}
);
layerId = "273861F4-9D16-4AA5-A9CF-BC69819DDA51";
paths = (
{
closed = 1;
nodes = (
"101 -240 OFFCURVE",
"172 -182 OFFCURVE",
"200 -57 CURVE SMOOTH",
"333 564 LINE SMOOTH",
"340 595 OFFCURVE",
"359 613 OFFCURVE",
"384 613 CURVE SMOOTH",
"403 613 OFFCURVE",
"423 608 OFFCURVE",
"443 598 CURVE",
"495 737 LINE",
"457 756 OFFCURVE",
"411 765 OFFCURVE",
"357 765 CURVE SMOOTH",
"245 765 OFFCURVE",
"178 712 OFFCURVE",
"151 587 CURVE SMOOTH",
"18 -27 LINE SMOOTH",
"9 -69 OFFCURVE",
"-14 -88 OFFCURVE",
"-62 -88 CURVE SMOOTH",
"-80 -88 OFFCURVE",
"-99 -85 OFFCURVE",
"-119 -79 CURVE",
"-119 -227 LINE",
"-87 -236 OFFCURVE",
"-54 -240 OFFCURVE",
"-18 -240 CURVE SMOOTH"
);
}
);
width = 367;
}
);
note = longs;
unicode = 017F;
},
{
glyphname = florin;
lastChange = "2018-06-23 23:47:21 +0000";
layers = (
{
layerId = "273861F4-9D16-4AA5-A9CF-BC69819DDA51";
paths = (
{
closed = 1;
nodes = (
"192 -240 OFFCURVE",
"269 -177 OFFCURVE",
"294 -57 CURVE SMOOTH",
"383 360 LINE",
"484 360 LINE",
"516 505 LINE",
"414 505 LINE",
"423 543 LINE SMOOTH",
"428 564 OFFCURVE",
"442 574 OFFCURVE",
"465 574 CURVE SMOOTH",
"485 574 OFFCURVE",
"506 569 OFFCURVE",
"528 558 CURVE",
"579 696 LINE",
"540 715 OFFCURVE",
"497 724 OFFCURVE",
"449 724 CURVE SMOOTH",
"328 724 OFFCURVE",
"263 667 OFFCURVE",
"235 546 CURVE SMOOTH",
"225 503 LINE",
"138 459 LINE",
"119 360 LINE",
"193 360 LINE",
"112 -25 LINE SMOOTH",
"104 -65 OFFCURVE",
"77 -86 OFFCURVE",
"31 -86 CURVE SMOOTH",
"11 -86 OFFCURVE",
"-8 -83 OFFCURVE",
"-26 -77 CURVE",
"-26 -227 LINE",
"6 -236 OFFCURVE",
"40 -240 OFFCURVE",
"75 -240 CURVE SMOOTH"
);
}
);
width = 580;
}
);
note = florin;
unicode = 0192;
},
{
glyphname = Aringacute;
lastChange = "2018-06-23 23:47:21 +0000";
layers = (
{
layerId = "273861F4-9D16-4AA5-A9CF-BC69819DDA51";
paths = (
{
closed = 1;
nodes = (
"560 799 OFFCURVE",
"506 850 OFFCURVE",
"429 850 CURVE SMOOTH",
"350 850 OFFCURVE",
"298 800 OFFCURVE",
"298 726 CURVE SMOOTH",
"298 709 OFFCURVE",
"300 694 OFFCURVE",
"304 682 CURVE",
"-59 0 LINE",
"139 0 LINE",
"200 134 LINE",
"415 134 LINE",
"424 0 LINE",
"610 0 LINE",
"531 652 LINE",
"548 669 OFFCURVE",
"560 698 OFFCURVE",
"560 727 CURVE SMOOTH"
);
},
{
closed = 1;
nodes = (
"393 514 OFFCURVE",
"394 480 OFFCURVE",
"396 435 CURVE",
"409 286 LINE",
"270 286 LINE",
"364 477 LINE",
"375 503 LINE",
"388 538 LINE",
"393 538 LINE"
);
},
{
closed = 1;
nodes = (
"508 875 LINE",
"585 900 OFFCURVE",
"642 926 OFFCURVE",
"678 954 CURVE",
"678 958 LINE",
"470 958 LINE",
"444 933 OFFCURVE",
"412 907 OFFCURVE",
"372 880 CURVE",
"372 875 LINE"
);
},
{
closed = 1;
nodes = (
"472 703 OFFCURVE",
"453 685 OFFCURVE",
"428 685 CURVE SMOOTH",
"401 685 OFFCURVE",
"386 702 OFFCURVE",
"386 726 CURVE SMOOTH",
"386 751 OFFCURVE",
"406 768 OFFCURVE",
"429 768 CURVE SMOOTH",
"452 768 OFFCURVE",
"472 751 OFFCURVE",
"472 726 CURVE SMOOTH"
);
}
);
width = 676;
}
);
note = Aringacute;
unicode = 01FA;
},
{
glyphname = aringacute;
lastChange = "2018-06-23 23:47:21 +0000";
layers = (
{
layerId = "273861F4-9D16-4AA5-A9CF-BC69819DDA51";
paths = (
{
closed = 1;
nodes = (
"466 864 LINE",
"531 885 OFFCURVE",
"606 922 OFFCURVE",
"645 952 CURVE",
"645 958 LINE",
"436 958 LINE",
"407 929 OFFCURVE",
"372 899 OFFCURVE",
"330 869 CURVE",
"330 864 LINE"
);
},
{
closed = 1;
nodes = (
"500 782 OFFCURVE",
"446 833 OFFCURVE",
"369 833 CURVE SMOOTH",
"290 833 OFFCURVE",
"238 783 OFFCURVE",
"238 709 CURVE SMOOTH",
"238 634 OFFCURVE",
"291 586 OFFCURVE",
"369 586 CURVE SMOOTH",
"447 586 OFFCURVE",
"500 636 OFFCURVE",
"500 710 CURVE SMOOTH"
);
},
{
closed = 1;
nodes = (
"412 687 OFFCURVE",
"395 668 OFFCURVE",
"369 668 CURVE SMOOTH",
"342 668 OFFCURVE",
"326 685 OFFCURVE",
"326 709 CURVE SMOOTH",
"326 734 OFFCURVE",
"346 751 OFFCURVE",
"369 751 CURVE SMOOTH",
"392 751 OFFCURVE",
"412 734 OFFCURVE",
"412 709 CURVE SMOOTH"
);
},
{
closed = 1;
nodes = (
"248 142 OFFCURVE",
"234 166 OFFCURVE",
"234 212 CURVE SMOOTH",
"234 313 OFFCURVE",
"282 411 OFFCURVE",
"331 411 CURVE SMOOTH",
"358 411 OFFCURVE",
"371 383 OFFCURVE",
"371 341 CURVE SMOOTH",
"371 310 OFFCURVE",
"367 279 OFFCURVE",
"358 247 CURVE SMOOTH",
"340 183 OFFCURVE",
"309 142 OFFCURVE",
"276 142 CURVE SMOOTH"
);
},
{
closed = 1;
nodes = (
"445 553 LINE",
"419 485 LINE",
"415 485 LINE",
"382 540 OFFCURVE",
"342 563 OFFCURVE",
"287 563 CURVE SMOOTH",
"243 563 OFFCURVE",
"203 547 OFFCURVE",
"167 517 CURVE SMOOTH",
"94 455 OFFCURVE",
"41 318 OFFCURVE",
"41 201 CURVE SMOOTH",
"41 65 OFFCURVE",
"95 -10 OFFCURVE",
"198 -10 CURVE SMOOTH",
"251 -10 OFFCURVE",
"292 9 OFFCURVE",
"329 60 CURVE",
"333 60 LINE",
"328 0 LINE",
"479 0 LINE",
"596 553 LINE"
);
}
);
width = 607;
}
);
note = aringacute;
unicode = 01FB;
},
{
glyphname = circumflex;
lastChange = "2018-06-23 23:47:21 +0000";
layers = (
{
layerId = "273861F4-9D16-4AA5-A9CF-BC69819DDA51";
paths = (
{
closed = 1;
nodes = (
"548 660 OFFCURVE",
"510 728 OFFCURVE",
"493 766 CURVE",
"275 766 LINE",
"244 732 OFFCURVE",
"175 664 OFFCURVE",
"124 617 CURVE",
"124 606 LINE",
"258 606 LINE",
"291 627 OFFCURVE",
"330 655 OFFCURVE",
"375 691 CURVE",
"411 647 OFFCURVE",
"436 619 OFFCURVE",
"451 606 CURVE",
"581 606 LINE",
"581 617 LINE"
);
}
);
width = 554;
}
);
note = circumflex;
unicode = 02C6;
},
{
glyphname = caron;
lastChange = "2018-06-23 23:47:21 +0000";
layers = (
{
layerId = "273861F4-9D16-4AA5-A9CF-BC69819DDA51";
paths = (
{
closed = 1;
nodes = (
"181 724 OFFCURVE",
"225 652 OFFCURVE",
"245 606 CURVE",
"463 606 LINE",
"520 668 OFFCURVE",
"570 718 OFFCURVE",
"614 755 CURVE",
"614 766 LINE",
"480 766 LINE",
"447 745 OFFCURVE",
"408 717 OFFCURVE",
"363 681 CURVE",
"326 726 OFFCURVE",
"301 754 OFFCURVE",
"287 766 CURVE",
"157 766 LINE",
"157 755 LINE"
);
}
);
width = 554;
}
);
note = caron;
unicode = 02C7;
},
{
glyphname = macron;
lastChange = "2018-06-23 23:47:21 +0000";
layers = (
{
layerId = "273861F4-9D16-4AA5-A9CF-BC69819DDA51";
paths = (
{
closed = 1;
nodes = (
"507 606 LINE",
"531 721 LINE",
"206 721 LINE",
"181 606 LINE"
);
}
);
width = 535;
}
);
note = macron;
unicode = 02C9;
},
{
glyphname = breve;
lastChange = "2018-06-23 23:47:21 +0000";
layers = (
{
layerId = "273861F4-9D16-4AA5-A9CF-BC69819DDA51";
paths = (
{
closed = 1;
nodes = (
"469 746 OFFCURVE",
"440 724 OFFCURVE",
"385 724 CURVE SMOOTH",
"336 724 OFFCURVE",
"305 745 OFFCURVE",
"305 787 CURVE",
"199 787 LINE",
"196 781 OFFCURVE",
"195 772 OFFCURVE",
"195 760 CURVE SMOOTH",
"195 664 OFFCURVE",
"260 606 OFFCURVE",
"369 606 CURVE SMOOTH",
"499 606 OFFCURVE",
"571 665 OFFCURVE",
"591 787 CURVE",
"483 787 LINE"
);
}
);
width = 554;
}
);
note = breve;
unicode = 02D8;
},
{
glyphname = dotaccent;
lastChange = "2018-06-23 23:47:21 +0000";
layers = (
{
layerId = "273861F4-9D16-4AA5-A9CF-BC69819DDA51";
paths = (
{
closed = 1;
nodes = (
"156 629 OFFCURVE",
"184 606 OFFCURVE",
"249 606 CURVE SMOOTH",
"323 606 OFFCURVE",
"360 640 OFFCURVE",
"360 708 CURVE SMOOTH",
"360 752 OFFCURVE",
"329 777 OFFCURVE",
"267 777 CURVE SMOOTH",
"193 777 OFFCURVE",
"156 743 OFFCURVE",
"156 675 CURVE SMOOTH"
);
}
);
width = 332;
}
);
note = dotaccent;
unicode = 02D9;
},
{
glyphname = ring;
lastChange = "2018-06-23 23:47:21 +0000";
layers = (
{
layerId = "273861F4-9D16-4AA5-A9CF-BC69819DDA51";
paths = (
{
closed = 1;
nodes = (
"517 800 OFFCURVE",
"463 851 OFFCURVE",
"386 851 CURVE SMOOTH",
"307 851 OFFCURVE",
"255 801 OFFCURVE",
"255 727 CURVE SMOOTH",
"255 652 OFFCURVE",
"308 604 OFFCURVE",
"386 604 CURVE SMOOTH",
"464 604 OFFCURVE",
"517 654 OFFCURVE",
"517 728 CURVE SMOOTH"
);
},
{
closed = 1;
nodes = (
"429 705 OFFCURVE",
"412 686 OFFCURVE",
"386 686 CURVE SMOOTH",
"359 686 OFFCURVE",
"343 703 OFFCURVE",
"343 727 CURVE SMOOTH",
"343 752 OFFCURVE",
"363 769 OFFCURVE",
"386 769 CURVE SMOOTH",
"409 769 OFFCURVE",
"429 752 OFFCURVE",
"429 727 CURVE SMOOTH"
);
}
);
width = 577;
}
);
note = ring;
unicode = 02DA;
},
{
glyphname = ogonek;
lastChange = "2018-06-23 23:47:21 +0000";
layers = (
{
layerId = "273861F4-9D16-4AA5-A9CF-BC69819DDA51";
paths = (
{
closed = 1;
nodes = (
"-63 -49 OFFCURVE",
"-93 -94 OFFCURVE",
"-93 -151 CURVE SMOOTH",
"-93 -213 OFFCURVE",
"-45 -256 OFFCURVE",
"29 -256 CURVE SMOOTH",
"63 -256 OFFCURVE",
"95 -251 OFFCURVE",
"126 -241 CURVE",
"126 -133 LINE",
"103 -141 OFFCURVE",
"84 -145 OFFCURVE",
"69 -145 CURVE SMOOTH",
"52 -145 OFFCURVE",
"43 -133 OFFCURVE",
"43 -120 CURVE SMOOTH",
"43 -98 OFFCURVE",
"54 -77 OFFCURVE",
"74 -55 CURVE SMOOTH",
"84 -44 OFFCURVE",
"104 -26 OFFCURVE",
"136 0 CURVE",
"13 0 LINE"
);
}
);
width = 221;
}
);
note = ogonek;
unicode = 02DB;
},
{
glyphname = tilde;
lastChange = "2018-06-23 23:47:21 +0000";
layers = (
{
layerId = "273861F4-9D16-4AA5-A9CF-BC69819DDA51";
paths = (
{
closed = 1;
nodes = (
"517 605 OFFCURVE",
"567 660 OFFCURVE",
"589 772 CURVE",
"496 772 LINE",
"484 739 OFFCURVE",
"465 723 OFFCURVE",
"440 723 CURVE SMOOTH",
"419 723 OFFCURVE",
"395 736 OFFCURVE",
"375 747 CURVE SMOOTH",
"330 771 OFFCURVE",
"322 771 OFFCURVE",
"300 771 CURVE SMOOTH",
"216 771 OFFCURVE",
"168 716 OFFCURVE",
"147 604 CURVE",
"239 604 LINE",
"243 634 OFFCURVE",
"266 653 OFFCURVE",
"286 653 CURVE SMOOTH",
"304 653 OFFCURVE",
"324 646 OFFCURVE",
"348 631 CURVE",
"354 628 OFFCURVE",
"361 624 OFFCURVE",
"371 620 CURVE SMOOTH",
"390 610 OFFCURVE",
"411 605 OFFCURVE",
"432 605 CURVE SMOOTH"
);
}
);
width = 554;
}
);
note = tilde;
unicode = 02DC;
},
{
glyphname = hungarumlaut;
lastChange = "2018-06-23 23:47:21 +0000";
layers = (
{
layerId = "273861F4-9D16-4AA5-A9CF-BC69819DDA51";
paths = (
{
closed = 1;
nodes = (
"313 683 OFFCURVE",
"376 733 OFFCURVE",
"390 756 CURVE",
"390 766 LINE",
"209 766 LINE",
"187 727 OFFCURVE",
"132 655 OFFCURVE",
"103 620 CURVE",
"103 606 LINE",
"202 606 LINE"
);
},
{
closed = 1;
nodes = (
"535 680 OFFCURVE",
"596 729 OFFCURVE",
"612 756 CURVE",
"612 766 LINE",
"430 766 LINE",
"417 741 OFFCURVE",
"391 703 OFFCURVE",
"353 653 CURVE SMOOTH",
"329 620 LINE",
"329 606 LINE",
"428 606 LINE"
);
}
);
width = 554;
}
);
note = hungarumlaut;
unicode = 02DD;
},
{
glyphname = tonos;
lastChange = "2018-06-23 23:47:21 +0000";
layers = (
{
anchors = (
{
name = _top;
position = "{344, 553}";
}
);
layerId = "273861F4-9D16-4AA5-A9CF-BC69819DDA51";
paths = (
{
closed = 1;
nodes = (
"370 606 LINE",
"383 623 OFFCURVE",
"396 638 OFFCURVE",
"407 653 CURVE SMOOTH",
"429 683 OFFCURVE",
"448 712 OFFCURVE",
"466 741 CURVE SMOOTH",
"476 755 OFFCURVE",
"485 770 OFFCURVE",
"494 784 CURVE",
"494 796 LINE",
"324 796 LINE",
"306 735 OFFCURVE",
"274 653 OFFCURVE",
"257 618 CURVE",
"257 606 LINE"
);
}
);
width = 548;
}
);
note = tonos;
unicode = 0384;
},
{
glyphname = dieresistonos;
lastChange = "2018-06-23 23:47:21 +0000";
layers = (
{
anchors = (
{
name = _top;
position = "{333, 553}";
}
);
layerId = "273861F4-9D16-4AA5-A9CF-BC69819DDA51";
paths = (
{
closed = 1;
nodes = (
"129 633 OFFCURVE",
"152 614 OFFCURVE",
"201 614 CURVE SMOOTH",
"258 614 OFFCURVE",
"287 645 OFFCURVE",
"287 706 CURVE SMOOTH",
"287 747 OFFCURVE",
"263 767 OFFCURVE",
"215 767 CURVE SMOOTH",
"158 767 OFFCURVE",
"129 737 OFFCURVE",
"129 676 CURVE SMOOTH"
);
},
{
closed = 1;
nodes = (
"454 632 OFFCURVE",
"479 614 OFFCURVE",
"526 614 CURVE SMOOTH",
"583 614 OFFCURVE",
"612 645 OFFCURVE",
"612 706 CURVE SMOOTH",
"612 747 OFFCURVE",
"588 767 OFFCURVE",
"540 767 CURVE SMOOTH",
"483 767 OFFCURVE",
"454 737 OFFCURVE",
"454 676 CURVE SMOOTH"
);
},
{
closed = 1;
nodes = (
"397 678 LINE",
"448 743 OFFCURVE",
"474 783 OFFCURVE",
"499 828 CURVE",
"499 838 LINE",
"353 838 LINE",
"343 792 OFFCURVE",
"323 729 OFFCURVE",
"305 688 CURVE",
"305 678 LINE"
);
}
);
width = 548;
}
);
note = dieresistonos;
unicode = 0385;
},
{
glyphname = Gamma;
lastChange = "2018-06-23 23:47:21 +0000";
layers = (
{
layerId = "273861F4-9D16-4AA5-A9CF-BC69819DDA51";
paths = (
{
closed = 1;
nodes = (
"555 558 LINE",
"588 714 LINE",
"167 714 LINE",
"16 0 LINE",
"207 0 LINE",
"325 558 LINE"
);
}
);
width = 527;
}
);
note = Gamma;
unicode = 0393;
},
{
glyphname = Theta;
lastChange = "2018-06-23 23:47:21 +0000";
layers = (
{
layerId = "273861F4-9D16-4AA5-A9CF-BC69819DDA51";
paths = (
{
closed = 1;
nodes = (
"285 286 LINE",
"474 286 LINE",
"508 436 LINE",
"319 436 LINE"
);
},
{
closed = 1;
nodes = (
"370 725 OFFCURVE",
"303 707 OFFCURVE",
"244 669 CURVE SMOOTH",
"126 594 OFFCURVE",
"51 441 OFFCURVE",
"51 281 CURVE SMOOTH",
"51 93 OFFCURVE",
"153 -10 OFFCURVE",
"347 -10 CURVE SMOOTH",
"421 -10 OFFCURVE",
"487 9 OFFCURVE",
"545 47 CURVE SMOOTH",
"663 124 OFFCURVE",
"736 277 OFFCURVE",
"736 441 CURVE SMOOTH",
"736 623 OFFCURVE",
"633 725 OFFCURVE",
"446 725 CURVE SMOOTH"
);
},
{
closed = 1;
nodes = (
"543 384 OFFCURVE",
"535 334 OFFCURVE",
"519 290 CURVE SMOOTH",
"487 200 OFFCURVE",
"425 148 OFFCURVE",
"353 148 CURVE SMOOTH",
"280 148 OFFCURVE",
"244 188 OFFCURVE",
"244 276 CURVE SMOOTH",
"244 326 OFFCURVE",
"252 375 OFFCURVE",
"270 420 CURVE SMOOTH",
"303 512 OFFCURVE",
"365 567 OFFCURVE",
"435 567 CURVE SMOOTH",
"503 567 OFFCURVE",
"543 516 OFFCURVE",
"543 437 CURVE SMOOTH"
);
}
);
width = 767;
}
);
note = Theta;
unicode = 0398;
},
{
glyphname = Lambda;
lastChange = "2018-06-23 23:47:21 +0000";
layers = (
{
layerId = "273861F4-9D16-4AA5-A9CF-BC69819DDA51";
paths = (
{
closed = 1;
nodes = (
"334 437 OFFCURVE",
"354 498 OFFCURVE",
"364 541 CURVE",
"368 541 LINE",
"363 509 OFFCURVE",
"360 467 OFFCURVE",
"360 416 CURVE SMOOTH",
"360 386 LINE",
"361 347 LINE",
"374 0 LINE",
"561 0 LINE",
"509 714 LINE",
"296 714 LINE",
"-57 0 LINE",
"145 0 LINE",
"315 393 LINE SMOOTH"
);
}
);
width = 617;
}
);
note = Lambda;
unicode = 039B;
},
{
glyphname = Xi;
lastChange = "2018-06-23 23:47:21 +0000";
layers = (
{
layerId = "273861F4-9D16-4AA5-A9CF-BC69819DDA51";
paths = (
{
closed = 1;
nodes = (
"464 292 LINE",
"499 447 LINE",
"115 447 LINE",
"79 292 LINE"
);
},
{
closed = 1;
nodes = (
"552 559 LINE",
"585 714 LINE",
"140 714 LINE",
"107 559 LINE"
);
},
{
closed = 1;
nodes = (
"-20 0 LINE",
"453 0 LINE",
"485 157 LINE",
"11 157 LINE"
);
}
);
width = 556;
}
);
note = Xi;
unicode = 039E;
},
{
glyphname = Pi;
lastChange = "2018-06-23 23:47:21 +0000";
layers = (
{
layerId = "273861F4-9D16-4AA5-A9CF-BC69819DDA51";
paths = (
{
closed = 1;
nodes = (
"167 714 LINE",
"16 0 LINE",
"207 0 LINE",
"324 556 LINE",
"493 556 LINE",
"377 0 LINE",
"568 0 LINE",
"719 714 LINE"
);
}
);
width = 714;
}
);
note = Pi;
unicode = 03A0;
},
{
glyphname = Sigma;
lastChange = "2018-06-23 23:47:21 +0000";
layers = (
{
layerId = "273861F4-9D16-4AA5-A9CF-BC69819DDA51";
paths = (
{
closed = 1;
nodes = (
"496 156 LINE",
"244 156 LINE",
"458 360 LINE",
"316 558 LINE",
"554 558 LINE",
"587 714 LINE",
"126 714 LINE",
"97 579 LINE",
"247 372 LINE",
"-2 137 LINE",
"-30 0 LINE",
"464 0 LINE"
);
}
);
width = 552;
}
);
note = Sigma;
unicode = 03A3;
},
{
glyphname = Phi;
lastChange = "2018-06-23 23:47:21 +0000";
layers = (
{
layerId = "273861F4-9D16-4AA5-A9CF-BC69819DDA51";
paths = (
{
closed = 1;
nodes = (
"45 201 OFFCURVE",
"135 115 OFFCURVE",
"285 100 CURVE",
"261 -10 LINE",
"441 -10 LINE",
"465 100 LINE",
"697 108 OFFCURVE",
"820 212 OFFCURVE",
"820 405 CURVE SMOOTH",
"820 534 OFFCURVE",
"729 621 OFFCURVE",
"579 636 CURVE",
"597 724 LINE",
"417 724 LINE",
"399 636 LINE",
"171 626 OFFCURVE",
"45 517 OFFCURVE",
"45 331 CURVE SMOOTH"
);
},
{
closed = 1;
nodes = (
"233 434 OFFCURVE",
"282 486 OFFCURVE",
"368 490 CURVE",
"317 245 LINE",
"262 249 OFFCURVE",
"233 276 OFFCURVE",
"233 341 CURVE SMOOTH"
);
},
{
closed = 1;
nodes = (
"632 300 OFFCURVE",
"583 248 OFFCURVE",
"497 246 CURVE",
"548 490 LINE",
"604 483 OFFCURVE",
"632 451 OFFCURVE",
"632 394 CURVE SMOOTH"
);
}
);
width = 846;
}
);
note = Phi;
unicode = 03A6;
},
{
glyphname = Psi;
lastChange = "2018-06-23 23:47:21 +0000";
layers = (
{
layerId = "273861F4-9D16-4AA5-A9CF-BC69819DDA51";
paths = (
{
closed = 1;
nodes = (
"576 195 OFFCURVE",
"633 204 OFFCURVE",
"680 220 CURVE SMOOTH",
"774 251 OFFCURVE",
"825 312 OFFCURVE",
"853 439 CURVE SMOOTH",
"913 714 LINE",
"728 714 LINE",
"675 463 LINE SMOOTH",
"669 434 OFFCURVE",
"661 412 OFFCURVE",
"651 396 CURVE SMOOTH",
"632 363 OFFCURVE",
"607 350 OFFCURVE",
"552 350 CURVE SMOOTH",
"540 350 LINE",
"616 714 LINE",
"436 714 LINE",
"359 350 LINE",
"353 350 LINE SMOOTH",
"326 350 OFFCURVE",
"308 352 OFFCURVE",
"296 356 CURVE SMOOTH",
"274 364 OFFCURVE",
"264 380 OFFCURVE",
"264 410 CURVE SMOOTH",
"264 422 OFFCURVE",
"267 440 OFFCURVE",
"272 465 CURVE SMOOTH",
"324 714 LINE",
"139 714 LINE",
"86 467 LINE SMOOTH",
"81 442 OFFCURVE",
"78 418 OFFCURVE",
"78 393 CURVE SMOOTH",
"78 268 OFFCURVE",
"168 196 OFFCURVE",
"326 194 CURVE",
"285 0 LINE",
"465 0 LINE",
"507 194 LINE"
);
}
);
width = 882;
}
);
note = Psi;
unicode = 03A8;
},
{
glyphname = uni03A9;
lastChange = "2018-06-23 23:47:21 +0000";
layers = (
{
anchors = (
{
name = bottom;
position = "{328, 0}";
},
{
name = topleft;
position = "{103, 714}";
}
);
layerId = "273861F4-9D16-4AA5-A9CF-BC69819DDA51";
paths = (
{
closed = 1;
nodes = (
"501 567 OFFCURVE",
"549 519 OFFCURVE",
"549 445 CURVE SMOOTH",
"549 327 OFFCURVE",
"494 227 OFFCURVE",
"410 181 CURVE",
"370 0 LINE",
"691 0 LINE",
"725 158 LINE",
"536 158 LINE",
"671 211 OFFCURVE",
"742 310 OFFCURVE",
"742 470 CURVE SMOOTH",
"742 626 OFFCURVE",
"624 725 OFFCURVE",
"436 725 CURVE SMOOTH",
"363 725 OFFCURVE",
"298 711 OFFCURVE",
"242 682 CURVE SMOOTH",
"129 625 OFFCURVE",
"65 512 OFFCURVE",
"65 369 CURVE SMOOTH",
"65 283 OFFCURVE",
"110 202 OFFCURVE",
"181 158 CURVE",
"-8 158 LINE",
"-41 0 LINE",
"280 0 LINE",
"320 181 LINE",
"273 223 OFFCURVE",
"258 267 OFFCURVE",
"258 350 CURVE SMOOTH",
"258 386 OFFCURVE",
"266 422 OFFCURVE",
"282 458 CURVE SMOOTH",
"314 530 OFFCURVE",
"365 567 OFFCURVE",
"426 567 CURVE SMOOTH"
);
}
);
width = 773;
}
);
note = uni03A9;
unicode = 03A9;
},
{
glyphname = alpha;
lastChange = "2018-06-23 23:47:21 +0000";
layers = (
{
anchors = (
{
name = top;
position = "{374, 553}";
}
);
layerId = "273861F4-9D16-4AA5-A9CF-BC69819DDA51";
paths = (
{
closed = 1;
nodes = (
"244 563 OFFCURVE",
"203 547 OFFCURVE",
"166 517 CURVE SMOOTH",
"93 454 OFFCURVE",
"41 321 OFFCURVE",
"41 201 CURVE SMOOTH",
"41 66 OFFCURVE",
"99 -10 OFFCURVE",
"200 -10 CURVE SMOOTH",
"221 -10 OFFCURVE",
"238 -7 OFFCURVE",
"253 -2 CURVE SMOOTH",
"282 7 OFFCURVE",
"302 21 OFFCURVE",
"333 60 CURVE",
"340 60 LINE",
"362 13 OFFCURVE",
"404 -10 OFFCURVE",
"473 -10 CURVE SMOOTH",
"514 -10 OFFCURVE",
"548 -4 OFFCURVE",
"574 6 CURVE",
"574 147 LINE",
"561 143 OFFCURVE",
"550 141 OFFCURVE",
"542 141 CURVE SMOOTH",
"521 141 OFFCURVE",
"511 151 OFFCURVE",
"511 171 CURVE SMOOTH",
"511 184 OFFCURVE",
"514 200 OFFCURVE",
"518 218 CURVE SMOOTH",
"544 334 LINE SMOOTH",
"562 414 OFFCURVE",
"596 500 OFFCURVE",
"630 553 CURVE",
"466 553 LINE",
"449 536 OFFCURVE",
"433 513 OFFCURVE",
"419 482 CURVE",
"415 482 LINE",
"398 506 OFFCURVE",
"385 522 OFFCURVE",
"374 533 CURVE SMOOTH",
"352 552 OFFCURVE",
"326 563 OFFCURVE",
"289 563 CURVE SMOOTH"
);
},
{
closed = 1;
nodes = (
"250 142 OFFCURVE",
"234 166 OFFCURVE",
"234 212 CURVE SMOOTH",
"234 243 OFFCURVE",
"239 274 OFFCURVE",
"248 306 CURVE SMOOTH",
"267 369 OFFCURVE",
"299 411 OFFCURVE",
"331 411 CURVE SMOOTH",
"360 411 OFFCURVE",
"367 384 OFFCURVE",
"367 341 CURVE SMOOTH",
"367 306 OFFCURVE",
"363 273 OFFCURVE",
"354 242 CURVE SMOOTH",
"337 181 OFFCURVE",
"306 142 OFFCURVE",
"275 142 CURVE SMOOTH"
);
}
);
width = 630;
}
);
note = alpha;
unicode = 03B1;
},
{
glyphname = beta;
lastChange = "2018-06-23 23:47:21 +0000";
layers = (
{
layerId = "273861F4-9D16-4AA5-A9CF-BC69819DDA51";
paths = (
{
closed = 1;
nodes = (
"206 21 LINE",
"235 0 OFFCURVE",
"277 -10 OFFCURVE",
"332 -10 CURVE SMOOTH",
"496 -10 OFFCURVE",
"587 77 OFFCURVE",
"587 227 CURVE SMOOTH",
"587 317 OFFCURVE",
"531 383 OFFCURVE",
"451 395 CURVE",
"557 404 OFFCURVE",
"626 479 OFFCURVE",
"626 585 CURVE SMOOTH",
"626 702 OFFCURVE",
"547 765 OFFCURVE",
"397 765 CURVE SMOOTH",
"242 765 OFFCURVE",
"155 685 OFFCURVE",
"118 507 CURVE SMOOTH",
"-38 -240 LINE",
"151 -240 LINE"
);
},
{
closed = 1;
nodes = (
"328 586 OFFCURVE",
"349 617 OFFCURVE",
"392 617 CURVE SMOOTH",
"421 617 OFFCURVE",
"439 597 OFFCURVE",
"439 560 CURVE SMOOTH",
"439 505 OFFCURVE",
"404 465 OFFCURVE",
"356 465 CURVE SMOOTH",
"341 465 LINE",
"311 323 LINE",
"318 323 LINE SMOOTH",
"367 323 OFFCURVE",
"397 293 OFFCURVE",
"397 235 CURVE SMOOTH",
"397 181 OFFCURVE",
"361 142 OFFCURVE",
"311 142 CURVE SMOOTH",
"283 142 OFFCURVE",
"255 152 OFFCURVE",
"238 166 CURVE",
"312 514 LINE SMOOTH"
);
}
);
width = 646;
}
);
note = beta;
unicode = 03B2;
},
{
glyphname = gamma;
lastChange = "2018-06-23 23:47:21 +0000";
layers = (
{
layerId = "273861F4-9D16-4AA5-A9CF-BC69819DDA51";
paths = (
{
closed = 1;
nodes = (
"242 271 LINE SMOOTH",
"242 300 OFFCURVE",
"242 325 OFFCURVE",
"240 347 CURVE SMOOTH",
"230 553 LINE",
"46 553 LINE",
"110 8 LINE",
"69 -69 OFFCURVE",
"40 -152 OFFCURVE",
"22 -240 CURVE",
"219 -240 LINE",
"239 -142 OFFCURVE",
"277 -48 OFFCURVE",
"347 79 CURVE SMOOTH",
"605 553 LINE",
"403 553 LINE",
"324 387 OFFCURVE",
"280 292 OFFCURVE",
"270 269 CURVE SMOOTH",
"259 246 OFFCURVE",
"251 225 OFFCURVE",
"245 207 CURVE",
"241 207 LINE"
);
}
);
width = 547;
}
);
note = gamma;
unicode = 03B3;
},
{
glyphname = delta;
lastChange = "2018-06-23 23:47:21 +0000";
layers = (
{
layerId = "273861F4-9D16-4AA5-A9CF-BC69819DDA51";
paths = (
{
closed = 1;
nodes = (
"100 401 OFFCURVE",
"28 311 OFFCURVE",
"28 186 CURVE SMOOTH",
"28 61 OFFCURVE",
"107 -10 OFFCURVE",
"255 -10 CURVE SMOOTH",
"315 -10 OFFCURVE",
"367 2 OFFCURVE",
"412 25 CURVE SMOOTH",
"500 72 OFFCURVE",
"548 162 OFFCURVE",
"548 278 CURVE SMOOTH",
"548 358 OFFCURVE",
"516 425 OFFCURVE",
"442 489 CURVE SMOOTH",
"410 516 OFFCURVE",
"390 536 OFFCURVE",
"379 549 CURVE SMOOTH",
"369 563 OFFCURVE",
"364 575 OFFCURVE",
"364 588 CURVE SMOOTH",
"364 613 OFFCURVE",
"384 627 OFFCURVE",
"417 627 CURVE SMOOTH",
"454 627 OFFCURVE",
"508 612 OFFCURVE",
"563 576 CURVE",
"638 711 LINE",
"568 750 OFFCURVE",
"508 765 OFFCURVE",
"419 765 CURVE SMOOTH",
"269 765 OFFCURVE",
"177 700 OFFCURVE",
"177 591 CURVE SMOOTH",
"177 538 OFFCURVE",
"198 491 OFFCURVE",
"240 450 CURVE"
);
},
{
closed = 1;
nodes = (
"234 132 OFFCURVE",
"218 158 OFFCURVE",
"218 202 CURVE SMOOTH",
"218 274 OFFCURVE",
"257 333 OFFCURVE",
"317 363 CURVE",
"338 346 OFFCURVE",
"358 313 OFFCURVE",
"358 270 CURVE SMOOTH",
"358 193 OFFCURVE",
"316 132 OFFCURVE",
"267 132 CURVE SMOOTH"
);
}
);
width = 598;
}
);
note = delta;
unicode = 03B4;
},
{
glyphname = epsilon;
lastChange = "2018-06-23 23:47:21 +0000";
layers = (
{
anchors = (
{
name = top;
position = "{337, 553}";
}
);
layerId = "273861F4-9D16-4AA5-A9CF-BC69819DDA51";
paths = (
{
closed = 1;
nodes = (
"369 349 LINE SMOOTH",
"337 349 OFFCURVE",
"314 352 OFFCURVE",
"300 358 CURVE SMOOTH",
"285 364 OFFCURVE",
"278 374 OFFCURVE",
"278 386 CURVE SMOOTH",
"278 400 OFFCURVE",
"285 410 OFFCURVE",
"300 416 CURVE SMOOTH",
"314 422 OFFCURVE",
"336 425 OFFCURVE",
"364 425 CURVE SMOOTH",
"404 425 OFFCURVE",
"466 411 OFFCURVE",
"515 384 CURVE",
"571 518 LINE",
"502 549 OFFCURVE",
"433 563 OFFCURVE",
"351 563 CURVE SMOOTH",
"193 563 OFFCURVE",
"98 506 OFFCURVE",
"98 408 CURVE SMOOTH",
"98 355 OFFCURVE",
"127 318 OFFCURVE",
"186 297 CURVE",
"186 293 LINE",
"71 276 OFFCURVE",
"20 230 OFFCURVE",
"20 150 CURVE SMOOTH",
"20 52 OFFCURVE",
"114 -10 OFFCURVE",
"260 -10 CURVE SMOOTH",
"351 -10 OFFCURVE",
"422 3 OFFCURVE",
"473 28 CURVE",
"473 173 LINE",
"404 140 OFFCURVE",
"362 132 OFFCURVE",
"309 132 CURVE SMOOTH",
"252 132 OFFCURVE",
"216 148 OFFCURVE",
"216 179 CURVE SMOOTH",
"216 194 OFFCURVE",
"226 206 OFFCURVE",
"245 213 CURVE SMOOTH",
"265 221 OFFCURVE",
"292 225 OFFCURVE",
"329 225 CURVE SMOOTH",
"413 225 LINE",
"439 349 LINE"
);
}
);
width = 557;
}
);
note = epsilon;
unicode = 03B5;
},
{
glyphname = zeta;
lastChange = "2018-06-23 23:47:21 +0000";
layers = (
{
layerId = "273861F4-9D16-4AA5-A9CF-BC69819DDA51";
paths = (
{
closed = 1;
nodes = (
"32 139 OFFCURVE",
"70 80 OFFCURVE",
"151 35 CURVE SMOOTH",
"167 26 OFFCURVE",
"182 18 OFFCURVE",
"193 11 CURVE SMOOTH",
"205 5 OFFCURVE",
"214 -1 OFFCURVE",
"222 -7 CURVE SMOOTH",
"237 -20 OFFCURVE",
"243 -32 OFFCURVE",
"243 -51 CURVE SMOOTH",
"243 -82 OFFCURVE",
"211 -126 OFFCURVE",
"146 -185 CURVE",
"347 -185 LINE",
"414 -118 OFFCURVE",
"441 -65 OFFCURVE",
"441 -5 CURVE SMOOTH",
"441 67 OFFCURVE",
"394 118 OFFCURVE",
"312 160 CURVE SMOOTH",
"247 193 OFFCURVE",
"224 219 OFFCURVE",
"224 258 CURVE SMOOTH",
"224 300 OFFCURVE",
"235 340 OFFCURVE",
"257 377 CURVE SMOOTH",
"301 451 OFFCURVE",
"396 540 OFFCURVE",
"553 656 CURVE",
"576 760 LINE",
"156 760 LINE",
"125 622 LINE",
"230 622 LINE SMOOTH",
"269 622 OFFCURVE",
"296 624 OFFCURVE",
"312 628 CURVE",
"130 502 OFFCURVE",
"32 362 OFFCURVE",
"32 229 CURVE SMOOTH"
);
}
);
width = 478;
}
);
note = zeta;
unicode = 03B6;
},
{
glyphname = eta;
lastChange = "2018-06-23 23:47:21 +0000";
layers = (
{
anchors = (
{
name = top;
position = "{370, 553}";
}
);
layerId = "273861F4-9D16-4AA5-A9CF-BC69819DDA51";
paths = (
{
closed = 1;
nodes = (
"384 350 OFFCURVE",
"381 327 OFFCURVE",
"375 302 CURVE SMOOTH",
"263 -240 LINE",
"452 -240 LINE",
"563 294 LINE SMOOTH",
"571 334 OFFCURVE",
"575 371 OFFCURVE",
"575 406 CURVE SMOOTH",
"575 504 OFFCURVE",
"521 563 OFFCURVE",
"429 563 CURVE SMOOTH",
"359 563 OFFCURVE",
"313 538 OFFCURVE",
"277 476 CURVE",
"273 476 LINE",
"279 553 LINE",
"128 553 LINE",
"11 0 LINE",
"200 0 LINE",
"257 270 LINE SMOOTH",
"269 328 OFFCURVE",
"282 367 OFFCURVE",
"294 385 CURVE SMOOTH",
"306 404 OFFCURVE",
"324 413 OFFCURVE",
"347 413 CURVE SMOOTH",
"367 413 OFFCURVE",
"384 399 OFFCURVE",
"384 371 CURVE SMOOTH"
);
}
);
width = 622;
}
);
note = eta;
unicode = 03B7;
},
{
glyphname = theta;
lastChange = "2018-06-23 23:47:21 +0000";
layers = (
{
layerId = "273861F4-9D16-4AA5-A9CF-BC69819DDA51";
paths = (
{
closed = 1;
nodes = (
"594 688 OFFCURVE",
"521 771 OFFCURVE",
"394 771 CURVE SMOOTH",
"283 771 OFFCURVE",
"203 722 OFFCURVE",
"145 624 CURVE SMOOTH",
"86 526 OFFCURVE",
"47 344 OFFCURVE",
"47 217 CURVE SMOOTH",
"47 72 OFFCURVE",
"120 -10 OFFCURVE",
"259 -10 CURVE SMOOTH",
"329 -10 OFFCURVE",
"388 12 OFFCURVE",
"436 56 CURVE SMOOTH",
"532 144 OFFCURVE",
"594 357 OFFCURVE",
"594 539 CURVE SMOOTH"
);
},
{
closed = 1;
nodes = (
"363 259 OFFCURVE",
"347 213 OFFCURVE",
"328 179 CURVE SMOOTH",
"309 145 OFFCURVE",
"289 128 OFFCURVE",
"269 128 CURVE SMOOTH",
"240 128 OFFCURVE",
"226 153 OFFCURVE",
"226 192 CURVE SMOOTH",
"226 223 OFFCURVE",
"230 264 OFFCURVE",
"238 315 CURVE",
"377 315 LINE"
);
},
{
closed = 1;
nodes = (
"401 633 OFFCURVE",
"415 611 OFFCURVE",
"415 567 CURVE SMOOTH",
"415 538 OFFCURVE",
"412 500 OFFCURVE",
"406 453 CURVE",
"267 453 LINE",
"285 517 OFFCURVE",
"303 563 OFFCURVE",
"320 591 CURVE SMOOTH",
"337 619 OFFCURVE",
"355 633 OFFCURVE",
"374 633 CURVE SMOOTH"
);
}
);
width = 612;
}
);
note = theta;
unicode = 03B8;
},
{
glyphname = iota;
lastChange = "2018-06-23 23:47:21 +0000";
layers = (
{
anchors = (
{
name = top;
position = "{258, 553}";
}
);
layerId = "273861F4-9D16-4AA5-A9CF-BC69819DDA51";
paths = (
{
closed = 1;
nodes = (
"322 147 OFFCURVE",
"295 142 OFFCURVE",
"266 142 CURVE SMOOTH",
"250 142 OFFCURVE",
"240 152 OFFCURVE",
"240 167 CURVE SMOOTH",
"240 175 OFFCURVE",
"242 189 OFFCURVE",
"246 208 CURVE SMOOTH",
"316 553 LINE",
"127 553 LINE",
"52 189 LINE SMOOTH",
"45 160 OFFCURVE",
"42 136 OFFCURVE",
"42 118 CURVE SMOOTH",
"42 29 OFFCURVE",
"85 -10 OFFCURVE",
"197 -10 CURVE SMOOTH",
"258 -10 OFFCURVE",
"309 0 OFFCURVE",
"349 19 CURVE",
"349 158 LINE"
);
}
);
width = 399;
}
);
note = iota;
unicode = 03B9;
},
{
glyphname = lambda;
lastChange = "2018-06-23 23:47:21 +0000";
layers = (
{
layerId = "273861F4-9D16-4AA5-A9CF-BC69819DDA51";
paths = (
{
closed = 1;
nodes = (
"150 0 LINE",
"243 182 LINE SMOOTH",
"256 208 OFFCURVE",
"268 241 OFFCURVE",
"279 279 CURVE",
"283 279 LINE",
"282 276 OFFCURVE",
"283 259 OFFCURVE",
"286 227 CURVE SMOOTH",
"292 162 OFFCURVE",
"306 86 OFFCURVE",
"332 48 CURVE SMOOTH",
"356 9 OFFCURVE",
"395 -10 OFFCURVE",
"450 -10 CURVE SMOOTH",
"497 -10 OFFCURVE",
"535 -4 OFFCURVE",
"564 8 CURVE",
"564 147 LINE",
"550 144 OFFCURVE",
"539 142 OFFCURVE",
"531 142 CURVE SMOOTH",
"511 142 OFFCURVE",
"497 152 OFFCURVE",
"487 171 CURVE SMOOTH",
"477 191 OFFCURVE",
"469 225 OFFCURVE",
"462 274 CURVE SMOOTH",
"417 573 LINE SMOOTH",
"398 701 OFFCURVE",
"338 766 OFFCURVE",
"219 766 CURVE SMOOTH",
"176 766 OFFCURVE",
"138 762 OFFCURVE",
"104 753 CURVE",
"127 617 LINE",
"147 622 OFFCURVE",
"164 624 OFFCURVE",
"176 624 CURVE SMOOTH",
"209 624 OFFCURVE",
"230 594 OFFCURVE",
"235 539 CURVE SMOOTH",
"237 513 LINE",
"-54 0 LINE"
);
}
);
width = 604;
}
);
note = lambda;
unicode = 03BB;
},
{
glyphname = nu;
lastChange = "2018-06-23 23:47:21 +0000";
layers = (
{
layerId = "273861F4-9D16-4AA5-A9CF-BC69819DDA51";
paths = (
{
closed = 1;
nodes = (
"300 0 LINE",
"461 149 OFFCURVE",
"559 329 OFFCURVE",
"594 553 CURVE",
"399 553 LINE",
"375 401 OFFCURVE",
"336 287 OFFCURVE",
"260 168 CURVE",
"255 168 LINE",
"255 210 OFFCURVE",
"254 238 OFFCURVE",
"253 251 CURVE",
"232 553 LINE",
"47 553 LINE",
"116 0 LINE"
);
}
);
width = 578;
}
);
note = nu;
unicode = 03BD;
},
{
glyphname = xi;
lastChange = "2018-06-23 23:47:21 +0000";
layers = (
{
layerId = "273861F4-9D16-4AA5-A9CF-BC69819DDA51";
paths = (
{
closed = 1;
nodes = (
"315 465 OFFCURVE",
"290 484 OFFCURVE",
"290 526 CURVE SMOOTH",
"290 591 OFFCURVE",
"364 628 OFFCURVE",
"489 628 CURVE SMOOTH",
"511 628 LINE",
"539 760 LINE",
"124 760 LINE",
"93 622 LINE",
"129 622 LINE SMOOTH",
"158 622 OFFCURVE",
"188 624 OFFCURVE",
"221 628 CURVE",
"146 610 OFFCURVE",
"102 566 OFFCURVE",
"102 506 CURVE SMOOTH",
"102 461 OFFCURVE",
"123 429 OFFCURVE",
"172 402 CURVE",
"172 398 LINE",
"80 367 OFFCURVE",
"32 302 OFFCURVE",
"32 211 CURVE SMOOTH",
"32 134 OFFCURVE",
"64 82 OFFCURVE",
"140 40 CURVE SMOOTH",
"179 19 OFFCURVE",
"206 2 OFFCURVE",
"221 -10 CURVE",
"236 -22 OFFCURVE",
"243 -36 OFFCURVE",
"243 -49 CURVE SMOOTH",
"243 -83 OFFCURVE",
"211 -128 OFFCURVE",
"147 -185 CURVE",
"348 -185 LINE",
"415 -119 OFFCURVE",
"441 -67 OFFCURVE",
"441 -7 CURVE SMOOTH",
"441 62 OFFCURVE",
"409 107 OFFCURVE",
"311 160 CURVE SMOOTH",
"272 181 OFFCURVE",
"248 197 OFFCURVE",
"238 208 CURVE SMOOTH",
"228 220 OFFCURVE",
"223 233 OFFCURVE",
"223 249 CURVE SMOOTH",
"223 302 OFFCURVE",
"274 323 OFFCURVE",
"379 323 CURVE SMOOTH",
"406 323 LINE",
"437 465 LINE",
"385 465 LINE SMOOTH"
);
}
);
width = 491;
}
);
note = xi;
unicode = 03BE;
},
{
glyphname = pi;
lastChange = "2018-06-23 23:47:21 +0000";
layers = (
{
layerId = "273861F4-9D16-4AA5-A9CF-BC69819DDA51";
paths = (
{
closed = 1;
nodes = (
"673 149 OFFCURVE",
"645 142 OFFCURVE",
"621 142 CURVE SMOOTH",
"600 142 OFFCURVE",
"590 152 OFFCURVE",
"590 172 CURVE SMOOTH",
"590 184 OFFCURVE",
"592 200 OFFCURVE",
"596 219 CURVE SMOOTH",
"638 411 LINE",
"765 411 LINE",
"793 553 LINE",
"153 553 LINE",
"57 513 LINE",
"38 411 LINE",
"160 411 LINE",
"72 0 LINE",
"261 0 LINE",
"349 411 LINE",
"449 411 LINE",
"407 208 LINE SMOOTH",
"400 179 OFFCURVE",
"397 151 OFFCURVE",
"397 123 CURVE SMOOTH",
"397 33 OFFCURVE",
"441 -10 OFFCURVE",
"544 -10 CURVE SMOOTH",
"609 -10 OFFCURVE",
"663 1 OFFCURVE",
"706 22 CURVE",
"706 162 LINE"
);
}
);
width = 791;
}
);
note = pi;
unicode = 03C0;
},
{
glyphname = rho;
lastChange = "2018-06-23 23:47:21 +0000";
layers = (
{
layerId = "273861F4-9D16-4AA5-A9CF-BC69819DDA51";
paths = (
{
closed = 1;
nodes = (
"571 475 OFFCURVE",
"489 563 OFFCURVE",
"360 563 CURVE SMOOTH",
"304 563 OFFCURVE",
"258 554 OFFCURVE",
"220 535 CURVE SMOOTH",
"145 498 OFFCURVE",
"101 429 OFFCURVE",
"72 288 CURVE SMOOTH",
"-37 -240 LINE",
"152 -240 LINE",
"175 -131 OFFCURVE",
"189 -62 OFFCURVE",
"194 -33 CURVE SMOOTH",
"199 -4 OFFCURVE",
"202 24 OFFCURVE",
"204 50 CURVE",
"208 50 LINE",
"224 15 OFFCURVE",
"262 -10 OFFCURVE",
"318 -10 CURVE SMOOTH",
"368 -10 OFFCURVE",
"413 5 OFFCURVE",
"451 34 CURVE SMOOTH",
"528 92 OFFCURVE",
"571 205 OFFCURVE",
"571 343 CURVE SMOOTH"
);
},
{
closed = 1;
nodes = (
"368 411 OFFCURVE",
"380 389 OFFCURVE",
"380 345 CURVE SMOOTH",
"380 320 OFFCURVE",
"375 290 OFFCURVE",
"367 253 CURVE SMOOTH",
"350 180 OFFCURVE",
"321 142 OFFCURVE",
"286 142 CURVE SMOOTH",
"263 142 OFFCURVE",
"247 154 OFFCURVE",
"239 177 CURVE",
"260 279 LINE SMOOTH",
"270 326 OFFCURVE",
"281 359 OFFCURVE",
"293 380 CURVE SMOOTH",
"306 401 OFFCURVE",
"322 411 OFFCURVE",
"343 411 CURVE SMOOTH"
);
}
);
width = 612;
}
);
note = rho;
unicode = 03C1;
},
{
glyphname = sigma1;
lastChange = "2018-06-23 23:47:21 +0000";
layers = (
{
layerId = "273861F4-9D16-4AA5-A9CF-BC69819DDA51";
paths = (
{
closed = 1;
nodes = (
"232 272 OFFCURVE",
"238 299 OFFCURVE",
"250 328 CURVE SMOOTH",
"272 384 OFFCURVE",
"307 413 OFFCURVE",
"346 413 CURVE SMOOTH",
"389 413 OFFCURVE",
"423 399 OFFCURVE",
"456 384 CURVE",
"516 522 LINE",
"461 551 OFFCURVE",
"409 563 OFFCURVE",
"337 563 CURVE SMOOTH",
"279 563 OFFCURVE",
"228 548 OFFCURVE",
"183 519 CURVE SMOOTH",
"93 460 OFFCURVE",
"41 346 OFFCURVE",
"41 211 CURVE SMOOTH",
"41 134 OFFCURVE",
"73 82 OFFCURVE",
"149 40 CURVE SMOOTH",
"171 28 OFFCURVE",
"189 18 OFFCURVE",
"201 9 CURVE SMOOTH",
"226 -9 OFFCURVE",
"234 -20 OFFCURVE",
"234 -43 CURVE SMOOTH",
"234 -80 OFFCURVE",
"199 -132 OFFCURVE",
"138 -185 CURVE",
"339 -185 LINE",
"404 -121 OFFCURVE",
"432 -68 OFFCURVE",
"432 -7 CURVE SMOOTH",
"432 22 OFFCURVE",
"428 47 OFFCURVE",
"419 68 CURVE SMOOTH",
"401 109 OFFCURVE",
"368 137 OFFCURVE",
"283 180 CURVE SMOOTH",
"247 198 OFFCURVE",
"232 216 OFFCURVE",
"232 246 CURVE SMOOTH"
);
}
);
width = 498;
}
);
note = sigma1;
unicode = 03C2;
},
{
glyphname = sigma;
lastChange = "2018-06-23 23:47:21 +0000";
layers = (
{
layerId = "273861F4-9D16-4AA5-A9CF-BC69819DDA51";
paths = (
{
closed = 1;
nodes = (
"563 333 OFFCURVE",
"549 375 OFFCURVE",
"520 411 CURVE",
"648 411 LINE",
"680 553 LINE",
"401 553 LINE SMOOTH",
"172 553 OFFCURVE",
"41 424 OFFCURVE",
"41 203 CURVE SMOOTH",
"41 68 OFFCURVE",
"125 -10 OFFCURVE",
"267 -10 CURVE SMOOTH",
"324 -10 OFFCURVE",
"375 2 OFFCURVE",
"419 25 CURVE SMOOTH",
"508 72 OFFCURVE",
"563 171 OFFCURVE",
"563 284 CURVE SMOOTH"
);
},
{
closed = 1;
nodes = (
"370 389 OFFCURVE",
"374 364 OFFCURVE",
"374 335 CURVE SMOOTH",
"374 273 OFFCURVE",
"366 224 OFFCURVE",
"351 187 CURVE SMOOTH",
"336 150 OFFCURVE",
"314 132 OFFCURVE",
"286 132 CURVE SMOOTH",
"255 132 OFFCURVE",
"234 161 OFFCURVE",
"234 210 CURVE SMOOTH",
"234 333 OFFCURVE",
"285 411 OFFCURVE",
"363 411 CURVE"
);
}
);
width = 637;
}
);
note = sigma;
unicode = 03C3;
},
{
glyphname = tau;
lastChange = "2018-06-23 23:47:21 +0000";
layers = (
{
layerId = "273861F4-9D16-4AA5-A9CF-BC69819DDA51";
paths = (
{
closed = 1;
nodes = (
"311 183 OFFCURVE",
"313 198 OFFCURVE",
"318 219 CURVE SMOOTH",
"359 411 LINE",
"501 411 LINE",
"532 553 LINE",
"143 553 LINE",
"52 513 LINE",
"32 411 LINE",
"173 411 LINE",
"128 208 LINE SMOOTH",
"123 185 OFFCURVE",
"118 145 OFFCURVE",
"118 123 CURVE SMOOTH",
"118 32 OFFCURVE",
"162 -10 OFFCURVE",
"265 -10 CURVE SMOOTH",
"330 -10 OFFCURVE",
"384 1 OFFCURVE",
"427 22 CURVE",
"427 162 LINE",
"395 149 OFFCURVE",
"366 142 OFFCURVE",
"342 142 CURVE SMOOTH",
"321 142 OFFCURVE",
"311 152 OFFCURVE",
"311 172 CURVE SMOOTH"
);
}
);
width = 522;
}
);
note = tau;
unicode = 03C4;
},
{
glyphname = upsilon;
lastChange = "2018-06-23 23:47:21 +0000";
layers = (
{
anchors = (
{
name = top;
position = "{371, 553}";
}
);
layerId = "273861F4-9D16-4AA5-A9CF-BC69819DDA51";
paths = (
{
closed = 1;
nodes = (
"489 -10 OFFCURVE",
"592 141 OFFCURVE",
"592 483 CURVE SMOOTH",
"592 504 OFFCURVE",
"591 528 OFFCURVE",
"589 553 CURVE",
"401 553 LINE",
"401 533 LINE SMOOTH",
"401 401 OFFCURVE",
"391 303 OFFCURVE",
"372 239 CURVE SMOOTH",
"352 174 OFFCURVE",
"322 142 OFFCURVE",
"281 142 CURVE SMOOTH",
"251 142 OFFCURVE",
"236 156 OFFCURVE",
"236 193 CURVE SMOOTH",
"236 208 OFFCURVE",
"238 224 OFFCURVE",
"241 240 CURVE SMOOTH",
"307 553 LINE",
"119 553 LINE",
"54 249 LINE",
"49 216 OFFCURVE",
"47 193 OFFCURVE",
"47 181 CURVE SMOOTH",
"47 56 OFFCURVE",
"121 -10 OFFCURVE",
"261 -10 CURVE SMOOTH"
);
}
);
width = 624;
}
);
note = upsilon;
unicode = 03C5;
},
{
glyphname = phi;
lastChange = "2018-06-23 23:47:21 +0000";
layers = (
{
layerId = "273861F4-9D16-4AA5-A9CF-BC69819DDA51";
paths = (
{
closed = 1;
nodes = (
"396 -240 LINE",
"443 -8 LINE",
"515 -5 OFFCURVE",
"578 11 OFFCURVE",
"632 40 CURVE SMOOTH",
"741 98 OFFCURVE",
"801 204 OFFCURVE",
"801 337 CURVE SMOOTH",
"801 479 OFFCURVE",
"718 563 OFFCURVE",
"576 563 CURVE SMOOTH",
"443 563 OFFCURVE",
"366 499 OFFCURVE",
"336 355 CURVE SMOOTH",
"290 134 LINE",
"251 146 OFFCURVE",
"232 188 OFFCURVE",
"232 244 CURVE SMOOTH",
"232 326 OFFCURVE",
"262 395 OFFCURVE",
"322 451 CURVE",
"204 562 LINE",
"95 475 OFFCURVE",
"41 368 OFFCURVE",
"41 240 CURVE SMOOTH",
"41 104 OFFCURVE",
"119 14 OFFCURVE",
"261 -8 CURVE",
"214 -240 LINE"
);
},
{
closed = 1;
nodes = (
"610 315 OFFCURVE",
"604 282 OFFCURVE",
"593 250 CURVE SMOOTH",
"571 188 OFFCURVE",
"528 146 OFFCURVE",
"472 134 CURVE",
"517 353 LINE SMOOTH",
"526 398 OFFCURVE",
"543 421 OFFCURVE",
"568 421 CURVE SMOOTH",
"595 421 OFFCURVE",
"610 396 OFFCURVE",
"610 350 CURVE SMOOTH"
);
}
);
width = 842;
}
);
note = phi;
unicode = 03C6;
},
{
glyphname = chi;
lastChange = "2018-06-23 23:47:21 +0000";
layers = (
{
layerId = "273861F4-9D16-4AA5-A9CF-BC69819DDA51";
paths = (
{
closed = 1;
nodes = (
"120 563 OFFCURVE",
"62 554 OFFCURVE",
"32 540 CURVE",
"62 404 LINE",
"77 409 OFFCURVE",
"90 411 OFFCURVE",
"99 411 CURVE SMOOTH",
"128 411 OFFCURVE",
"142 394 OFFCURVE",
"150 351 CURVE SMOOTH",
"176 213 LINE",
"-148 -240 LINE",
"66 -240 LINE",
"222 12 LINE",
"236 -85 LINE SMOOTH",
"253 -197 OFFCURVE",
"294 -240 OFFCURVE",
"386 -240 CURVE SMOOTH",
"428 -240 OFFCURVE",
"468 -234 OFFCURVE",
"507 -222 CURVE",
"507 -80 LINE",
"485 -85 OFFCURVE",
"466 -88 OFFCURVE",
"450 -88 CURVE SMOOTH",
"424 -88 OFFCURVE",
"411 -76 OFFCURVE",
"406 -44 CURVE SMOOTH",
"370 172 LINE",
"647 553 LINE",
"433 553 LINE",
"324 373 LINE",
"316 416 LINE SMOOTH",
"296 521 OFFCURVE",
"252 563 OFFCURVE",
"159 563 CURVE SMOOTH"
);
}
);
width = 579;
}
);
note = chi;
unicode = 03C7;
},
{
glyphname = psi;
lastChange = "2018-06-23 23:47:21 +0000";
layers = (
{
layerId = "273861F4-9D16-4AA5-A9CF-BC69819DDA51";
paths = (
{
closed = 1;
nodes = (
"442 760 LINE",
"312 142 LINE",
"268 144 OFFCURVE",
"238 163 OFFCURVE",
"238 192 CURVE SMOOTH",
"238 208 OFFCURVE",
"240 224 OFFCURVE",
"243 240 CURVE SMOOTH",
"309 553 LINE",
"121 553 LINE",
"56 243 LINE SMOOTH",
"50 217 OFFCURVE",
"47 192 OFFCURVE",
"47 168 CURVE SMOOTH",
"47 66 OFFCURVE",
"128 3 OFFCURVE",
"281 -10 CURVE",
"234 -240 LINE",
"416 -240 LINE",
"463 -10 LINE",
"549 -5 OFFCURVE",
"620 14 OFFCURVE",
"675 47 CURVE SMOOTH",
"784 114 OFFCURVE",
"834 238 OFFCURVE",
"834 482 CURVE SMOOTH",
"834 499 OFFCURVE",
"833 523 OFFCURVE",
"830 553 CURVE",
"642 553 LINE",
"645 517 OFFCURVE",
"646 492 OFFCURVE",
"646 478 CURVE SMOOTH",
"646 263 OFFCURVE",
"602 160 OFFCURVE",
"494 142 CURVE",
"624 760 LINE"
);
}
);
width = 866;
}
);
note = psi;
unicode = 03C8;
},
{
glyphname = omega;
lastChange = "2018-06-23 23:47:21 +0000";
layers = (
{
anchors = (
{
name = bottom;
position = "{372, 0}";
},
{
name = top;
position = "{489, 553}";
}
);
layerId = "273861F4-9D16-4AA5-A9CF-BC69819DDA51";
paths = (
{
closed = 1;
nodes = (
"410 24 OFFCURVE",
"456 -10 OFFCURVE",
"545 -10 CURVE SMOOTH",
"730 -10 OFFCURVE",
"829 141 OFFCURVE",
"829 428 CURVE SMOOTH",
"829 465 OFFCURVE",
"826 507 OFFCURVE",
"820 553 CURVE",
"626 553 LINE",
"636 514 OFFCURVE",
"641 471 OFFCURVE",
"641 423 CURVE SMOOTH",
"641 342 OFFCURVE",
"632 274 OFFCURVE",
"613 219 CURVE SMOOTH",
"594 165 OFFCURVE",
"569 137 OFFCURVE",
"538 137 CURVE SMOOTH",
"513 137 OFFCURVE",
"503 146 OFFCURVE",
"503 176 CURVE SMOOTH",
"503 193 OFFCURVE",
"507 218 OFFCURVE",
"514 252 CURVE SMOOTH",
"545 393 LINE",
"361 393 LINE",
"331 252 LINE SMOOTH",
"321 208 OFFCURVE",
"312 178 OFFCURVE",
"302 162 CURVE SMOOTH",
"292 146 OFFCURVE",
"279 137 OFFCURVE",
"263 137 CURVE SMOOTH",
"234 137 OFFCURVE",
"220 154 OFFCURVE",
"220 205 CURVE SMOOTH",
"220 305 OFFCURVE",
"270 444 OFFCURVE",
"346 553 CURVE",
"152 553 LINE",
"72 422 OFFCURVE",
"32 303 OFFCURVE",
"32 197 CURVE SMOOTH",
"32 62 OFFCURVE",
"97 -10 OFFCURVE",
"212 -10 CURVE SMOOTH",
"298 -10 OFFCURVE",
"353 18 OFFCURVE",
"396 87 CURVE"
);
}
);
width = 861;
}
);
note = omega;
unicode = 03C9;
},
{
glyphname = afii10051;
lastChange = "2018-06-23 23:47:21 +0000";
layers = (
{
layerId = "273861F4-9D16-4AA5-A9CF-BC69819DDA51";
paths = (
{
closed = 1;
nodes = (
"525 253 OFFCURVE",
"523 240 OFFCURVE",
"520 226 CURVE",
"515 200 LINE SMOOTH",
"508 160 OFFCURVE",
"493 142 OFFCURVE",
"452 142 CURVE SMOOTH",
"427 142 OFFCURVE",
"403 147 OFFCURVE",
"382 158 CURVE",
"382 15 LINE",
"407 0 OFFCURVE",
"457 -10 OFFCURVE",
"496 -10 CURVE SMOOTH",
"554 -10 OFFCURVE",
"598 2 OFFCURVE",
"627 26 CURVE SMOOTH",
"685 73 OFFCURVE",
"715 201 OFFCURVE",
"715 317 CURVE SMOOTH",
"715 409 OFFCURVE",
"643 468 OFFCURVE",
"526 468 CURVE SMOOTH",
"403 468 LINE",
"422 556 LINE",
"577 556 LINE",
"612 714 LINE",
"110 714 LINE",
"76 556 LINE",
"231 556 LINE",
"115 0 LINE",
"306 0 LINE",
"370 310 LINE",
"476 310 LINE SMOOTH",
"507 310 OFFCURVE",
"525 298 OFFCURVE",
"525 265 CURVE SMOOTH"
);
}
);
width = 779;
}
);
note = afii10051;
unicode = 0402;
},
{
glyphname = afii10053;
lastChange = "2018-06-23 23:47:21 +0000";
layers = (
{
layerId = "273861F4-9D16-4AA5-A9CF-BC69819DDA51";
paths = (
{
closed = 1;
nodes = (
"485 566 OFFCURVE",
"532 548 OFFCURVE",
"593 512 CURVE",
"666 666 LINE",
"599 707 OFFCURVE",
"525 725 OFFCURVE",
"430 725 CURVE SMOOTH",
"357 725 OFFCURVE",
"292 707 OFFCURVE",
"235 670 CURVE SMOOTH",
"122 596 OFFCURVE",
"51 441 OFFCURVE",
"51 268 CURVE SMOOTH",
"51 91 OFFCURVE",
"146 -10 OFFCURVE",
"315 -10 CURVE SMOOTH",
"392 -10 OFFCURVE",
"464 5 OFFCURVE",
"530 34 CURVE",
"530 192 LINE",
"432 157 OFFCURVE",
"393 148 OFFCURVE",
"339 148 CURVE SMOOTH",
"278 148 OFFCURVE",
"244 192 OFFCURVE",
"244 270 CURVE SMOOTH",
"244 286 LINE",
"473 286 LINE",
"506 438 LINE",
"275 438 LINE",
"310 521 OFFCURVE",
"365 566 OFFCURVE",
"430 566 CURVE SMOOTH"
);
}
);
width = 630;
}
);
note = afii10053;
unicode = 0404;
},
{
glyphname = afii10058;
lastChange = "2018-06-23 23:47:21 +0000";
layers = (
{
layerId = "273861F4-9D16-4AA5-A9CF-BC69819DDA51";
paths = (
{
closed = 1;
nodes = (
"913 372 OFFCURVE",
"824 449 OFFCURVE",
"670 449 CURVE SMOOTH",
"656 449 LINE",
"711 714 LINE",
"245 714 LINE",
"188 491 OFFCURVE",
"142 337 OFFCURVE",
"109 254 CURVE SMOOTH",
"98 226 OFFCURVE",
"87 204 OFFCURVE",
"77 188 CURVE SMOOTH",
"56 156 OFFCURVE",
"40 142 OFFCURVE",
"5 142 CURVE SMOOTH",
"-1 142 OFFCURVE",
"-7 143 OFFCURVE",
"-14 144 CURVE",
"-20 144 OFFCURVE",
"-30 147 OFFCURVE",
"-45 152 CURVE",
"-45 3 LINE",
"-21 -5 OFFCURVE",
"4 -10 OFFCURVE",
"31 -10 CURVE SMOOTH",
"76 -10 OFFCURVE",
"113 -3 OFFCURVE",
"143 11 CURVE SMOOTH",
"201 38 OFFCURVE",
"242 94 OFFCURVE",
"289 210 CURVE SMOOTH",
"306 250 OFFCURVE",
"341 368 OFFCURVE",
"394 562 CURVE",
"489 562 LINE",
"370 0 LINE",
"622 0 LINE SMOOTH",
"808 0 OFFCURVE",
"913 92 OFFCURVE",
"913 246 CURVE SMOOTH"
);
},
{
closed = 1;
nodes = (
"657 300 LINE SMOOTH",
"695 300 OFFCURVE",
"721 274 OFFCURVE",
"721 236 CURVE SMOOTH",
"721 182 OFFCURVE",
"689 149 OFFCURVE",
"632 149 CURVE SMOOTH",
"594 149 LINE",
"624 300 LINE"
);
}
);
width = 963;
}
);
note = afii10058;
unicode = 0409;
},
{
glyphname = afii10059;
lastChange = "2018-06-23 23:47:21 +0000";
layers = (
{
layerId = "273861F4-9D16-4AA5-A9CF-BC69819DDA51";
paths = (
{
closed = 1;
nodes = (
"913 372 OFFCURVE",
"824 449 OFFCURVE",
"670 449 CURVE SMOOTH",
"656 449 LINE",
"711 714 LINE",
"521 714 LINE",
"465 449 LINE",
"303 449 LINE",
"358 714 LINE",
"167 714 LINE",
"16 0 LINE",
"207 0 LINE",
"269 291 LINE",
"431 291 LINE",
"370 0 LINE",
"622 0 LINE SMOOTH",
"808 0 OFFCURVE",
"913 92 OFFCURVE",
"913 246 CURVE SMOOTH"
);
},
{
closed = 1;
nodes = (
"657 300 LINE SMOOTH",
"695 300 OFFCURVE",
"721 274 OFFCURVE",
"721 236 CURVE SMOOTH",
"721 182 OFFCURVE",
"689 149 OFFCURVE",
"632 149 CURVE SMOOTH",
"594 149 LINE",
"624 300 LINE"
);
}
);
width = 963;
}
);
note = afii10059;
unicode = 040A;
},
{
glyphname = afii10060;
lastChange = "2018-06-23 23:47:21 +0000";
layers = (
{
layerId = "273861F4-9D16-4AA5-A9CF-BC69819DDA51";
paths = (
{
closed = 1;
nodes = (
"577 556 LINE",
"612 714 LINE",
"110 714 LINE",
"76 556 LINE",
"231 556 LINE",
"115 0 LINE",
"306 0 LINE",
"370 310 LINE",
"456 310 LINE SMOOTH",
"487 310 OFFCURVE",
"505 298 OFFCURVE",
"505 265 CURVE SMOOTH",
"505 253 OFFCURVE",
"503 240 OFFCURVE",
"500 226 CURVE",
"454 0 LINE",
"645 0 LINE",
"683 197 LINE SMOOTH",
"691 239 OFFCURVE",
"695 271 OFFCURVE",
"695 292 CURVE SMOOTH",
"695 405 OFFCURVE",
"627 468 OFFCURVE",
"506 468 CURVE SMOOTH",
"403 468 LINE",
"422 556 LINE"
);
}
);
width = 767;
}
);
note = afii10060;
unicode = 040B;
},
{
glyphname = afii10145;
lastChange = "2018-06-23 23:47:21 +0000";
layers = (
{
layerId = "273861F4-9D16-4AA5-A9CF-BC69819DDA51";
paths = (
{
closed = 1;
nodes = (
"200 0 LINE",
"151 -223 LINE",
"337 -223 LINE",
"384 0 LINE",
"568 0 LINE",
"719 714 LINE",
"528 714 LINE",
"411 158 LINE",
"242 158 LINE",
"358 714 LINE",
"167 714 LINE",
"16 0 LINE"
);
}
);
width = 714;
}
);
note = afii10145;
unicode = 040F;
},
{
glyphname = afii10018;
lastChange = "2018-06-23 23:47:21 +0000";
layers = (
{
layerId = "273861F4-9D16-4AA5-A9CF-BC69819DDA51";
paths = (
{
closed = 1;
nodes = (
"16 0 LINE",
"268 0 LINE SMOOTH",
"454 0 OFFCURVE",
"559 92 OFFCURVE",
"559 246 CURVE SMOOTH",
"559 372 OFFCURVE",
"470 449 OFFCURVE",
"316 449 CURVE SMOOTH",
"302 449 LINE",
"324 558 LINE",
"555 558 LINE",
"588 714 LINE",
"166 714 LINE"
);
},
{
closed = 1;
nodes = (
"303 300 LINE SMOOTH",
"341 300 OFFCURVE",
"367 274 OFFCURVE",
"367 236 CURVE SMOOTH",
"367 182 OFFCURVE",
"335 149 OFFCURVE",
"278 149 CURVE SMOOTH",
"240 149 LINE",
"270 300 LINE"
);
}
);
width = 609;
}
);
note = afii10018;
unicode = 0411;
},
{
glyphname = afii10021;
lastChange = "2018-06-23 23:47:21 +0000";
layers = (
{
layerId = "273861F4-9D16-4AA5-A9CF-BC69819DDA51";
paths = (
{
closed = 1;
nodes = (
"749 158 LINE",
"629 158 LINE",
"747 714 LINE",
"308 714 LINE",
"253 521 OFFCURVE",
"159 310 OFFCURVE",
"61 158 CURVE",
"-26 158 LINE",
"-105 -223 LINE",
"81 -223 LINE",
"129 0 LINE",
"530 0 LINE",
"482 -223 LINE",
"668 -223 LINE"
);
},
{
closed = 1;
nodes = (
"271 158 LINE",
"340 282 OFFCURVE",
"397 415 OFFCURVE",
"441 556 CURVE",
"524 556 LINE",
"438 158 LINE"
);
}
);
width = 794;
}
);
note = afii10021;
unicode = 0414;
},
{
glyphname = afii10024;
lastChange = "2018-06-23 23:47:21 +0000";
layers = (
{
anchors = (
{
name = bottomright;
position = "{865, 0}";
},
{
name = top;
position = "{560, 714}";
}
);
layerId = "273861F4-9D16-4AA5-A9CF-BC69819DDA51";
paths = (
{
closed = 1;
nodes = (
"490 0 LINE",
"564 351 LINE",
"652 0 LINE",
"862 0 LINE",
"753 360 LINE",
"1007 714 LINE",
"794 714 LINE",
"570 380 LINE",
"641 714 LINE",
"453 714 LINE",
"383 380 LINE",
"296 714 LINE",
"96 714 LINE",
"194 371 LINE",
"-64 0 LINE",
"154 0 LINE",
"377 351 LINE",
"302 0 LINE"
);
}
);
width = 933;
}
);
note = afii10024;
unicode = 0416;
},
{
glyphname = afii10025;
lastChange = "2018-06-23 23:47:21 +0000";
layers = (
{
anchors = (
{
name = bottom;
position = "{249, 0}";
},
{
name = top;
position = "{400, 714}";
}
);
layerId = "273861F4-9D16-4AA5-A9CF-BC69819DDA51";
paths = (
{
closed = 1;
nodes = (
"601 657 OFFCURVE",
"511 724 OFFCURVE",
"374 724 CURVE SMOOTH",
"272 724 OFFCURVE",
"187 702 OFFCURVE",
"95 646 CURVE",
"164 511 LINE",
"222 552 OFFCURVE",
"276 572 OFFCURVE",
"326 572 CURVE SMOOTH",
"379 572 OFFCURVE",
"402 548 OFFCURVE",
"402 518 CURVE SMOOTH",
"402 471 OFFCURVE",
"359 449 OFFCURVE",
"267 449 CURVE SMOOTH",
"203 449 LINE",
"170 297 LINE",
"229 297 LINE SMOOTH",
"313 297 OFFCURVE",
"351 276 OFFCURVE",
"351 229 CURVE SMOOTH",
"351 170 OFFCURVE",
"314 142 OFFCURVE",
"213 142 CURVE SMOOTH",
"137 142 OFFCURVE",
"61 161 OFFCURVE",
"12 188 CURVE",
"12 29 LINE",
"53 5 OFFCURVE",
"138 -10 OFFCURVE",
"238 -10 CURVE SMOOTH",
"438 -10 OFFCURVE",
"544 69 OFFCURVE",
"544 219 CURVE SMOOTH",
"544 299 OFFCURVE",
"498 355 OFFCURVE",
"417 373 CURVE",
"417 377 LINE",
"530 386 OFFCURVE",
"601 453 OFFCURVE",
"601 553 CURVE SMOOTH"
);
}
);
width = 615;
}
);
note = afii10025;
unicode = 0417;
},
{
glyphname = afii10026;
lastChange = "2018-06-23 23:47:21 +0000";
layers = (
{
anchors = (
{
name = bottomright;
position = "{727, 0}";
},
{
name = top;
position = "{490, 714}";
}
);
layerId = "273861F4-9D16-4AA5-A9CF-BC69819DDA51";
paths = (
{
closed = 1;
nodes = (
"255 0 LINE",
"578 483 LINE",
"582 483 LINE",
"563 412 OFFCURVE",
"547 349 OFFCURVE",
"537 296 CURVE SMOOTH",
"475 0 LINE",
"649 0 LINE",
"800 714 LINE",
"561 714 LINE",
"237 241 LINE",
"233 241 LINE",
"254 315 OFFCURVE",
"269 373 OFFCURVE",
"277 415 CURVE SMOOTH",
"341 714 LINE",
"167 714 LINE",
"16 0 LINE"
);
}
);
width = 795;
}
);
note = afii10026;
unicode = 0418;
},
{
glyphname = afii10028;
lastChange = "2018-06-23 23:47:21 +0000";
layers = (
{
anchors = (
{
name = bottomright;
position = "{577, 0}";
},
{
name = top;
position = "{416, 714}";
}
);
layerId = "273861F4-9D16-4AA5-A9CF-BC69819DDA51";
paths = (
{
closed = 1;
nodes = (
"724 714 LINE",
"511 714 LINE",
"287 380 LINE",
"358 714 LINE",
"167 714 LINE",
"16 0 LINE",
"207 0 LINE",
"281 351 LINE",
"369 0 LINE",
"579 0 LINE",
"470 360 LINE"
);
}
);
width = 645;
}
);
note = afii10028;
unicode = 041A;
},
{
glyphname = afii10029;
lastChange = "2018-06-23 23:47:21 +0000";
layers = (
{
layerId = "273861F4-9D16-4AA5-A9CF-BC69819DDA51";
paths = (
{
closed = 1;
nodes = (
"714 714 LINE",
"245 714 LINE",
"188 491 OFFCURVE",
"142 337 OFFCURVE",
"109 254 CURVE SMOOTH",
"98 226 OFFCURVE",
"87 204 OFFCURVE",
"77 188 CURVE SMOOTH",
"56 156 OFFCURVE",
"40 142 OFFCURVE",
"5 142 CURVE SMOOTH",
"-1 142 OFFCURVE",
"-7 143 OFFCURVE",
"-14 144 CURVE",
"-20 144 OFFCURVE",
"-30 147 OFFCURVE",
"-45 152 CURVE",
"-45 3 LINE",
"-21 -5 OFFCURVE",
"4 -10 OFFCURVE",
"31 -10 CURVE SMOOTH",
"76 -10 OFFCURVE",
"113 -3 OFFCURVE",
"143 11 CURVE SMOOTH",
"201 38 OFFCURVE",
"242 94 OFFCURVE",
"289 210 CURVE SMOOTH",
"306 250 OFFCURVE",
"341 368 OFFCURVE",
"394 562 CURVE",
"491 562 LINE",
"374 0 LINE",
"565 0 LINE"
);
}
);
width = 709;
}
);
note = afii10029;
unicode = 041B;
},
{
glyphname = afii10037;
lastChange = "2018-06-23 23:47:21 +0000";
layers = (
{
anchors = (
{
name = top;
position = "{405, 714}";
}
);
layerId = "273861F4-9D16-4AA5-A9CF-BC69819DDA51";
paths = (
{
closed = 1;
nodes = (
"336 409 OFFCURVE",
"333 437 OFFCURVE",
"329 452 CURVE SMOOTH",
"276 714 LINE",
"81 714 LINE",
"218 205 LINE",
"192 152 OFFCURVE",
"171 142 OFFCURVE",
"117 142 CURVE SMOOTH",
"93 142 OFFCURVE",
"65 146 OFFCURVE",
"33 154 CURVE",
"33 4 LINE",
"70 -5 OFFCURVE",
"104 -10 OFFCURVE",
"137 -10 CURVE SMOOTH",
"261 -10 OFFCURVE",
"330 34 OFFCURVE",
"402 161 CURVE SMOOTH",
"713 714 LINE",
"502 714 LINE",
"378 449 LINE SMOOTH",
"363 416 OFFCURVE",
"353 389 OFFCURVE",
"345 369 CURVE",
"341 369 LINE"
);
}
);
width = 625;
}
);
note = afii10037;
unicode = 0423;
},
{
glyphname = afii10040;
lastChange = "2018-06-23 23:47:21 +0000";
layers = (
{
layerId = "273861F4-9D16-4AA5-A9CF-BC69819DDA51";
paths = (
{
closed = 1;
nodes = (
"528 714 LINE",
"410 158 LINE",
"240 158 LINE",
"358 714 LINE",
"167 714 LINE",
"16 0 LINE",
"502 0 LINE",
"453 -223 LINE",
"639 -223 LINE",
"719 149 LINE",
"599 149 LINE",
"719 714 LINE"
);
}
);
width = 764;
}
);
note = afii10040;
unicode = 0426;
},
{
glyphname = afii10041;
lastChange = "2018-06-23 23:47:21 +0000";
layers = (
{
anchors = (
{
name = bottomright;
position = "{627, 0}";
},
{
name = top;
position = "{441, 714}";
}
);
layerId = "273861F4-9D16-4AA5-A9CF-BC69819DDA51";
paths = (
{
closed = 1;
nodes = (
"701 714 LINE",
"510 714 LINE",
"447 412 LINE",
"412 391 OFFCURVE",
"369 378 OFFCURVE",
"334 378 CURVE SMOOTH",
"295 378 OFFCURVE",
"268 398 OFFCURVE",
"268 437 CURVE SMOOTH",
"268 447 OFFCURVE",
"270 460 OFFCURVE",
"273 475 CURVE SMOOTH",
"321 714 LINE",
"129 714 LINE",
"78 450 LINE SMOOTH",
"74 426 OFFCURVE",
"72 406 OFFCURVE",
"72 390 CURVE SMOOTH",
"72 281 OFFCURVE",
"135 220 OFFCURVE",
"248 220 CURVE SMOOTH",
"311 220 OFFCURVE",
"368 234 OFFCURVE",
"417 261 CURVE",
"361 0 LINE",
"552 0 LINE"
);
}
);
width = 696;
}
);
note = afii10041;
unicode = 0427;
},
{
glyphname = afii10042;
lastChange = "2018-06-23 23:47:21 +0000";
layers = (
{
layerId = "273861F4-9D16-4AA5-A9CF-BC69819DDA51";
paths = (
{
closed = 1;
nodes = (
"1010 714 LINE",
"819 714 LINE",
"704 158 LINE",
"566 158 LINE",
"681 714 LINE",
"493 714 LINE",
"378 158 LINE",
"240 158 LINE",
"355 714 LINE",
"164 714 LINE",
"16 0 LINE",
"862 0 LINE"
);
}
);
width = 1005;
}
);
note = afii10042;
unicode = 0428;
},
{
glyphname = afii10043;
lastChange = "2018-06-23 23:47:21 +0000";
layers = (
{
layerId = "273861F4-9D16-4AA5-A9CF-BC69819DDA51";
paths = (
{
closed = 1;
nodes = (
"933 -223 LINE",
"1013 149 LINE",
"893 149 LINE",
"1010 714 LINE",
"819 714 LINE",
"704 158 LINE",
"566 158 LINE",
"681 714 LINE",
"493 714 LINE",
"378 158 LINE",
"240 158 LINE",
"355 714 LINE",
"164 714 LINE",
"16 0 LINE",
"796 0 LINE",
"747 -223 LINE"
);
}
);
width = 1058;
}
);
note = afii10043;
unicode = 0429;
},
{
glyphname = afii10044;
lastChange = "2018-06-23 23:47:21 +0000";
layers = (
{
anchors = (
{
name = top;
position = "{446, 714}";
}
);
layerId = "273861F4-9D16-4AA5-A9CF-BC69819DDA51";
paths = (
{
closed = 1;
nodes = (
"400 300 LINE SMOOTH",
"438 300 OFFCURVE",
"464 274 OFFCURVE",
"464 236 CURVE SMOOTH",
"464 182 OFFCURVE",
"432 149 OFFCURVE",
"375 149 CURVE SMOOTH",
"337 149 LINE",
"367 300 LINE"
);
},
{
closed = 1;
nodes = (
"110 714 LINE",
"76 556 LINE",
"231 556 LINE",
"113 0 LINE",
"365 0 LINE SMOOTH",
"549 0 OFFCURVE",
"656 91 OFFCURVE",
"656 246 CURVE SMOOTH",
"656 373 OFFCURVE",
"567 449 OFFCURVE",
"413 449 CURVE SMOOTH",
"399 449 LINE",
"454 714 LINE"
);
}
);
width = 706;
}
);
note = afii10044;
unicode = 042A;
},
{
glyphname = afii10045;
lastChange = "2018-06-23 23:47:21 +0000";
layers = (
{
anchors = (
{
name = top;
position = "{564, 714}";
}
);
layerId = "273861F4-9D16-4AA5-A9CF-BC69819DDA51";
paths = (
{
closed = 1;
nodes = (
"559 372 OFFCURVE",
"470 449 OFFCURVE",
"316 449 CURVE SMOOTH",
"302 449 LINE",
"357 714 LINE",
"166 714 LINE",
"16 0 LINE",
"268 0 LINE SMOOTH",
"454 0 OFFCURVE",
"559 92 OFFCURVE",
"559 246 CURVE SMOOTH"
);
},
{
closed = 1;
nodes = (
"303 300 LINE SMOOTH",
"341 300 OFFCURVE",
"367 274 OFFCURVE",
"367 236 CURVE SMOOTH",
"367 182 OFFCURVE",
"335 149 OFFCURVE",
"278 149 CURVE SMOOTH",
"240 149 LINE",
"270 300 LINE"
);
},
{
closed = 1;
nodes = (
"948 714 LINE",
"757 714 LINE",
"606 0 LINE",
"797 0 LINE"
);
}
);
width = 943;
}
);
note = afii10045;
unicode = 042B;
},
{
glyphname = afii10046;
lastChange = "2018-06-23 23:47:21 +0000";
layers = (
{
layerId = "273861F4-9D16-4AA5-A9CF-BC69819DDA51";
paths = (
{
closed = 1;
nodes = (
"559 372 OFFCURVE",
"470 449 OFFCURVE",
"316 449 CURVE SMOOTH",
"302 449 LINE",
"357 714 LINE",
"167 714 LINE",
"16 0 LINE",
"268 0 LINE SMOOTH",
"454 0 OFFCURVE",
"559 92 OFFCURVE",
"559 246 CURVE SMOOTH"
);
},
{
closed = 1;
nodes = (
"303 300 LINE SMOOTH",
"341 300 OFFCURVE",
"367 274 OFFCURVE",
"367 236 CURVE SMOOTH",
"367 182 OFFCURVE",
"335 149 OFFCURVE",
"278 149 CURVE SMOOTH",
"240 149 LINE",
"270 300 LINE"
);
}
);
width = 609;
}
);
note = afii10046;
unicode = 042C;
},
{
glyphname = afii10047;
lastChange = "2018-06-23 23:47:21 +0000";
layers = (
{
anchors = (
{
name = top;
position = "{408, 714}";
}
);
layerId = "273861F4-9D16-4AA5-A9CF-BC69819DDA51";
paths = (
{
closed = 1;
nodes = (
"135 148 OFFCURVE",
"64 165 OFFCURVE",
"15 192 CURVE",
"15 32 LINE",
"63 4 OFFCURVE",
"127 -10 OFFCURVE",
"207 -10 CURVE SMOOTH",
"322 -10 OFFCURVE",
"419 37 OFFCURVE",
"487 119 CURVE SMOOTH",
"555 201 OFFCURVE",
"599 329 OFFCURVE",
"599 448 CURVE SMOOTH",
"599 626 OFFCURVE",
"505 725 OFFCURVE",
"335 725 CURVE SMOOTH",
"253 725 OFFCURVE",
"159 705 OFFCURVE",
"100 676 CURVE",
"151 523 LINE",
"201 552 OFFCURVE",
"251 566 OFFCURVE",
"301 566 CURVE SMOOTH",
"377 566 OFFCURVE",
"409 532 OFFCURVE",
"409 446 CURVE SMOOTH",
"409 438 LINE",
"177 438 LINE",
"144 286 LINE",
"381 286 LINE",
"348 198 OFFCURVE",
"281 148 OFFCURVE",
"191 148 CURVE SMOOTH"
);
}
);
width = 630;
}
);
note = afii10047;
unicode = 042D;
},
{
glyphname = afii10048;
lastChange = "2018-06-23 23:47:21 +0000";
layers = (
{
anchors = (
{
name = top;
position = "{631, 714}";
}
);
layerId = "273861F4-9D16-4AA5-A9CF-BC69819DDA51";
paths = (
{
closed = 1;
nodes = (
"609 725 OFFCURVE",
"479 625 OFFCURVE",
"420 449 CURVE",
"303 449 LINE",
"358 714 LINE",
"167 714 LINE",
"16 0 LINE",
"207 0 LINE",
"269 291 LINE",
"391 291 LINE",
"391 265 LINE SMOOTH",
"391 91 OFFCURVE",
"491 -10 OFFCURVE",
"665 -10 CURVE SMOOTH",
"740 -10 OFFCURVE",
"806 9 OFFCURVE",
"863 48 CURVE SMOOTH",
"978 124 OFFCURVE",
"1046 277 OFFCURVE",
"1046 450 CURVE SMOOTH",
"1046 623 OFFCURVE",
"948 725 OFFCURVE",
"778 725 CURVE SMOOTH"
);
},
{
closed = 1;
nodes = (
"853 394 OFFCURVE",
"846 344 OFFCURVE",
"831 298 CURVE SMOOTH",
"800 206 OFFCURVE",
"743 148 OFFCURVE",
"682 148 CURVE SMOOTH",
"617 148 OFFCURVE",
"584 188 OFFCURVE",
"584 266 CURVE SMOOTH",
"584 315 OFFCURVE",
"592 364 OFFCURVE",
"608 413 CURVE SMOOTH",
"640 509 OFFCURVE",
"697 567 OFFCURVE",
"762 567 CURVE SMOOTH",
"821 567 OFFCURVE",
"853 522 OFFCURVE",
"853 448 CURVE SMOOTH"
);
}
);
width = 1077;
}
);
note = afii10048;
unicode = 042E;
},
{
glyphname = afii10049;
lastChange = "2018-06-23 23:47:21 +0000";
layers = (
{
anchors = (
{
name = top;
position = "{418, 714}";
}
);
layerId = "273861F4-9D16-4AA5-A9CF-BC69819DDA51";
paths = (
{
closed = 1;
nodes = (
"312 0 LINE",
"503 0 LINE",
"655 714 LINE",
"395 714 LINE SMOOTH",
"217 714 OFFCURVE",
"111 620 OFFCURVE",
"111 473 CURVE SMOOTH",
"111 407 OFFCURVE",
"131 359 OFFCURVE",
"178 320 CURVE",
"-68 0 LINE",
"160 0 LINE",
"334 260 LINE",
"368 260 LINE"
);
},
{
closed = 1;
nodes = (
"368 405 LINE SMOOTH",
"330 405 OFFCURVE",
"302 426 OFFCURVE",
"302 476 CURVE SMOOTH",
"302 530 OFFCURVE",
"338 568 OFFCURVE",
"388 568 CURVE SMOOTH",
"433 568 LINE",
"398 405 LINE"
);
}
);
width = 650;
}
);
note = afii10049;
unicode = 042F;
},
{
glyphname = afii10066;
lastChange = "2018-06-23 23:47:21 +0000";
layers = (
{
layerId = "273861F4-9D16-4AA5-A9CF-BC69819DDA51";
paths = (
{
closed = 1;
nodes = (
"443 750 OFFCURVE",
"318 747 OFFCURVE",
"209 657 CURVE SMOOTH",
"100 567 OFFCURVE",
"42 383 OFFCURVE",
"42 243 CURVE SMOOTH",
"42 81 OFFCURVE",
"121 -10 OFFCURVE",
"259 -10 CURVE SMOOTH",
"317 -10 OFFCURVE",
"368 4 OFFCURVE",
"413 32 CURVE SMOOTH",
"503 87 OFFCURVE",
"559 199 OFFCURVE",
"559 322 CURVE SMOOTH",
"559 446 OFFCURVE",
"507 516 OFFCURVE",
"407 516 CURVE SMOOTH",
"349 516 OFFCURVE",
"299 487 OFFCURVE",
"266 441 CURVE",
"262 441 LINE",
"280 511 OFFCURVE",
"316 549 OFFCURVE",
"387 571 CURVE SMOOTH",
"422 581 OFFCURVE",
"488 591 OFFCURVE",
"585 601 CURVE SMOOTH",
"635 606 LINE",
"616 766 LINE"
);
},
{
closed = 1;
nodes = (
"246 142 OFFCURVE",
"233 172 OFFCURVE",
"233 233 CURVE SMOOTH",
"233 259 OFFCURVE",
"240 295 OFFCURVE",
"244 311 CURVE",
"275 352 OFFCURVE",
"310 378 OFFCURVE",
"332 378 CURVE SMOOTH",
"360 378 OFFCURVE",
"368 358 OFFCURVE",
"368 324 CURVE SMOOTH",
"368 294 OFFCURVE",
"363 265 OFFCURVE",
"354 236 CURVE SMOOTH",
"335 179 OFFCURVE",
"303 142 OFFCURVE",
"272 142 CURVE SMOOTH"
);
}
);
width = 601;
}
);
note = afii10066;
unicode = 0431;
},
{
glyphname = afii10067;
lastChange = "2018-06-23 23:47:21 +0000";
layers = (
{
layerId = "273861F4-9D16-4AA5-A9CF-BC69819DDA51";
paths = (
{
closed = 1;
nodes = (
"297 563 OFFCURVE",
"242 549 OFFCURVE",
"194 520 CURVE SMOOTH",
"99 462 OFFCURVE",
"41 346 OFFCURVE",
"41 211 CURVE SMOOTH",
"41 71 OFFCURVE",
"129 -10 OFFCURVE",
"277 -10 CURVE SMOOTH",
"454 -10 OFFCURVE",
"538 54 OFFCURVE",
"538 166 CURVE SMOOTH",
"538 220 OFFCURVE",
"504 263 OFFCURVE",
"447 275 CURVE",
"447 279 LINE",
"533 302 OFFCURVE",
"569 345 OFFCURVE",
"569 409 CURVE SMOOTH",
"569 503 OFFCURVE",
"487 563 OFFCURVE",
"358 563 CURVE SMOOTH"
);
},
{
closed = 1;
nodes = (
"326 232 OFFCURVE",
"346 212 OFFCURVE",
"346 172 CURVE SMOOTH",
"346 135 OFFCURVE",
"322 118 OFFCURVE",
"289 118 CURVE SMOOTH",
"249 118 OFFCURVE",
"229 145 OFFCURVE",
"229 199 CURVE SMOOTH",
"229 209 OFFCURVE",
"229 220 OFFCURVE",
"231 232 CURVE",
"286 232 LINE SMOOTH"
);
},
{
closed = 1;
nodes = (
"281 414 OFFCURVE",
"309 435 OFFCURVE",
"346 435 CURVE SMOOTH",
"367 435 OFFCURVE",
"381 422 OFFCURVE",
"381 400 CURVE SMOOTH",
"381 369 OFFCURVE",
"358 354 OFFCURVE",
"314 354 CURVE SMOOTH",
"258 354 LINE"
);
}
);
width = 605;
}
);
note = afii10067;
unicode = 0432;
},
{
glyphname = afii10068;
lastChange = "2018-06-23 23:47:21 +0000";
layers = (
{
anchors = (
{
name = bottomright;
position = "{438, 0}";
},
{
name = top;
position = "{312, 553}";
}
);
layerId = "273861F4-9D16-4AA5-A9CF-BC69819DDA51";
paths = (
{
closed = 1;
nodes = (
"174 421 OFFCURVE",
"215 434 OFFCURVE",
"251 434 CURVE SMOOTH",
"280 434 OFFCURVE",
"294 425 OFFCURVE",
"294 407 CURVE SMOOTH",
"294 386 OFFCURVE",
"285 377 OFFCURVE",
"261 366 CURVE SMOOTH",
"249 361 OFFCURVE",
"232 355 OFFCURVE",
"211 349 CURVE SMOOTH",
"72 309 OFFCURVE",
"12 252 OFFCURVE",
"12 158 CURVE SMOOTH",
"12 51 OFFCURVE",
"83 -10 OFFCURVE",
"211 -10 CURVE SMOOTH",
"295 -10 OFFCURVE",
"358 4 OFFCURVE",
"418 35 CURVE",
"418 174 LINE",
"359 146 OFFCURVE",
"292 129 OFFCURVE",
"255 129 CURVE SMOOTH",
"236 129 OFFCURVE",
"223 131 OFFCURVE",
"216 135 CURVE SMOOTH",
"208 140 OFFCURVE",
"205 146 OFFCURVE",
"205 153 CURVE SMOOTH",
"205 161 OFFCURVE",
"208 168 OFFCURVE",
"214 173 CURVE",
"219 178 OFFCURVE",
"236 185 OFFCURVE",
"263 193 CURVE SMOOTH",
"323 212 OFFCURVE",
"368 230 OFFCURVE",
"399 249 CURVE SMOOTH",
"459 286 OFFCURVE",
"484 332 OFFCURVE",
"484 408 CURVE SMOOTH",
"484 506 OFFCURVE",
"408 563 OFFCURVE",
"281 563 CURVE SMOOTH",
"211 563 OFFCURVE",
"135 546 OFFCURVE",
"82 517 CURVE",
"127 396 LINE"
);
}
);
width = 506;
}
);
note = afii10068;
unicode = 0433;
},
{
glyphname = afii10069;
lastChange = "2018-06-23 23:47:21 +0000";
layers = (
{
layerId = "273861F4-9D16-4AA5-A9CF-BC69819DDA51";
paths = (
{
closed = 1;
nodes = (
"597 662 OFFCURVE",
"504 770 OFFCURVE",
"328 770 CURVE SMOOTH",
"265 770 OFFCURVE",
"217 763 OFFCURVE",
"149 741 CURVE",
"186 597 LINE",
"221 611 OFFCURVE",
"253 618 OFFCURVE",
"282 618 CURVE SMOOTH",
"373 618 OFFCURVE",
"406 573 OFFCURVE",
"406 456 CURVE SMOOTH",
"406 441 LINE",
"405 424 LINE",
"401 424 LINE",
"374 479 OFFCURVE",
"322 513 OFFCURVE",
"266 513 CURVE SMOOTH",
"223 513 OFFCURVE",
"184 500 OFFCURVE",
"150 475 CURVE SMOOTH",
"81 423 OFFCURVE",
"41 325 OFFCURVE",
"41 206 CURVE SMOOTH",
"41 69 OFFCURVE",
"122 -10 OFFCURVE",
"268 -10 CURVE SMOOTH",
"337 -10 OFFCURVE",
"396 8 OFFCURVE",
"444 42 CURVE SMOOTH",
"541 112 OFFCURVE",
"597 257 OFFCURVE",
"597 451 CURVE SMOOTH"
);
},
{
closed = 1;
nodes = (
"252 142 OFFCURVE",
"231 167 OFFCURVE",
"231 205 CURVE SMOOTH",
"231 302 OFFCURVE",
"270 371 OFFCURVE",
"320 371 CURVE SMOOTH",
"349 371 OFFCURVE",
"372 354 OFFCURVE",
"388 320 CURVE",
"379 262 OFFCURVE",
"365 218 OFFCURVE",
"348 188 CURVE SMOOTH",
"331 157 OFFCURVE",
"311 142 OFFCURVE",
"287 142 CURVE SMOOTH"
);
}
);
width = 629;
}
);
note = afii10069;
unicode = 0434;
},
{
glyphname = afii10072;
lastChange = "2018-06-23 23:47:21 +0000";
layers = (
{
anchors = (
{
name = bottomright;
position = "{972, 0}";
},
{
name = top;
position = "{579, 553}";
}
);
layerId = "273861F4-9D16-4AA5-A9CF-BC69819DDA51";
paths = (
{
closed = 1;
nodes = (
"89 406 OFFCURVE",
"110 411 OFFCURVE",
"126 411 CURVE SMOOTH",
"158 411 OFFCURVE",
"174 387 OFFCURVE",
"174 339 CURVE SMOOTH",
"174 225 OFFCURVE",
"125 140 OFFCURVE",
"59 140 CURVE SMOOTH",
"51 140 OFFCURVE",
"39 142 OFFCURVE",
"22 144 CURVE",
"-12 -3 LINE",
"17 -7 OFFCURVE",
"43 -10 OFFCURVE",
"68 -10 CURVE SMOOTH",
"204 -10 OFFCURVE",
"307 76 OFFCURVE",
"344 215 CURVE",
"414 215 LINE",
"368 0 LINE",
"550 0 LINE",
"596 215 LINE",
"680 215 LINE",
"680 68 OFFCURVE",
"749 -10 OFFCURVE",
"882 -10 CURVE SMOOTH",
"919 -10 OFFCURVE",
"950 -4 OFFCURVE",
"975 7 CURVE",
"975 157 LINE",
"951 147 OFFCURVE",
"930 142 OFFCURVE",
"914 142 CURVE SMOOTH",
"882 142 OFFCURVE",
"866 166 OFFCURVE",
"866 214 CURVE SMOOTH",
"866 327 OFFCURVE",
"914 413 OFFCURVE",
"981 413 CURVE SMOOTH",
"989 413 OFFCURVE",
"1001 412 OFFCURVE",
"1018 409 CURVE",
"1052 556 LINE",
"1024 561 OFFCURVE",
"997 563 OFFCURVE",
"972 563 CURVE SMOOTH",
"837 563 OFFCURVE",
"734 479 OFFCURVE",
"697 343 CURVE",
"624 343 LINE",
"670 553 LINE",
"488 553 LINE",
"442 343 LINE",
"360 343 LINE",
"358 486 OFFCURVE",
"289 563 OFFCURVE",
"158 563 CURVE SMOOTH",
"121 563 OFFCURVE",
"89 557 OFFCURVE",
"65 546 CURVE",
"65 396 LINE"
);
}
);
width = 1040;
}
);
note = afii10072;
unicode = 0436;
},
{
glyphname = afii10073;
lastChange = "2018-06-23 23:47:21 +0000";
layers = (
{
anchors = (
{
name = bottom;
position = "{232, 0}";
},
{
name = top;
position = "{350, 553}";
}
);
layerId = "273861F4-9D16-4AA5-A9CF-BC69819DDA51";
paths = (
{
closed = 1;
nodes = (
"152 227 LINE",
"220 227 LINE SMOOTH",
"287 227 OFFCURVE",
"322 214 OFFCURVE",
"322 178 CURVE SMOOTH",
"322 147 OFFCURVE",
"285 132 OFFCURVE",
"211 132 CURVE SMOOTH",
"145 132 OFFCURVE",
"80 146 OFFCURVE",
"16 176 CURVE",
"16 32 LINE",
"61 7 OFFCURVE",
"132 -10 OFFCURVE",
"224 -10 CURVE SMOOTH",
"409 -10 OFFCURVE",
"514 56 OFFCURVE",
"514 175 CURVE SMOOTH",
"514 228 OFFCURVE",
"484 268 OFFCURVE",
"423 284 CURVE",
"423 288 LINE",
"508 314 OFFCURVE",
"546 355 OFFCURVE",
"546 422 CURVE SMOOTH",
"546 514 OFFCURVE",
"471 563 OFFCURVE",
"325 563 CURVE SMOOTH",
"248 563 OFFCURVE",
"167 549 OFFCURVE",
"86 521 CURVE",
"127 385 LINE",
"180 410 OFFCURVE",
"250 425 OFFCURVE",
"298 425 CURVE SMOOTH",
"341 425 OFFCURVE",
"358 415 OFFCURVE",
"358 388 CURVE SMOOTH",
"358 375 OFFCURVE",
"350 364 OFFCURVE",
"334 357 CURVE SMOOTH",
"318 351 OFFCURVE",
"291 347 OFFCURVE",
"253 347 CURVE SMOOTH",
"178 347 LINE"
);
}
);
width = 582;
}
);
note = afii10073;
unicode = 0437;
},
{
glyphname = afii10076;
lastChange = "2018-06-23 23:47:21 +0000";
layers = (
{
anchors = (
{
name = bottomright;
position = "{556, 0}";
},
{
name = top;
position = "{371, 553}";
}
);
layerId = "273861F4-9D16-4AA5-A9CF-BC69819DDA51";
paths = (
{
closed = 1;
nodes = (
"315 553 LINE",
"126 553 LINE",
"11 0 LINE",
"200 0 LINE",
"255 265 LINE",
"355 0 LINE",
"562 0 LINE",
"451 275 LINE",
"668 553 LINE",
"453 553 LINE",
"262 299 LINE"
);
}
);
width = 624;
}
);
note = afii10076;
unicode = 043A;
},
{
glyphname = afii10077;
lastChange = "2018-06-23 23:47:21 +0000";
layers = (
{
layerId = "273861F4-9D16-4AA5-A9CF-BC69819DDA51";
paths = (
{
closed = 1;
nodes = (
"593 547 OFFCURVE",
"505 563 OFFCURVE",
"421 563 CURVE SMOOTH",
"333 563 OFFCURVE",
"271 545 OFFCURVE",
"225 508 CURVE SMOOTH",
"178 471 OFFCURVE",
"145 417 OFFCURVE",
"105 291 CURVE SMOOTH",
"84 225 OFFCURVE",
"69 184 OFFCURVE",
"59 167 CURVE SMOOTH",
"49 150 OFFCURVE",
"36 142 OFFCURVE",
"21 142 CURVE SMOOTH",
"7 142 OFFCURVE",
"-6 146 OFFCURVE",
"-18 152 CURVE",
"-18 5 LINE",
"7 -5 OFFCURVE",
"33 -10 OFFCURVE",
"61 -10 CURVE SMOOTH",
"139 -10 OFFCURVE",
"182 14 OFFCURVE",
"217 73 CURVE SMOOTH",
"234 103 OFFCURVE",
"252 151 OFFCURVE",
"272 218 CURVE SMOOTH",
"288 272 OFFCURVE",
"302 314 OFFCURVE",
"315 342 CURVE SMOOTH",
"341 398 OFFCURVE",
"365 421 OFFCURVE",
"412 421 CURVE SMOOTH",
"421 421 OFFCURVE",
"430 420 OFFCURVE",
"439 418 CURVE",
"352 0 LINE",
"541 0 LINE",
"649 524 LINE"
);
}
);
width = 667;
}
);
note = afii10077;
unicode = 043B;
},
{
glyphname = afii10078;
lastChange = "2018-06-23 23:47:21 +0000";
layers = (
{
layerId = "273861F4-9D16-4AA5-A9CF-BC69819DDA51";
paths = (
{
closed = 1;
nodes = (
"631 351 LINE",
"635 351 LINE",
"633 342 OFFCURVE",
"628 322 OFFCURVE",
"621 291 CURVE SMOOTH",
"610 248 OFFCURVE",
"600 205 OFFCURVE",
"591 162 CURVE SMOOTH",
"556 0 LINE",
"734 0 LINE",
"852 553 LINE",
"588 553 LINE",
"410 192 LINE",
"406 192 LINE",
"383 553 LINE",
"133 553 LINE",
"16 0 LINE",
"193 0 LINE",
"228 158 LINE SMOOTH",
"237 196 OFFCURVE",
"247 261 OFFCURVE",
"258 351 CURVE",
"262 351 LINE",
"285 0 LINE",
"462 0 LINE"
);
}
);
width = 863;
}
);
note = afii10078;
unicode = 043C;
},
{
glyphname = afii10079;
lastChange = "2018-06-23 23:47:21 +0000";
layers = (
{
anchors = (
{
name = bottomright;
position = "{559, 0}";
}
);
layerId = "273861F4-9D16-4AA5-A9CF-BC69819DDA51";
paths = (
{
closed = 1;
nodes = (
"11 0 LINE",
"200 0 LINE",
"246 215 LINE",
"355 215 LINE",
"310 0 LINE",
"499 0 LINE",
"616 553 LINE",
"427 553 LINE",
"384 353 LINE",
"276 353 LINE",
"318 553 LINE",
"129 553 LINE"
);
}
);
width = 627;
}
);
note = afii10079;
unicode = 043D;
},
{
glyphname = afii10086;
lastChange = "2018-06-23 23:47:21 +0000";
layers = (
{
layerId = "273861F4-9D16-4AA5-A9CF-BC69819DDA51";
paths = (
{
closed = 1;
nodes = (
"405 -240 LINE",
"453 -8 LINE",
"687 13 OFFCURVE",
"804 121 OFFCURVE",
"804 317 CURVE SMOOTH",
"804 452 OFFCURVE",
"725 539 OFFCURVE",
"574 562 CURVE",
"615 760 LINE",
"433 760 LINE",
"392 562 LINE",
"158 542 OFFCURVE",
"41 433 OFFCURVE",
"41 237 CURVE SMOOTH",
"41 102 OFFCURVE",
"120 15 OFFCURVE",
"271 -8 CURVE",
"223 -240 LINE"
);
},
{
closed = 1;
nodes = (
"588 410 OFFCURVE",
"614 367 OFFCURVE",
"614 310 CURVE SMOOTH",
"614 218 OFFCURVE",
"559 142 OFFCURVE",
"484 134 CURVE",
"543 420 LINE"
);
},
{
closed = 1;
nodes = (
"258 144 OFFCURVE",
"231 186 OFFCURVE",
"231 244 CURVE SMOOTH",
"231 340 OFFCURVE",
"283 412 OFFCURVE",
"361 420 CURVE",
"302 134 LINE"
);
}
);
width = 845;
}
);
note = afii10086;
unicode = 0444;
},
{
glyphname = afii10088;
lastChange = "2018-06-23 23:47:21 +0000";
layers = (
{
layerId = "273861F4-9D16-4AA5-A9CF-BC69819DDA51";
paths = (
{
closed = 1;
nodes = (
"590 143 OFFCURVE",
"578 141 OFFCURVE",
"568 141 CURVE SMOOTH",
"545 141 OFFCURVE",
"533 151 OFFCURVE",
"533 171 CURVE SMOOTH",
"533 180 OFFCURVE",
"536 196 OFFCURVE",
"540 218 CURVE SMOOTH",
"611 553 LINE",
"422 553 LINE",
"365 284 LINE SMOOTH",
"346 196 OFFCURVE",
"313 141 OFFCURVE",
"275 141 CURVE SMOOTH",
"255 141 OFFCURVE",
"238 154 OFFCURVE",
"238 183 CURVE SMOOTH",
"238 202 OFFCURVE",
"241 225 OFFCURVE",
"247 252 CURVE SMOOTH",
"310 553 LINE",
"121 553 LINE",
"59 259 LINE SMOOTH",
"51 219 OFFCURVE",
"47 182 OFFCURVE",
"47 147 CURVE SMOOTH",
"47 49 OFFCURVE",
"101 -10 OFFCURVE",
"193 -10 CURVE SMOOTH",
"264 -10 OFFCURVE",
"314 24 OFFCURVE",
"355 93 CURVE",
"359 93 LINE",
"364 54 OFFCURVE",
"381 28 OFFCURVE",
"410 15 CURVE",
"352 -203 LINE",
"532 -203 LINE",
"604 147 LINE"
);
}
);
width = 647;
}
);
note = afii10088;
unicode = 0446;
},
{
glyphname = afii10089;
lastChange = "2018-06-23 23:47:21 +0000";
layers = (
{
anchors = (
{
name = bottomright;
position = "{540, 0}";
},
{
name = top;
position = "{363, 553}";
}
);
layerId = "273861F4-9D16-4AA5-A9CF-BC69819DDA51";
paths = (
{
closed = 1;
nodes = (
"259 366 OFFCURVE",
"262 389 OFFCURVE",
"268 416 CURVE SMOOTH",
"296 553 LINE",
"107 553 LINE",
"80 423 LINE SMOOTH",
"72 383 OFFCURVE",
"68 341 OFFCURVE",
"68 297 CURVE SMOOTH",
"68 271 OFFCURVE",
"73 247 OFFCURVE",
"83 225 CURVE SMOOTH",
"104 181 OFFCURVE",
"145 154 OFFCURVE",
"195 154 CURVE SMOOTH",
"248 154 OFFCURVE",
"292 169 OFFCURVE",
"328 201 CURVE",
"333 201 LINE",
"291 0 LINE",
"480 0 LINE",
"597 553 LINE",
"408 553 LINE",
"386 448 LINE SMOOTH",
"365 353 OFFCURVE",
"335 305 OFFCURVE",
"296 305 CURVE SMOOTH",
"276 305 OFFCURVE",
"259 318 OFFCURVE",
"259 347 CURVE SMOOTH"
);
}
);
width = 608;
}
);
note = afii10089;
unicode = 0447;
},
{
glyphname = afii10090;
lastChange = "2018-06-23 23:47:21 +0000";
layers = (
{
layerId = "273861F4-9D16-4AA5-A9CF-BC69819DDA51";
paths = (
{
closed = 1;
nodes = (
"368 288 LINE SMOOTH",
"348 189 OFFCURVE",
"320 140 OFFCURVE",
"272 140 CURVE SMOOTH",
"251 140 OFFCURVE",
"238 153 OFFCURVE",
"238 180 CURVE SMOOTH",
"238 204 OFFCURVE",
"240 226 OFFCURVE",
"245 245 CURVE",
"308 553 LINE",
"119 553 LINE",
"58 253 LINE SMOOTH",
"51 217 OFFCURVE",
"47 184 OFFCURVE",
"47 153 CURVE SMOOTH",
"47 45 OFFCURVE",
"96 -10 OFFCURVE",
"187 -10 CURVE SMOOTH",
"259 -10 OFFCURVE",
"313 22 OFFCURVE",
"355 91 CURVE",
"359 91 LINE",
"376 26 OFFCURVE",
"415 -10 OFFCURVE",
"491 -10 CURVE SMOOTH",
"569 -10 OFFCURVE",
"612 20 OFFCURVE",
"651 91 CURVE",
"655 91 LINE",
"647 0 LINE",
"798 0 LINE",
"915 553 LINE",
"726 553 LINE",
"668 284 LINE SMOOTH",
"657 235 OFFCURVE",
"645 198 OFFCURVE",
"630 175 CURVE SMOOTH",
"615 152 OFFCURVE",
"597 140 OFFCURVE",
"575 140 CURVE SMOOTH",
"552 140 OFFCURVE",
"540 155 OFFCURVE",
"540 186 CURVE SMOOTH",
"540 198 OFFCURVE",
"542 218 OFFCURVE",
"547 245 CURVE",
"611 553 LINE",
"422 553 LINE"
);
}
);
width = 926;
}
);
note = afii10090;
unicode = 0448;
},
{
glyphname = afii10091;
lastChange = "2018-06-23 23:47:21 +0000";
layers = (
{
layerId = "273861F4-9D16-4AA5-A9CF-BC69819DDA51";
paths = (
{
closed = 1;
nodes = (
"660 58 OFFCURVE",
"684 29 OFFCURVE",
"714 15 CURVE",
"656 -203 LINE",
"836 -203 LINE",
"908 147 LINE",
"894 143 OFFCURVE",
"882 141 OFFCURVE",
"872 141 CURVE SMOOTH",
"849 141 OFFCURVE",
"837 151 OFFCURVE",
"837 171 CURVE SMOOTH",
"837 179 OFFCURVE",
"839 194 OFFCURVE",
"844 218 CURVE SMOOTH",
"915 553 LINE",
"726 553 LINE",
"668 284 LINE SMOOTH",
"657 235 OFFCURVE",
"645 198 OFFCURVE",
"630 175 CURVE SMOOTH",
"615 152 OFFCURVE",
"597 140 OFFCURVE",
"575 140 CURVE SMOOTH",
"552 140 OFFCURVE",
"540 155 OFFCURVE",
"540 186 CURVE SMOOTH",
"540 198 OFFCURVE",
"542 218 OFFCURVE",
"547 245 CURVE",
"611 553 LINE",
"422 553 LINE",
"368 288 LINE SMOOTH",
"348 189 OFFCURVE",
"320 140 OFFCURVE",
"272 140 CURVE SMOOTH",
"251 140 OFFCURVE",
"238 153 OFFCURVE",
"238 180 CURVE SMOOTH",
"238 204 OFFCURVE",
"240 226 OFFCURVE",
"245 245 CURVE",
"308 553 LINE",
"119 553 LINE",
"58 253 LINE SMOOTH",
"51 217 OFFCURVE",
"47 184 OFFCURVE",
"47 153 CURVE SMOOTH",
"47 45 OFFCURVE",
"96 -10 OFFCURVE",
"187 -10 CURVE SMOOTH",
"259 -10 OFFCURVE",
"313 22 OFFCURVE",
"355 91 CURVE",
"359 91 LINE",
"376 26 OFFCURVE",
"415 -10 OFFCURVE",
"491 -10 CURVE SMOOTH",
"569 -10 OFFCURVE",
"612 20 OFFCURVE",
"651 91 CURVE",
"655 91 LINE"
);
}
);
width = 951;
}
);
note = afii10091;
unicode = 0449;
},
